/* XPM */
static char *result[] = {
/* columns rows colors chars-per-pixel */
"60 60 133 2 ",
"   c #601C1F",
".  c #731A1E",
"X  c #7C1B1E",
"o  c #75201E",
"O  c #491F22",
"+  c #571E21",
"@  c #5A1F21",
"#  c #611E21",
"$  c #6D1D21",
"%  c #741D21",
"&  c #7A1D22",
"*  c #4C2423",
"=  c #4F2E25",
"-  c #5B2223",
";  c #5C2B23",
":  c #4F3C27",
">  c #433428",
",  c #563924",
"<  c #4C2F31",
"1  c #473D37",
"2  c #622022",
"3  c #6C2725",
"4  c #662E22",
"5  c #6F2F24",
"6  c #742322",
"7  c #7D2023",
"8  c #752B23",
"9  c #7E2923",
"0  c #603323",
"q  c #6C3525",
"w  c #643D25",
"e  c #6B3925",
"r  c #574226",
"t  c #5C4525",
"y  c #544C27",
"u  c #5B4926",
"i  c #5F4028",
"p  c #524D2A",
"a  c #4E5B28",
"s  c #5A5526",
"d  c #5A542A",
"f  c #5B5B29",
"g  c #664427",
"h  c #6B4527",
"j  c #614C27",
"k  c #624328",
"l  c #685527",
"z  c #635329",
"x  c #6B5629",
"c  c #5D6629",
"v  c #5B732B",
"b  c #5A7A2B",
"n  c #656229",
"m  c #6C642E",
"M  c #636E2D",
"N  c #6C692F",
"B  c #62722C",
"V  c #627C2C",
"C  c #6C7331",
"Z  c #755F60",
"A  c #85171C",
"S  c #8F161C",
"D  c #95151B",
"F  c #9D131B",
"G  c #98191F",
"H  c #A3151C",
"J  c #AA151D",
"K  c #B6171E",
"L  c #BE161E",
"P  c #841D22",
"I  c #8A1E22",
"U  c #931E24",
"Y  c #9B1B21",
"T  c #A21B21",
"R  c #AD1D23",
"E  c #B51B22",
"W  c #BE1B22",
"Q  c #812623",
"!  c #932D32",
"~  c #8B3236",
"^  c #94363A",
"/  c #A02A26",
"(  c #A52328",
")  c #A02C31",
"_  c #C2171E",
"`  c #CB161E",
"'  c #D3171F",
"]  c #D1181F",
"[  c #C31B22",
"{  c #CE1921",
"}  c #D91720",
"|  c #D51921",
" . c #DA1921",
".. c #E71D25",
"X. c #913E41",
"o. c #884346",
"O. c #904A4D",
"+. c #845B5D",
"@. c #8B5B5D",
"#. c #8B7E7E",
"$. c #967677",
"%. c #62842C",
"&. c #628B2A",
"*. c #688E2E",
"=. c #69932E",
"-. c #6D9B2E",
";. c #6B8530",
":. c #6E9930",
">. c #71A42E",
",. c #76AB2E",
"<. c #79AD2F",
"1. c #74A231",
"2. c #78A134",
"3. c #76AA31",
"4. c #7BAF30",
"5. c #7DB032",
"6. c #83B335",
"7. c #89B537",
"8. c #84B438",
"9. c #8AB738",
"0. c #8DB83A",
"q. c #90BA3B",
"w. c #93BB40",
"e. c #968384",
"r. c #ACA0A1",
"t. c #B1B3B4",
"y. c #BBBEBE",
"u. c #BEC0C0",
"i. c #C3C7C6",
"p. c #C6C9C9",
"a. c #D0D4D4",
"s. c #DEE3E3",
"d. c #E7E9E8",
/* pixels */
"4.4.4.3.4.<.4.<.4.4.<.5.4.<.4.4.5.<.<.<.<.<.4.<.<.,.<.<.<.4.4.<.<.<.<.<.<.<.6.<.<.<.<.4.5.,.5.5.,.,.,.,.<.<.<.5.5.4.4.5.",
"4.4.4.4.4.5.5.5.5.4.<.7.6.<.<.5.6.9.5.<.<.<.<.6.<.<.<.7.5.4.,.,.<.5.6.4.<.6.6.<.<.<.<.4.,.,.6.6.<.,.,.6.<.<.<.<.6.5.5.5.",
"4.4.4.9.7.5.<.<.4.<.4.5.<.5.6.5.5.4.<.4.<.<.5.6.<.5.5.6.5.4.,.<.<.5.6.5.5.<.<.<.6.6.9.5.<.6.5.4.4.5.<.7.5.<.5.<.6.<.<.5.",
"5.3.4.6.5.<.<.4.6.4.4.5.4.4.6.<.,.6.7.5.7.<.<.4.5.4.5.5.4.4.,.<.<.<.4.4.<.<.5.4.6.6.9.5.5.6.5.<.4.7.<.<.<.<.<.<.,.,.4.<.",
"5.<.,.,.,.<.<.5.0.5.<.5.5.<.4.<.<.5.6.5.5.<.<.5.6.5.5.4.5.4.,.,.6.0.6.5.4.6.6.<.5.4.4.4.4.<.<.<.,.6.5.<.<.<.6.6.4.4.9.5.",
"4.<.<.6.,.<.<.<.4.4.<.7.6.<.<.5.4.5.5.5.5.6.<.<.9.0.9.6.7.4.<.<.5.6.9.6.<.5.5.<.4.4.4.4.4.4.4.4.,.,.<.5.6.<.<.5.<.<.5.4.",
"4.9.9.7.<.<.<.<.4.<.<.5.<.<.5.4.<.<.4.<.5.6.4.<.6.6.5.6.6.5.4.<.,.<.<.<.<.4.,.,.4.6.4.4.5.4.4.4.<.<.<.<.<.<.<.<.,.,.<.,.",
"4.9.6.<.<.<.<.5.5.<.<.<.<.<.4.4.4.5.,.<.5.5.4.4.5.5.4.4.4.5.5.6.<.<.5.6.<.7.<.<.<.0.7.6.6.4.5.6.5.<.5.<.5.<.6.<.<.5.<.<.",
"4.4.4.4.<.5.6.6.6.6.6.,.,.,.,.6.6.7.5.<.5.9.4.4.5.7.0.0.5.<.5.7.<.<.5.5.4.5.<.<.4.6.5.5.6.5.5.5.<.<.<.<.6.6.0.6.5.0.5.<.",
"4.3.3.4.4.5.9.6.6.<.5.,.,.,.<.6.5.5.5.5.5.5.5.5.5.5.6.6.5.<.5.5.5.4.<.<.<.<.<.<.4.5.5.4.5.5.5.5.5.5.<.5.5.5.5.5.<.5.<.5.",
"4.4.6.6.6.5.5.5.<.<.,.<.,.,.<.<.<.<.5.5.4.4.<.4.5.5.6.5.5.<.<.5.4.<.,.<.5.<.<.<.4.4.5.5.5.4.5.5.5.4.6.5.4.5.6.<.<.<.<.4.",
"4.4.6.4.5.4.4.4.<.6.7.6.6.,.,.<.4.6.5.6.6.<.6.6.<.<.0.7.6.5.5.6.4.4.4.4.5.6.6.7.4.<.5.5.7.5.6.5.5.5.6.7.<.6.6.5.<.4.5.5.",
"5.5.5.4.3.<.<.4.<.4.4.4.<.<.<.4.4.6.4.6.5.,.5.5.,.,.<.,.<.<.5.<.<.5.0.4.5.5.5.5.,.4.4.5.q.6.0.8.<.4.5.5.<.5.5.<.5.<.4.5.",
"5.5.5.4.<.<.4.4.5.4.<.,.<.4.5.5.4.,.<.4.4.<.<.<.,.,.,.,.<.<.<.<.<.5.7.5.5.5.5.5.6.6.4.5.5.5.5.5.4.,.<.5.<.5.5.5.5.5.5.5.",
"8.8.6.9.5.4.9.8.0.6.<.<.7.5.<.<.4.<.6.5.<.<.<.<.,.,.,.,.,.4.6.,.<.5.<.<.<.<.4.6.6.5.4.4.6.5.4.<.,.,.<.0.6.9.5.<.q.6.6.6.",
"8.8.5.4.4.<.6.6.6.5.4.<.5.<.<.,.<.<.6.5.,.<.6.6.6.<.4.,.,.<.4.,.4.4.,.<.<.<.<.4.4.4.,.5.6.6.6.4.6.<.<.5.<.7.<.<.6.4.<.4.",
"5.<.<.<.4.5.4.<.4.5.5.4.<.<.,.,.,.,.,.,.<.<.9.7.7.<.<.6.6.<.,.,.4.7.<.6.7.<.6.6.<.<.<.6.5.4.6.4.6.<.,.,.,.<.<.<.<.5.<.<.",
"4.<.<.<.4.5.4.<.6.6.5.6.5.<.6.<.<.<.<.<.<.<.<.<.<.<.,.6.5.,.,.<.4.9.<.4.<.,.4.6.<.<.6.<.<.<.<.<.,.,.,.<.,.<.<.<.<.<.<.<.",
"4.4.<.,.,.,.,.<.7.5.6.6.5.5.5.4.4.6.6.5.<.<.<.6.<.5.<.<.<.<.<.<.,.<.4.<.<.<.<.<.<.6.7.<.5.<.,.<.,.<.6.6.<.6.<.<.<.6.6.<.",
"4.<.6.6.<.,.<.<.4.5.4.5.<.<.5.4.<.5.6.6.6.,.<.7.<.<.<.<.<.<.<.<.<.,.<.,.<.<.<.<.<.<.<.<.4.6.<.<.4.4.q.9.6.7.<.<.<.6.6.<.",
"4.4.0.0.<.<.<.<.4.4.4.<.<.<.5.4.<.5.5.<.<.<.<.>.>.5.5.<.4.<.<.<.<.,.<.<.5.5.6.6.6.4.4.<.4.q.5.6.6.5.6.4.4.<.,.<.<.<.,.,.",
"5.4.4.4.,.,.6.6.<.6.<.6.5.4.9.6.6.<.5.5.<.5.=.0 h ;.6.4.0.6.6.6.<.<.7.<.9.5.7.5.6.6.5.4.4.5.5.7.6.4.4.4.7.<.<.<.7.<.,.,.",
"5.<.4.,.,.,.6.6.<.6.<.6.4.<.9.6.6.5.5.0.6.5.b X & 3 f 1.>.M d *.3.<.6.<.3.-.:.5.<.<.<.4.4.4.5.5.5.5.5.4.6.<.<.<.6.<.,.,.",
"4.<.<.3.<.5.5.4.<.4.<.<.<.<.5.5.6.5.5.5.5.5.V . U R % i k R Y q g %.-.v u ; d 6.<.9.4.4.<.<.5.5.5.5.<.<.<.<.<.4.5.<.<.<.",
"4.3.4.4.5.5.4.3.<.<.4.<.<.<.4.5.9.6.4.4.5.5.v . ( ..6 T E  .|  .T : 4 X D % p 4.<.6.4.<.<.<.<.<.4.<.<.<.<.4.<.5.<.5.<.<.",
"4.4.5.4.4.6.5.4.<.<.5.5.7.6.<.<.5.5.5.5.5.9.*.X X 7 T  . . . . .| W W E I R c 4.<.<.<.<.<.<.,.<.<.5.<.4.6.9.<.4.6.6.<.<.",
"4.4.w.4.<.6.6.5.7.6.<.<.5.<.<.6.5.5.-.B B 2.-.6 A Y |  . .}  . . . .| P [ / &.<.4.<.<.7.5.<.<.6.7.9.4.<.5.7.<.<.5.6.<.<.",
"5.3.5.4.<.4.3.5.6.5.5.<.<.<.5.q.4.C 5 P T e b , D H  .| R [  . . . . .R U x 3.3.6.6.<.6.5.<.<.<.4.4.<.4.<.<.<.<.4.<.5.<.",
"4.,.<.<.,.<.<.5.4.4.5.4.5.5.5.2.z 7 $ 2 & & 7 ; A R  .( #.$.^ W } { E ~ > b m h N 1.<.<.<.<.<.6.7.6.<.,.5.5.<.<.<.4.4.<.",
"6.<.<.,.,.<.5.7.6.7.<.<.7.5.:.g & # D % 3   X G I 7 [ ! y.d.p.+._ X.r.t.1 8 I Y X g =.<.<.<.<.<.9.7.6.,.6.7.<.<.6.<.6.6.",
"9.6.6.6.<.<.4.5.<.4.5.3.5.,.u $ @ U J % % D . * G I E R #.a.i.O.` @.s.u.< % @ % @ & w -.<.,.,.<.<.<.<.,.<.5.<.6.q.<.<.6.",
"5.3.<.<.<.<.<.<.<.<.<.4.4.<.%.V V n e 2 - g %.a + . K | ( o.^ [ } ) e.Z O A X & X   & j >.0.<.7.6.<.<.6.,.<.<.<.6.4.4.4.",
"8.4.4.4.<.7.7.<.,.6.6.6.6.<.<.5.0.5.4.p a 4.5.-., H H D ] ' '  . .| E q c 9 . % G F   & n 6.4.5.5.<.<.6.<.,.<.<.4.4.4.4.",
"9.6.6.3.<.6.6.,.<.<.<.4.<.<.<.<.<.5.5.>.3.5.4.<.%.4 F H F L ] ] ] _ Q ;.6.;.= - w l f r y >.<.4.<.,.,.,.,.,.<.<.4.4.6.6.",
"4.<.<.4.<.4.,.<.<.<.<.<.<.<.<.<.<.<.<.5.4.5.5.5.5.*.t o S D F D X t %.<.<.<.v v >.<.<.>.>.<.4.5.5.<.<.<.,.<.6.<.4.4.6.4.",
"8.9.6.6.<.<.<.,.<.<.<.<.5.6.4.<.<.<.5.5.4.5.4.4.<.6.<.&.M s s c %.>.4.<.<.<.,.<.5.4.4.5.4.<.<.0.6.6.6.,.,.<.6.,.<.<.<.4.",
"6.9.6.5.<.6.<.<.<.<.,.5.6.9.6.<.<.4.6.0.5.7.5.5.4.7.5.<.4.<.<.<.<.<.<.<.,.7.5.6.7.5.5.7.4.<.,.4.4.6.6.,.,.,.<.<.<.<.<.<.",
"4.4.3.5.<.<.<.,.7.6.,.,.<.4.4.5.5.<.6.7.6.q.5.<.4.<.<.<.<.4.4.5.,.5.6.4.<.5.<.<.4.4.5.4.<.4.<.4.4.<.<.<.<.<.<.<.<.3.<.<.",
"4.3.4.4.5.<.<.,.4.<.<.<.<.6.7.q.6.5.5.5.5.4.<.<.<.6.6.4.6.5.4.6.<.6.6.<.<.4.5.5.<.<.4.4.4.4.4.4.<.<.,.,.<.,.6.<.6.<.<.<.",
"5.3.3.4.6.6.<.<.<.<.<.4.3.5.5.6.5.5.5.4.<.4.5.<.<.6.7.6.9.<.6.0.<.<.<.<.4.<.7.6.<.<.4.4.5.<.<.4.<.<.,.<.<.<.9.6.7.4.7.<.",
"4.<.<.<.4.<.,.<.4.4.6.<.<.4.4.4.4.4.9.6.7.5.6.6.,.4.5.5.4.4.5.5.,.,.,.<.5.<.<.<.,.,.6.0.0.<.<.<.5.5.4.<.5.<.,.<.5.5.6.,.",
"4.<.9.<.<.,.,.6.0.4.9.6.<.7.6.4.<.4.5.<.5.<.5.4.4.4.4.4.,.4.4.4.<.,.<.<.<.4.<.<.,.,.<.6.7.5.<.5.0.6.7.7.6.<.,.<.<.5.5.<.",
"6.3.4.<.<.<.,.4.6.<.<.<.<.4.4.<.<.<.<.4.5.5.<.5.4.<.4.,.4.<.5.4.<.<.<.4.<.<.5.4.<.<.<.4.<.,.<.<.6.<.5.6.5.<.<.<.,.6.6.,.",
"6.4.<.<.<.<.<.<.<.,.<.<.<.<.<.<.<.,.<.<.<.<.4.4.6.6.6.5.6.4.5.5.6.5.<.<.<.4.9.5.0.<.5.7.<.,.<.<.<.5.5.5.<.<.<.<.,.<.<.,.",
"4.3.4.4.<.<.<.<.,.<.<.<.4.4.<.<.,.<.<.6.6.<.<.<.6.9.6.6.6.4.<.4.7.5.<.<.<.<.<.5.5.5.5.7.5.<.<.<.<.<.<.4.<.<.<.,.<.,.,.,.",
"8.4.6.8.4.6.4.<.5.6.6.6.6.9.5.6.4.<.,.5.6.4.7.4.<.4.5.5.<.4.<.4.5.4.<.<.<.<.<.5.5.5.4.5.<.,.<.<.5.<.<.<.7.9.7.<.7.<.,.<.",
"w.6.4.9.5.6.5.4.6.0.6.7.4.6.4.5.<.,.,.,.<.4.6.4.5.<.6.9.<.4.4.4.5.4.5.5.4.<.<.6.6.4.<.<.<.,.6.7.7.6.<.<.6.6.6.<.6.<.,.,.",
"8.4.<.6.4.4.4.4.4.5.4.4.<.<.<.<.,.4.,.,.4.<.<.4.<.<.4.<.<.5.6.5.<.5.7.6.<.<.<.7.7.4.6.<.5.<.<.6.6.<.<.<.<.<.<.<.,.<.<.,.",
"5.4.4.9.5.4.4.4.5.5.4.4.<.4.<.<.<.<.4.6.<.5.<.4.4.<.4.<.5.0.0.6.<.<.6.6.5.4.5.5.4.<.4.4.5.5.<.,.<.<.<.<.<.<.<.<.<.<.<.<.",
"4.<.4.,.4.4.4.4.5.5.4.<.<.6.6.<.<.<.<.9.5.9.<.<.7.5.<.<.<.6.<.<.<.<.<.5.5.<.<.5.6.4.4.5.4.<.4.<.<.<.<.6.6.6.6.6.<.<.5.9.",
"4.3.3.,.4.4.5.9.6.6.<.<.<.<.<.<.,.<.<.4.<.5.<.<.5.<.<.<.,.,.,.,.<.5.5.5.4.5.5.5.4.4.6.<.<.4.0.6.<.4.<.6.6.6.<.4.<.<.5.6.",
"5.4.4.5.4.4.5.6.6.5.3.<.,.<.<.6.<.<.<.<.5.5.5.<.<.,.<.6.,.6.6.6.6.<.5.6.5.7.5.6.7.6.6.<.<.4.7.6.5.6.<.5.<.6.4.4.4.4.5.<.",
"5.5.q.6.6.<.4.4.,.<.<.,.<.5.9.9.9.5.<.<.6.6.5.<.4.<.<.6.<.4.6.5.5.4.5.7.6.6.6.5.6.<.<.<.4.<.<.<.4.6.<.4.4.6.6.,.4.5.<.<.",
"4.5.6.6.6.4.4.,.,.,.<.<.<.4.6.5.5.4.<.<.6.6.5.<.4.5.4.<.<.<.<.,.,.4.5.5.4.4.4.<.,.<.<.6.<.<.<.3.<.,.<.<.<.<.<.<.4.5.<.5.",
"4.4.<.<.<.4.4.<.,.<.<.<.<.,.<.<.<.<.<.<.<.<.<.<.<.<.,.<.<.5.5.5.,.<.4.<.<.<.<.<.<.6.9.7.<.<.<.<.4.4.<.<.<.<.4.4.5.5.4.4.",
"4.4.<.5.<.5.4.4.<.<.<.<.<.<.5.,.<.4.<.<.<.<.5.5.4.<.,.<.<.5.4.<.<.,.5.<.<.<.3.,.<.<.<.<.<.<.,.,.6.9.<.4.7.4.<.6.6.<.4.<.",
"5.5.4.8.6.4.5.<.4.5.6.<.<.5.6.,.<.5.<.4.4.<.6.9.5.5.4.6.5.3.<.<.5.4.<.<.<.<.6.6.,.<.,.,.4.<.,.,.<.<.<.,.9.4.<.7.6.<.<.4.",
"5.4.4.8.8.5.3.4.4.5.6.<.<.4.4.4.6.6.6.5.4.6.4.5.4.<.4.9.6.3.<.5.7.4.<.5.4.,.4.4.<.<.<.<.8.6.,.<.,.<.6.<.6.4.<.4.6.4.,.4.",
"5.4.3.4.5.3.9.8.4.3.5.<.<.5.5.5.9.6.9.5.4.6.4.,.<.6.5.5.5.5.4.4.<.<.<.4.5.<.<.6.6.4.6.,.4.4.3.4.,.,.7.6.9.6.<.4.9.4.<.<.",
"5.3.4.4.5.5.5.5.5.5.5.5.5.5.3.5.5.5.5.5.3.4.3.,.4.0.5.5.5.5.4.4.4.4.4.<.4.5.3.6.6.4.5.<.4.4.4.4.<.3.<.<.4.6.3.<.6.3.4.4."
};
