/* XPM */
static char *result[] = {
/* columns rows colors chars-per-pixel */
"60 60 124 2 ",
"   c #6A1B1E",
".  c #731A1E",
"X  c #7A1A1E",
"o  c #541F22",
"O  c #621E21",
"+  c #6B1D21",
"@  c #751D22",
"#  c #7A1D22",
"$  c #592123",
"%  c #423C26",
"&  c #4C3B27",
"*  c #4A352F",
"=  c #413E2B",
"-  c #5B3424",
";  c #5B3D26",
":  c #642322",
">  c #6F2023",
",  c #672E21",
"<  c #6B2921",
"1  c #722322",
"2  c #722A23",
"3  c #653224",
"4  c #6D3225",
"5  c #6F3C25",
"6  c #743425",
"7  c #743824",
"8  c #504126",
"9  c #5E4024",
"0  c #554827",
"q  c #564E2B",
"w  c #575727",
"e  c #585927",
"r  c #525229",
"t  c #5A5F29",
"y  c #49583A",
"u  c #674527",
"i  c #754428",
"p  c #675229",
"a  c #635B29",
"s  c #6A5E2C",
"d  c #5B6D29",
"f  c #5C762B",
"g  c #5E7C2C",
"h  c #65632B",
"j  c #62732C",
"k  c #68702F",
"l  c #617B2C",
"z  c #6E494B",
"x  c #87161C",
"c  c #8D151B",
"v  c #831A1E",
"b  c #89191F",
"n  c #96131A",
"m  c #9C141B",
"M  c #93191E",
"N  c #A2141A",
"B  c #AD171E",
"V  c #B6161C",
"C  c #BC171F",
"Z  c #831D22",
"A  c #8C1D22",
"S  c #931C21",
"D  c #9B1D22",
"F  c #A41B21",
"G  c #AB1B22",
"H  c #B31C22",
"J  c #BD1C22",
"K  c #852623",
"L  c #882321",
"P  c #9B252A",
"I  c #942D32",
"U  c #A1262B",
"Y  c #AC2429",
"T  c #A82C31",
"R  c #C3161E",
"E  c #CB171E",
"W  c #D3171F",
"Q  c #C41A21",
"!  c #CD1921",
"~  c #D71921",
"^  c #DA1921",
"/  c #953C40",
"(  c #8D4B4E",
")  c #8B5557",
"_  c #8E6567",
"`  c #83686A",
"'  c #5D822D",
"]  c #5F892C",
"[  c #66862E",
"{  c #658C2D",
"}  c #65942B",
"|  c #69942D",
" . c #6D9C2E",
".. c #6C8731",
"X. c #698A30",
"o. c #6F9A30",
"O. c #759335",
"+. c #6EA02F",
"@. c #71A42E",
"#. c #76AB2E",
"$. c #79AD2F",
"%. c #7AB02F",
"&. c #74A430",
"*. c #7AA534",
"=. c #77AB30",
"-. c #7BAF30",
";. c #7DB032",
":. c #81AC36",
">. c #83B335",
",. c #89B537",
"<. c #84B438",
"1. c #8AB738",
"2. c #8DB93A",
"3. c #90BA3B",
"4. c #93BB40",
"5. c #989595",
"6. c #A49696",
"7. c #AFADAE",
"8. c #B3B5B5",
"9. c #B7BABA",
"0. c #BCBDBD",
"q. c #BFC1C2",
"w. c #D7DCDC",
"e. c #EBECEC",
/* pixels */
"-.-.-.=.-.$.$.;.;.-.$.>.-.$.$.-.;.;.$.#.$.$.-.$.$.#.#.-.$.-.-.#.#.$.$.$.$.$.>.$.$.$.$.;.;.#.;.;.#.#.#.#.#.$.$.%.-.-.-.;.",
"-.-.-.-.-.;.;.$.-.-.$.>.>.$.$.;.>.,.-.-.$.$.$.>.$.$.$.,.>.#.#.#.$.;.>.$.$.>.>.$.$.$.$.$.#.#.>.>.$.#.#.>.$.$.$.$.1.-.;.;.",
"-.=.-.2.1.;.$.$.-.-.-.;.$.-.1.-.;.;.$.-.#.$.;.>.$.;.;.>.;.-.#.#.$.>.>.;.;.$.-.$.>.>.1.;.#.>.;.;.-.-.$.1.:.$.-.-.>.#.-.-.",
";.=.-.>.;.$.#.;.>.$.-.;.$.-.>.$.#.;.1.;.1.$.$.$.;.;.;.-.;.;.#.-.$.$.$.$.$.$.;.$.>.>.>.>.;.>.;.-.$.1.-.$.$.$.$.$.#.$.-.-.",
">.$.$.#.#.$.$.;.2.-.$.;.-.$.$.-.$.;.>.;.;.$.$.;.;.>.;.;.;.-.#.#.>.2.1.;.;.>.>.$.;.;.$.;.$.#.#.#.#.>.$.$.$.$.>.>.-.-.,.-.",
"-.$.$.-.#.$.$.$.-.;.$.1.>.$.;.-.;.;.;.;.;.>.$.$.2.2.,.>.>.;.=.#.$.1.>.>.$.;.;.$.$.-.;.-.-.;.-.;.#.#.$.>.>.$.>.%.$.#.;.-.",
"-.1.1.1.$.$.$.$.$.$.$.-.$.$.-.;.$.$.;.$.;.>.-.$.>.>.;.;.>.;.;.#.#.$.$.$.#.-.#.#.-.>.-.-.;.%.#.#.$.$.$.$.$.$.#.#.$.$.$.#.",
"-.>.>.$.$.$.$.;.;.-.$.-.$.$.-.%.$.;.#.$.;.;.$.;.;.;.;.-.%.;.>.>.#.#.>.>.$.1.#.#.$.3.>.,.>.;.>.>.$.;.%.$.;.$.>.$.$.-.$.$.",
"-.-.-.-.$.;.>.>.>.;.>.$.#.#.#.>.>.,.%.$.>.1.-.-.;.>.3.2.;.#.;.1.%.#.;.;.;.%.;.#.;.;.;.;.>.;.;.;.%.-.$.-.>.>.3.>.%.3.-.-.",
"-.=.-.-.#.;.2.>.>.$.%.#.#.#.$.>.;.;.;.;.$.;.;.;.;.;.>.>.;.-.;.;.;.-.#.-.;.#.#.$.-.;.;.;.;.;.;.;.;.-.$.;.;.$.;.;.%.-.$.-.",
"-.-.<.-.>.;.;.;.$.$.$.$.#.#.$.$.$.$.;.;.;.$.$.;.;.;.;.;.;.#.#.;.;.-.-.#.-.%.$.;.-.-.;.;.;.-.;.;.$.-.;.>.;.;.>.-.$.$.;.$.",
"-.-.>.-.;.;.#.-.$.>.1.>.>.#.#.$.-.>.;.>.>.$.>.>.;.;.2.<.>.%.>.>.#.-.-.#.;.>.>.>.-.-.%.;.1.;.>.;.;.;.>.1.$.>.>.%.;.-.;.;.",
"<.-.;.-.=.-.-.;.$.$.%.;.$.$.$.$.-.>.-.>.>.#.$.;.#.#.#.#.$.$.$.$.#.>.2.;.#.;.;.;.#.-.-.;.2.>.2.<.$.%.-.;.$.;.;.$.-.%.-.;.",
";.-.;.-.#.-.#.;.>.$.$.#.$.$.>.-.-.#.#.-.$.$.$.$.$.#.#.#.$.$.-.$.#.;.,.;.;.;.;.>.<.>.-.;.>.;.;.;.-.#.$.>.-.;.;.;.;.-.;.;.",
"1.<.>.,.-.-.,.,.2.;.$.$.1.-.-.$.$.$.>.>.#.$.$.#.#.#.$.#.#.-.>.#.;.;.-.#.-.;.;.>.>.;.%.-.;.;.;.$.#.#.-.2.;.1.;.$.3.>.>.>.",
"<.<.-.-.-.-.>.>.>.;.;.$.-.$.$.$.#.$.>.;.#.#.1.>.>.$.$.#.$.$.$.#.#.;.#.#.#.#.#.#.;.%.#.;.>.>.>.$.>.#.$.-.$.1.$.$.>.-.$.-.",
";.$.$.$.;.;.$.$.;.;.;.$.-.$.#.#.#.#.#.#.$.-.,.<.1.$.$.>.>.$.#.#.>.,.#.>.,.$.>.>.$.$.$.>.>.-.>.;.>.#.#.#.#.$.#.$.-.-.%.$.",
"-.$.$.%.-.;.$.$.>.;.>.>.$.-.>.$.$.$.$.;.-.$.$.$.$.$.$.>.;.#.#.#.$.3.#.$.$.#.$.>.$.$.>.$.#.#.#.$.#.#.#.#.#.$.$.$.$.$.$.$.",
"-.-.#.#.$.#.$.$.>.>.>.>.;.-.;.-.$.>.>.;.;.#.$.>.$.$.$.$.-.$.$.$.#.$.$.$.$.$.#.$.$.>.1.$.;.$.#.#.#.$.>.:.-.>.$.$.#.>.>.$.",
"-.-.>.:.$.$.$.$.;.;.;.;.$.-.-.-.$.;.>.>.>.$.$.1.%.$.#.$.$.-.$.$.$.#.$.#.$.$.$.$.$.$.$.$.;.>.$.$.%.>.3.1.,.1.-.#.#.1.>.#.",
"-.-.2.2.-.$.$.$.#.;.$.#.#.$.;.%.$.;.-.$.$.$.#.| o.=.;.-.-.-.;.$.$.#.$.#.;.$.>.>.>.$.$.$.;.3.;.>.;.;.>.%.-.$.#.$.$.$.#.#.",
";.-.-.=.#.#.>.>.$.>.$.>.>.$.2.>.>.$.;.;.%.;.[ < 5 k ;.;.2.-.:.-.#.$.1.$.1.;.1.>.>.>.;.-.$.;.;.1.>.%.-.;.1.$.#.$.>.$.#.#.",
";.-.-.=.#.#.>.>.#.1.$.>.$.$.2.>.>.;.;.3.>.;.f X # > u { | a ; '  .$.>.$.@.[ | -.$.$.-.-.-.;.;.;.;.;.;.;.>.$.$.$.>.-.$.#.",
"-.#.#.-.$.-.%.$.$.$.-.$.$.$.;.;.>.;.;.;.;.;.j   F J @ 3 4 Q G K 4 f { e 3 : q :.%.,.;.-.$.-.$.;.>.%.$.$.$.$.#.-.-.$.$.$.",
";.=.-.-.;.;.-.=.$.$.-.$.$.$.$.;.2.>.;.;.;.%.g X D ^ # H Q ~ ^ ^ G - @ A S # q -.$.>.$.$.$.$.$.$.$.$.#.$.-.;.$.;.$.;.$.$.",
"-.=.;.;.-.<.>.=.$.$.>.$.1.>.$.%.;.;.%.;.;.1.X.X @ 1 H ^ ^ ^ ^ ^ ^ ! ! G S H d ;.$.$.$.$.$.$.#.$.$.-.$.$.>.1.$.$.>.>.$.$.",
"-.-.4.-.#.>.;.;.1.>.$.$.$.$.$.>.;.;.;.;.;.,.o., A F ^ ^ ^ ^ ^ ^ ^ ^ ^ # Q I } #.$.-.$.1.$.$.$.>.1.1.$.$.;.1.$.$.;.>.$.$.",
";.=.-.-.#.$.$.;.>.%.%.$.$.$.;.3.,.2.;.;.1.;.+.9 n F ^ ! P H ~ ^ ^ ^ ^ G Z a -.-.>.:.$.1.$.;.$.$.-.-.-.-.$.$.$.$.-.%.;.$.",
"-.#.#.$.#.-.;.;.$.%.>.$.;.-.#.>.;.>.[ p s l ] - x F ^ U 5.6.( G W E T 7 =  .2.>.,.>.#.$.$.$.$.>.1.>.$.#.$.;.#.$.$.;.;.$.",
"<.$.$.#.#.$.$.1.>.1.$.$.,.;.$.#.#.' 1 F A Z K # A # J I 9.e.w.` C ( 0.w.y @.&.+.$.%.$.$.$.$.$.$.1.1.>.#.>.1.$.%.>.$.;.>.",
",.>.>.>.$.$.%.;.-.:.$.$.-.$.$.$.| < O 1 O O @ @ S Z G J ` q.7./ W ) w.8.* 5 5 6 s :.%.$.#.#.#.$.$.$.#.#.$.;.$.>.3.$.$.>.",
"-.=.$.$.$.-.-.#.#.$.#.>.-.$.-.-.a # . @ @ v v % O # V Q H I P ~ ^ Y _ z o #   D Z h $.$.#.1.$.1.>.$.$.>.#.$.$.-.>.$.$.;.",
"<.>.-.$.$.1.>.$.#.>.>.>.>.$.$.{ 2 O N b @ + h | 9 m N M R W ^ ^ ^ ^ C : + v + + O 2 | ;.$.>.;.;.;.#.$.>.#.#.$.$.%.-.;.-.",
"2.:.>.$.$.>.>.$.$.$.-.-.$.$.#.a @ : L 2 $ & +.;.| ; c N m V E E E B 5 X.i v # @   # d %.$.#.$.$.$.#.#.#.#.#.$.$.>.$.>.;.",
"-.#.$.$.$.$.#.#.$.$.$.$.;.$.@.0 0 g |  .g l ;.;.%. .t , v c c v < w | %.g $ @ m Z @ u &.$.$.;.;.$.$.$.$.#.$.,.$.-.-.>.;.",
"<.1.1.;.$.;.$.#.$.$.$.$.-.;.-.@.@.;.;.;.$.$.;.-.$.,.%.| ..j d g } #.$.$.| & 8 7 L   2 o.;.$.$.2.>.1.>.#.#.#.:.#.$.#.$.-.",
">.,.<.;.#.>.;.$.$.;.#.;.>.,.>.$.$.-.>.2.;.1.;.>.%.1.;.$.%.%.$.%.$.$.$.$.#.*.=.*.O.r : ..;.$.#.;.-.>.>.#.#.#.#.$.$.$.$.$.",
"-.-.=.;.#.$.$.#.1.>.#.#.$.;.-.;.-.%.>.1.;.2.;.$.$.$.$.$.$.%.;.$.$.-.>.$.-.-.$.#.;.&.g  .$.$.$.-.-.-.$.$.$.$.$.$.$.$.$.$.",
"-.=.-.-.;.$.$.#.-.$.#.#.#.>.,.3.>.;.;.;.;.;.$.$.$.>.>.$.>.-.>.>.$.>.>.$.$.$.-.>.$.$.;.$.%.;.$.;.-.$.$.#.#.#.>.-.>.$.$.$.",
";.=.=.-.>.>.#.#.$.$.#.;.=.-.>.>.;.;.;.-.%.$.-.#.$.>.1.>.1.$.>.1.$.$.$.$.-.-.,.>.$.$.-.;.;.#.#.;.$.#.#.$.$.$.1.>.1.-.1.#.",
":.#.$.$.-.$.#.$.-.-.>.-.$.-.-.$.$.-.1.>.1.:.1.>.#.;.;.-.$.-.;.;.#.#.#.$.-.#.-.$.#.#.>.1.2.$.$.$.>.%.-.$.$.$.#.$.-.;.>.$.",
";.$.1.$.$.#.#.>.2.-.,.>.$.1.>.-.$.-.-.-.%.%.;.;.%.$.;.$.$.%.$.$.$.$.#.$.-.-.$.$.#.#.$.>.1.-.$.;.1.>.1.1.>.$.#.$.#.>.;.$.",
";.-.-.#.$.$.#.-.>.$.$.$.$.-.-.$.$.$.$.-.%.;.%.$.-.$.$.#.$.$.;.;.$.-.-.-.-.$.-.-.$.$.$.$.$.#.$.$.>.$.$.>.;.$.$.$.#.>.>.#.",
">.$.-.$.$.$.$.#.$.#.$.$.$.$.$.$.$.$.$.-.$.$.-.-.>.>.>.>.>.;.;.;.1.-.$.#.#.-.,.;.,.;.;.1.-.#.$.$.$.;.;.>.$.$.$.#.$.$.#.#.",
";.=.;.=.$.$.-.$.#.#.$.#.-.-.$.-.#.#.$.>.>.#.$.$.>.1.>.>.>.$.$.-.1.-.-.#.#.$.;.%.>.;.%.1.;.$.$.$.$.$.$.;.$.$.$.$.$.$.#.#.",
"<.-.>.>.-.>.-.$.;.>.>.>.;.1.;.1.-.$.#.-.>.$.1.;.$.;.;.;.$.;.%.-.$.$.$.$.#.#.;.;.;.;.$.;.$.#.$.$.%.$.$.$.1.1.,.$.>.$.#.$.",
"4.>.;.,.;.;.;.;.,.2.>.1.-.>.$.-.$.#.#.#.$.$.>.-.;.$.>.1.$.$.-.-.;.;.>.-.;.-.%.>.>.$.$.$.%.#.:.1.1.>.$.%.:.>.>.$.>.$.#.#.",
"<.;.-.>.;.-.-.#.;.;.$.-.-.$.$.#.#.-.$.#.-.$.$.-.$.$.$.$.$.;.>.;.$.$.1.>.#.-.#.1.>.;.>.%.%.%.#.>.>.%.$.#.#.%.$.$.#.$.#.#.",
";.=.;.1.;.=.;.;.;.;.$.-.-.$.$.$.$.$.-.>.$.;.-.$.-.$.-.$.;.2.2.>.$.$.>.>.;.;.-.;.;.$.$.;.;.%.#.#.#.$.$.$.#.$.$.$.#.=.$.#.",
";.#.=.#.-.;.%.;.;.;.;.#.#.>.>.$.$.#.-.1.-.1.$.-.>.>.$.$.$.>.$.$.$.$.-.;.$.-.#.;.;.;.;.;.$.$.;.#.%.$.$.>.>.>.:.>.%.#.;.2.",
"-.=.=.#.$.;.;.>.>.>.-.$.#.$.;.$.#.#.#.-.$.;.$.$.;.-.$.$.#.#.#.#.$.;.;.;.-.;.;.;.%.%.>.%.$.;.2.>.$.$.#.>.>.:.%.>.$.;.;.>.",
";.=.;.;.;.;.;.>.>.;.-.%.#.$.$.>.-.-.$.$.;.$.>.$.$.#.$.>.#.>.>.>.>.$.;.>.;.,.;.,.1.>.,.$.$.-.1.>.;.1.$.;.%.>.$.$.#.;.%.-.",
";.;.2.,.>.#.;.#.#.$.-.=.#.;.1.1.,.>.$.-.>.>.;.$.;.#.#.>.#.-.>.;.;.%.;.<.>.>.>.;.:.$.%.$.-.-.$.-.-.>.$.%.%.>.>.#.;.;.#.=.",
"-.;.>.>.>.$.;.#.#.#.#.$.#.;.>.;.;.-.#.$.>.>.;.$.;.;.;.#.#.#.%.#.#.;.;.-.%.-.;.#.#.$.:.%.$.$.#.#.-.#.#.#.#.$.$.$.#.;.;.%.",
"-.-.#.#.%.%.;.#.#.#.#.-.#.#.#.%.$.#.#.$.#.%.$.$.$.#.#.=.;.;.;.;.#.#.;.%.#.%.#.=.#.>.1.,.$.$.=.-.:.%.$.$.$.$.%.;.;.;.-.;.",
"-.-.;.;.#.;.;.=.-.$.$.#.$.$.;.#.#.;.$.-.$.#.;.;.%.;.#.#.#.;.-.;.#.#.;.#.-.#.;.#.#.$.-.-.#.#.#.#.>.1.$.$.1.;.$.>.>.-.-.#.",
";.;.-.<.;.;.;.-.-.;.>.-.#.;.<.#.$.;.$.;.=.$.>.,.;.;.-.>.;.=.#.#.>.-.-.$.#.=.>.>.#.$.#.#.-.#.#.#.#.$.#.#.1.-.-.,.>.-.-.-.",
";.-.=.<.<.-.-.=.-.;.<.#.-.-.-.-.>.>.>.;.-.>.;.;.-.$.-.1.>.=.=.;.>.%.$.-.-.#.-.-.$.$.$.$.,.>.#.#.#.#.>.%.>.-.#.;.;.-.#.-.",
";.=.=.-.;.=.1.,.#.;.;.#.-.;.-.;.1.<.1.;.-.>.-.#.#.>.;.;.;.;.-.-.#.$.$.-.-.=.-.>.-.>.,.#.-.-.$.-.#.#.1.>.1.,.#.-.2.-.#.$.",
";.=.-.;.;.;.;.;.;.;.;.;.;.=.-.;.;.;.;.;.-.=.#.#.-.2.;.;.;.;.;.-.-.-.-.-.-.-.-.>.>.-.:.#.-.-.-.-.#.-.$.#.-.-.-.-.>.=.-.-."
};
