/* XPM */
static char *result[] = {
/* columns rows colors chars-per-pixel */
"60 60 125 2 ",
"   c #6D1C1F",
".  c #731C1E",
"X  c #7A1A1F",
"o  c #74231F",
"O  c #541E21",
"+  c #5E1E22",
"@  c #631C23",
"#  c #6B1D21",
"$  c #731D21",
"%  c #7B1E22",
"&  c #5B2123",
"*  c #532C23",
"=  c #582924",
"-  c #4C3426",
";  c #4C3C26",
":  c #5A3A24",
">  c #652323",
",  c #6E2523",
"<  c #6A2C21",
"1  c #762323",
"2  c #7A2224",
"3  c #722E25",
"4  c #792C24",
"5  c #693022",
"6  c #663C28",
"7  c #733B26",
"8  c #713D28",
"9  c #6B3437",
"0  c #4C4227",
"q  c #41442F",
"w  c #544426",
"e  c #5B4525",
"r  c #584829",
"t  c #4B5D2D",
"y  c #5C5127",
"u  c #5D5629",
"i  c #545E2A",
"p  c #4D5A3B",
"a  c #625027",
"s  c #655228",
"d  c #53602A",
"f  c #5C642A",
"g  c #5D6C29",
"h  c #5E752B",
"j  c #5C792B",
"k  c #626D2B",
"l  c #62732C",
"z  c #617D2D",
"x  c #8D171E",
"c  c #851A1E",
"v  c #96141A",
"b  c #9A141B",
"n  c #92191E",
"m  c #9D181F",
"M  c #A2141A",
"N  c #AE131A",
"B  c #A6191F",
"V  c #AE191F",
"C  c #B3151D",
"Z  c #BD141C",
"A  c #B2191F",
"S  c #841D22",
"D  c #8A1E22",
"F  c #941D22",
"G  c #9B1C22",
"H  c #A51B22",
"J  c #AB1C22",
"K  c #B21B22",
"L  c #BC1C23",
"P  c #842422",
"I  c #9C272C",
"U  c #98292E",
"Y  c #913126",
"T  c #973337",
"R  c #A32A2F",
"E  c #D4171F",
"W  c #D9171F",
"Q  c #C31B22",
"!  c #CC1921",
"~  c #D31920",
"^  c #DA1921",
"/  c #EA1C24",
"(  c #834043",
")  c #834648",
"_  c #8C4B4D",
"`  c #9B4347",
"'  c #904649",
"]  c #885658",
"[  c #886366",
"{  c #8A6769",
"}  c #967D7E",
"|  c #64832D",
" . c #69842F",
".. c #65892D",
"X. c #688C2E",
"o. c #65922B",
"O. c #6A942E",
"+. c #6D9B2E",
"@. c #6E9631",
"#. c #6E9A30",
"$. c #739234",
"%. c #739E31",
"&. c #6EA12D",
"*. c #72A52E",
"=. c #76AB2E",
"-. c #79AD2F",
";. c #75A531",
":. c #7AA634",
">. c #7BAF30",
",. c #7EA138",
"<. c #7DB032",
"1. c #83B334",
"2. c #88B537",
"3. c #8AB738",
"4. c #8DB83A",
"5. c #91BA3C",
"6. c #9A9191",
"7. c #A1A0A2",
"8. c #A7A8A8",
"9. c #ADB0B0",
"0. c #C5C5C5",
"q. c #C9CCCD",
"w. c #CED3D3",
"e. c #E0E6E5",
"r. c #EAEBEB",
/* pixels */
"-.-.-.-.<.-.-.<.<.>.=.<.>.>.-.<.<.<.=.>.-.>.-.-.-.=.=.-.-.<.-.=.-.=.>.=.=.<.1.-.=.-.-.<.<.=.<.<.=.=.=.=.=.-.-.<.>.>.>.<.",
"-.-.-.>.>.<.<.-.>.-.>.2.1.=.-.<.<.3.=.<.>.-.>.<.>.-.=.2.1.=.=.=.=.1.1.<.<.<.<.<.-.-.-.<.-.-.<.1.=.-.=.1.-.-.-.<.2.>.<.<.",
"-.-.<.4.3.<.-.-.>.>.<.<.=.>.2.<.<.>.<.-.=.=.>.2.>.<.-.2.<.-.=.=.=.<.1.<.<.-.>.=.3.<.3.<.-.1.<.-.<.<.-.2.<.-.-.<.1.=.>.<.",
">.=.-.1.<.-.-.<.1.>.>.<.<.<.1.=.-.<.2.<.3.=.-.>.<.<.<.<.<.<.-.-.>.=.<.>.-.-.<.-.2.1.2.<.-.2.<.-.<.2.-.-.-.=.-.=.=.>.>.>.",
"-.-.=.=.=.-.-.<.3.>.>.<.>.-.>.>.>.<.1.<.<.-.=.<.1.1.<.-.<.=.=.=.1.4.2.<.<.2.<.-.-.-.=.<.-.-.-.-.=.1.<.-.-.-.1.1.-.>.3.>.",
"=.-.>.-.=.-.-.-.<.<.=.3.<.>.<.>.<.>.<.<.<.1.-.-.4.3.3.1.2.<.=.=.<.2.3.<.-.<.<.-.-.<.<.-.<.-.<.-.-.=.=.1.1.=.<.<.>.=.<.>.",
"-.4.3.3.=.>.>.>.>.=.=.>.-.>.>.>.>.>.>.=.<.2.-.>.1.<.<.1.1.<.<.=.=.-.>.-.-.<.=.=.<.1.<.<.<.-.=.-.-.-.-.-.<.-.=.-.-.=.>.=.",
"-.3.1.>.-.-.>.-.>.>.>.>.-.>.>.>.>.>.=.>.<.<.>.>.<.<.-.<.-.<.<.2.=.>.<.<.<.1.-.=.-.4.1.2.1.<.1.1.-.<.-.-.>.-.<.<.-.>.-.>.",
"=.-.>.>.-.<.2.1.2.1.1.=.=.=.-.2.1.2.<.-.<.2.=.<.<.3.4.5.<.-.<.2.-.-.<.<.>.<.-.-.>.2.<.<.1.<.1.<.<.<.=.>.2.1.4.1.<.3.<.<.",
"=.=.-.>.=.1.2.1.<.-.-.=.=.=.=.1.<.<.<.<.<.<.<.<.<.<.1.1.-.>.<.<.<.>.-.-.-.-.-.-.>.<.<.<.<.<.<.<.<.-.<.-.<.-.<.<.-.<.=.<.",
"-.-.3.-.2.-.<.-.=.-.-.-.-.=.-.-.-.=.-.<.<.-.-.<.<.<.<.<.<.-.-.<.>.-.-.-.-.<.-.-.-.>.>.<.>.>.<.<.<.-.<.<.<.<.1.<.-.-.<.<.",
"-.1.1.-.<.-.<.<.-.1.2.2.<.=.=.=.-.2.<.2.1.-.1.1.<.<.4.2.<.<.<.1.-.>.>.-.<.1.1.2.-.>.>.<.3.<.1.<.<.<.2.3.<.<.1.-.-.>.<.<.",
"<.>.<.-.-.-.-.<.-.<.<.<.-.=.-.<.<.<.<.1.<.=.<.<.=.=.-.=.<.-.-.<.-.<.4.<.>.<.<.<.-.>.>.<.4.1.4.1.=.-.<.<.<.<.<.-.<.-.-.<.",
">.<.<.-.-.-.-.-.<.>.=.=.-.-.<.<.-.=.-.<.<.-.-.-.=.=.=.=.-.-.-.-.>.<.3.>.<.<.>.1.2.<.>.<.<.<.<.<.<.=.-.<.-.<.<.-.<.<.<.<.",
"2.2.1.3.-.<.3.3.4.<.-.=.3.<.-.>.<.-.2.<.=.-.-.=.=.=.=.=.=.<.<.=.<.>.-.=.-.>.>.1.2.<.>.>.<.<.<.-.=.=.-.3.<.3.-.<.4.<.1.2.",
"1.<.-.<.<.-.1.1.1.<.<.<.<.-.=.=.=.=.1.<.=.=.2.1.1.-.-.=.=.-.<.=.-.>.=.-.-.-.-.-.>.>.=.<.1.1.1.<.1.=.-.<.<.2.-.<.1.<.<.<.",
"-.=.=.=.<.<.-.<.<.<.<.-.-.-.=.=.=.=.=.=.-.>.4.3.2.=.-.3.<.-.=.=.-.3.=.1.1.=.1.1.=.-.-.1.<.<.1.<.<.=.=.-.=.-.=.=.>.>.>.<.",
"-.<.-.<.-.<.-.-.2.<.<.2.>.<.1.=.=.-.-.-.-.>.=.-.-.-.=.2.>.=.=.=.1.4.=.1.1.=.1.1.=.-.1.=.-.-.-.-.-.=.-.>.=.-.-.-.>.>.>.>.",
"-.<.-.=.=.=.-.-.2.<.1.1.<.>.<.-.<.2.2.<.>.=.-.1.-.-.-.-.-.>.-.-.=.-.-.-.=.=.=.-.-.1.2.=.<.-.=.-.-.-.<.<.<.<.>.-.=.<.<.>.",
"=.-.1.<.=.-.-.-.-.<.<.-.=.<.<.<.=.<.<.1.1.-.-.2.-.-.-.-.-.-.-.-.-.=.-.=.=.=.-.-.-.-.-.-.<.<.-.-.>.<.5.4.1.4.-.=.;.3.<.=.",
"=.<.4.3.-.-.-.-.-.-.-.-.=.>.<.=.-.<.<.=.-.<.*.g h #.<.<.>.>.1.-.=.=.-.-.<.<.2.<.1.<.-.-.1.4.-.2.<.<.<.<.<.-.=.>.<.=.-.=.",
"<.-.<.-.=.-.2.<.-.2.-.1.<.-.4.2.2.=.<.<.<.-...o S 6  .<.5.*.$.*.-.-.3.-.3.<.2.<.1.1.<.-.<.<.-.3.1.<.<.<.2.-.-.-.2.-.=.=.",
"<.-.-.=.=.-.2.<.-.2.-.2.<.-.3.2.1.<.<.5.<.<...  % S > f z 8 1 d  .%.<.=.@.j  .-.-.-.-.-.-.<.<.<.<.<.<.<.<.>.=.-.1.-.-.>.",
"=.-.-.=.-.-.<.-.-.-.-.-.-.=.>.<.<.<.<.<.<.<.|   G / S 1 P ~ Q J P t h e , # ; :.<.3.<.<.-.-.-.1.<.>.-.>.>.-.=.>.<.>.>.;.",
"=.=.-.<.<.<.>.=.-.>.-.-.>.-.<.<.4.<.-.<.<.<.... D J % Q ^ ^ ^ ^ Q 2 D m F D r =.-.2.>.>.>.=.>.>.<.-.=.-.>.<.>.<.<.>.>.>.",
"-.-.<.<.-.2.<.=.-.-.<.>.3.<.-.-.<.<.<.<.<.3.@.o % $ ! ^ ^ ^ ^ ^ ^ ~ ~ H G L k <.-.=.=.>.>.=.=.>.-.<.-.-.<.4.-.>.1.1.-.>.",
"=.<.5.>.=.1.1.<.4.1.=.-.<.-.-.1.<.<.<.<.<.2.;.: v B ^ ^ E W ^ ^ ^ ^ ^ D L Y o.=.>.>.>.1.>.=.=.1.2.2.-.-.<.1.=.=.<.<.-.>.",
"-.-.<.-.=.=.<.<.1.>.>.>.-.-.<.5.3.4.<.1.3.-.=.e b J ^ Q ( T L W ^ ^ ^ J , f <.<.1.>.>.1.>.>.>.>.>.>.>.<.>.>.-.-.>.>.>.>.",
"=.=.=.-.=.>.>.<.>.>.>.>.<.>.>.<.<.1.<.<.1.=.&.: . F ~ U 9.0.} T ~ L ` [ q *.5.>.3.>.-.>.>.-.>.>.2.1.>.=.<.<.-.>.>.<.<.>.",
"1.>.<.=.=.>.<.3.1.3.>.>.3.<.-.-.-.-.<.<.-.=.o.- G D J I 8.r.e.{ Z ] w.q.p =.<.-.>.>.-.-.>.=.-.>.4.2.>.=.<.3.=.>.<.>.<.2.",
"2.>.2.>.=.=.<.>.>.>.>.>.>.-.>.-.=.-.-.-.o.g 7 G D # J ! ) 6.} R ~ _ q.7.t >.-.-.-.4.>.-.=.=.=.>.>.-.-.=.=.<.>.<.3.-.>.1.",
"-.-.-.=.<.>.>.=.-.=.=.<.>.-.>.<.<.<.<.g 4 S c # O v M A ! K L W ^ L ' 9 w X.>.>.-.>.-.>.>.3.-.2.1.>.<.<.=.>.<.<.1.>.>.<.",
"1.-.<.-.-.3.2.-.=.1.1.1.1.-.-.1.3.<.,.4 H + @ n * c M b V E ^ ^ ^ W A & S 4 f +.=.1.-.<.-.1.-.1.<.=.>.1.=.=.-.-.<.<.-.<.",
"3.1.1.-.-.1.>.-.-.-.-.=.=.=.-.=.<.<...1 & % $ X f f . b M N Z Z C D = X # # G a *.1.-.-.-.-.-.-.>.=.=.=.=.=.-.-.1.-.3.<.",
"-.-.-.-.-.-.=.-.-.-.-.1.-.-.=.-.>.>. .1 $ c $ @ d -.| y < 1 o 5 e j y x . 1 D 3 +.-.-.-.-.=.<.<.<.=.>.-.=.1.1.-.<.>.2.>.",
"1.3.3.>.=.1.-.=.-.-.-.-.<.1.-.-.=.>.X.1 # C $ ; g 1.-.=.:.O.o.+.*.*.0 # 1   + 3 +.-.-.1.<.-.-.5.<.2.1.=.*.-.-.=.=.=.=.>.",
"1.3.3.<.=.1.>.-.-.-.=.1.1.4.1.-.-.<.%.3 # P k =.>.2.<.=.<.-.-.-.=.+.0 = n c # 8 >.-.1.3.-.-.-.1.>.1.<.=.=.=.=.-.=.>.=.<.",
"=.=.-.-.-.-.=.=.3.1.=.-.-.>.-.>.-.<.>.6 @ l >.-.-.>.-.=.=.<.-.<.-.<.=.l P x $ s >.-.<.-.-.-.-.-.>.>.>.-.=.-.>.-.>.>.=.>.",
"-.-.-.-.<.-.-.-.-.-.=.=.=.2.4.5.<.<.<.u : ;.-.-.=.<.1.<.1.<.<.1.-.1.1.-.l @ % l >.>.<.-.<.-.-.<.<.=.=.=.=.-.1.>.>.-.-.>.",
"-.-.-.-.2.-.-.=.-.-.-.-.-.>.1.1.<.<.<.O.@.<.<.-.=.2.2.2.3.=.2.3.=.=.-.<.*.e 3 O.=.>.-.<.<.-.-.-.-.=.-.=.>.-.3.1.3.<.3.>.",
"-.-.>.>.>.-.-.-.>.-.1.-.-.>.>.-.-.<.3.<.4.<.2.<.=.<.<.<.>.-.<.<.=.=.=.=.>.g i =.=.=.3.3.4.>.=.>.>.<.>.>.<.=.=.<.<.<.<.;.",
"-.-.3.=.-.=.=.1.4.>.4.1.-.3.1.-.-.>.<.-.<.-.>.<.<.-.<.=.=.>.>.-.-.=.=.=.>.=.=.=.=.=.>.1.2.-.-.<.3.2.2.3.1.=.=.=.>.1.<.>.",
">.-.>.=.>.-.=.>.1.-.-.-.-.>.>.-.-.-.-.-.<.<.<.<.-.=.>.=.=.<.<.<.>.>.>.>.-.>.<.<.-.-.>.=.-.=.=.>.<.>.>.1.<.=.<.=.-.1.<.>.",
">.>.-.-.-.=.-.-.=.=.-.-.-.-.-.-.>.=.-.>.-.-.-.-.1.2.1.1.<.<.<.<.3.>.>.=.=.>.3.<.3.>.<.2.-.=.-.-.>.<.<.<.-.-.=.=.=.>.>.;.",
">.=.>.-.-.-.>.-.=.-.-.-.>.-.-.>.=.=.>.1.<.=.=.=.1.3.2.1.1.>.-.>.2.>.>.=.=.-.<.<.1.<.<.2.<.-.-.-.>.>.>.>.>.>.-.=.-.-.=.-.",
"1.>.1.2.>.1.-.-.1.1.1.1.1.4.>.2.-.-.=.1.1.<.3.<.-.<.<.<.=.>.-.>.>.-.>.=.-.=.-.<.<.<.-.<.-.=.-.-.<.>.>.-.2.4.1.<.1.-.=.>.",
"5.1.>.3.<.1.<.>.3.3.3.1.>.1.>.>.-.=.=.=.<.-.2.-.<.=.1.1.>.>.>.>.<.<.<.<.<.-.<.1.<.<.<.-.-.=.1.3.3.<.-.>.>.1.<.>.<.-.=.-.",
"1.>.-.1.<.-.-.-.>.>.-.>.>.-.=.=.=.>.=.=.>.-.=.-.<.=.<.-.>.<.1.>.-.>.3.1.-.-.=.2.1.<.<.>.<.-.-.1.<.-.-.-.-.<.<.<.-.-.-.;.",
"-.-.>.4.<.>.>.>.>.>.>.>.>.>.>.=.>.>.>.1.>.>.>.>.>.>.>.=.<.4.3.1.=.=.1.1.<.-.<.<.<.>.>.>.<.<.=.=.=.<.=.=.=.>.=.>.-.-.-.>.",
"-.-.-.=.-.>.>.<.<.<.>.>.=.1.1.=.=.=.>.4.>.2.>.>.3.>.-.-.>.1.>.>.-.-.-.-.-.<.-.<.<.>.<.>.>.=.<.=.-.=.=.2.1.1.<.<.-.-.<.3.",
"=.-.=.=.>.>.<.3.2.<.>.>.-.>.>.=.=.=.=.>.>.<.=.>.<.>.=.=.=.=.=.>.<.<.<.<.>.<.<.<.<.<.1.-.=.<.4.<.-.=.-.2.2.<.1.<.>.>.<.1.",
"-.-.>.<.>.>.>.2.1.>.>.=.=.-.>.1.>.>.=.>.>.>.>.-.-.=.>.1.=.1.1.<.1.-.<.2.<.1.<.2.3.<.3.-.-.<.3.1.1.2.-.<.-.1.>.-.>.>.>.<.",
"=.<.4.3.1.-.>.=.=.-.>.>.-.<.4.4.3.<.>.-.1.2.>.-.>.-.>.2.-.>.<.<.<.-.<.3.1.3.<.<.1.=.-.>.>.>.=.>.<.1.-.<.-.2.>.-.>.>.>.>.",
"=.<.2.1.1.-.>.=.=.=.=.=.-.<.<.>.<.-.-.-.1.1.>.>.>.>.>.-.-.-.<.=.-.>.<.<.-.>.<.=.=.>.-.>.>.=.=.-.-.=.=.=.-.-.-.-.>.<.>.>.",
"=.<.=.-.<.-.-.-.=.=.-.-.-.=.=.>.-.-.-.-.-.-.>.=.>.-.=.-.>.<.<.>.=.-.-.>.-.-.-.-.=.1.4.2.=.>.>.>.<.-.-.-.-.-.<.<.<.<.>.<.",
"=.-.<.>.-.<.<.>.>.-.-.-.=.>.<.;.=.<.=.>.-.=.<.<.>.-.=.-.-.>.>.>.-.-.>.-.-.-.-.=.=.-.-.-.=.=.=.=.1.3.-.-.3.-.=.2.1.>.<.>.",
"-.<.-.2.<.<.<.-.>.<.1.-.-.<.1.-.=.-.-.<.>.>.1.3.<.<.-.1.<.;.>.-.<.-.-.-.-.-.1.<.=.-.=.=.>.;.=.=.-.-.=.-.4.>.>.3.1.>.>.>.",
"<.<.-.2.1.-.>.>.>.<.1.-.>.-.>.>.3.1.2.<.>.<.>.<.>.-.<.4.<.>.>.>.3.-.-.<.-.=.<.>.>.-.-.>.2.1.=.=.=.=.1.-.1.>.=.>.<.>.=.>.",
"<.-.=.-.>.-.2.1.>.>.<.-.>.<.>.<.2.1.2.<.>.1.-.=.=.1.<.<.<.<.>.>.-.-.=.<.<.-.-.1.>.1.1.=.>.>.>.>.=.=.3.1.4.1.=.>.3.<.-.>.",
"-.-.-.<.<.<.1.<.>.<.>.<.<.>.>.<.<.<.<.<.>.-.=.=.>.4.<.<.<.<.<.>.-.<.-.-.>.>.<.1.1.>.>.-.>.>.>.>.=.>.-.-.>.>.>.>.<.;.>.>."
};
