/* XPM */
static char *result[] = {
/* columns rows colors chars-per-pixel */
"60 60 128 2 ",
"   c #651C1F",
".  c #741B1F",
"X  c #7B1B1E",
"o  c #75221F",
"O  c #78201E",
"+  c #5B1E21",
"@  c #641D21",
"#  c #6A1E21",
"$  c #731D21",
"%  c #7B1D22",
"&  c #4D2C25",
"*  c #5D2322",
"=  c #5D3723",
"-  c #5F3C24",
";  c #652123",
":  c #6E2624",
">  c #622B23",
",  c #6C2B23",
"<  c #7A2323",
"1  c #732A24",
"2  c #633324",
"3  c #613924",
"4  c #6A3C25",
"5  c #723024",
"6  c #7A3124",
"7  c #40412D",
"8  c #424D2F",
"9  c #5C4226",
"0  c #574E26",
"q  c #594C27",
"w  c #544329",
"e  c #564C2A",
"r  c #4E5128",
"t  c #5F5428",
"y  c #5D5E28",
"u  c #4D5A3A",
"i  c #684727",
"p  c #614E27",
"a  c #6A4A28",
"s  c #66532A",
"d  c #645F29",
"f  c #5F6429",
"g  c #536A2B",
"h  c #5B6A29",
"j  c #56712B",
"k  c #5B722B",
"l  c #5F7B2C",
"z  c #62642A",
"x  c #62752B",
"c  c #617C2C",
"v  c #8B171C",
"b  c #811A1E",
"n  c #94151B",
"m  c #99161D",
"M  c #95181E",
"N  c #9C191F",
"B  c #A3141A",
"V  c #A7191E",
"C  c #B2141B",
"Z  c #BD161E",
"A  c #851E22",
"S  c #8A1C22",
"D  c #921C22",
"F  c #9D1C21",
"G  c #A31B21",
"H  c #AD1C22",
"J  c #B71B22",
"K  c #BA1B22",
"L  c #892523",
"P  c #972123",
"I  c #972A2F",
"U  c #9A282D",
"Y  c #8C3135",
"T  c #A3242A",
"R  c #A1292E",
"E  c #B22228",
"W  c #A1373B",
"Q  c #C3161D",
"!  c #CB171E",
"~  c #D1161E",
"^  c #DC171F",
"/  c #C31B22",
"(  c #CC1921",
")  c #D51921",
"_  c #DA1921",
"`  c #855457",
"'  c #8B5254",
"]  c #805759",
"[  c #8E5558",
"{  c #876768",
"}  c #906365",
"|  c #5F802B",
" . c #63832C",
".. c #68862F",
"X. c #658B2C",
"o. c #64932A",
"O. c #6A952E",
"+. c #6D9C2E",
"@. c #719F2F",
"#. c #6B9030",
"$. c #739734",
"%. c #749C32",
"&. c #789F33",
"*. c #6EA22D",
"=. c #72A42E",
"-. c #76AB2E",
";. c #79AD2F",
":. c #7AB02F",
">. c #75A630",
",. c #76A930",
"<. c #7BAE30",
"1. c #7DA139",
"2. c #7DB032",
"3. c #83B334",
"4. c #88B537",
"5. c #88B837",
"6. c #8BB738",
"7. c #8DB93A",
"8. c #91BA3C",
"9. c #A09596",
"0. c #A4A6A6",
"q. c #AAAAAB",
"w. c #B4AFAF",
"e. c #B1B4B3",
"r. c #C3C5C7",
"t. c #C6C9C9",
"y. c #D1D7D7",
"u. c #ECEDED",
/* pixels */
"<.;.;.;.<.<.<.<.2.<.-.2.<.<.2.2.2.2.-.;.;.2.;.;.;.-.;.;.;.<.<.-.-.;.;.;.-.<.2.<.;.;.;.2.<.-.<.2.-.-.-.-.-.;.;.2.<.<.<.2.",
";.;.;.<.<.2.2.<.<.<.;.4.3.;.-.2.2.5.<.<.;.;.<.2.2.;.;.5.3.-.-.-.-.3.4.;.<.<.3.;.;.;.;.<.-.-.3.3.,.<.-.4.;.;.;.;.4.<.2.2.",
"<.-.<.7.6.2.;.;.<.<.;.2.-.<.4.<.2.<.2.;.;.-.2.4.;.2.2.3.2.<.-.-.;.<.4.2.2.;.<.;.4.3.6.2.-.3.2.2.2.<.;.4.<.;.<.:.3.-.<.<.",
"<.-.<.3.<.;.;.<.3.<.<.<.<.2.3.;.;.2.4.2.4.-.-.<.2.<.2.<.<.<.<.<.;.;.<.<.<.<.<.<.4.3.4.2.<.4.2.-.<.4.;.;.;.;.;.;.-.<.<.<.",
";.;.-.-.-.<.;.<.7.<.<.3.<.;.<.<.<.2.4.2.2.-.-.2.3.2.2.2.2.<.-.-.4.6.4.<.<.4.3.<.;.<.-.2.2.-.-.<.-.3.2.;.;.-.3.3.-.<.6.<.",
"-.<.<.<.-.<.;.;.<.<.;.4.3.<.<.2.2.<.2.2.2.4.<.;.5.7.6.3.4.<.-.-.<.4.4.2.-.2.2.-.<.<.2.;.2.-.<.<.-.-.;.3.4.-.2.2.<.-.<.<.",
";.7.4.4.;.;.<.;.<.;.-.<.-.<.<.<.<.<.<.;.;.4.;.-.3.3.2.2.2.2.2.-.-.;.;.-.-.<.-.-.<.3.2.2.2.:.-.:.;.;.;.;.;.;.;.;.<.-.<.-.",
"<.4.3.<.;.;.<.<.2.<.;.<.;.<.<.<.;.<.-.;.2.2.;.2.2.2.<.<.2.2.2.4.-.;.3.3.<.4.-.-.;.7.3.4.4.;.3.3.<.<.<.;.<.;.3.;.-.<.<.<.",
"-.<.<.<.-.2.4.3.4.3.3.-.-.-.-.4.3.4.2.-.2.6.<.<.2.4.7.7.2.<.2.4.<.-.2.2.<.;.<.-.:.3.2.2.3.2.3.2.2.2.;.<.4.3.7.3.2.7.<.<.",
"-.-.-.<.<.2.4.2.2.<.<.-.-.-.-.3.2.2.2.2.2.2.2.2.2.2.3.3.2.<.<.2.<.<.<.<.<.;.-.<.<.2.2.<.2.2.2.2.<.;.;.2.2.;.<.2.<.<.<.<.",
"<.<.4.3.4.;.2.2.<.<.-.<.;.;.;.;.-.-.<.2.<.2.-.<.2.2.2.2.2.<.<.2.<.<.<.<.<.;.<.<.<.<.2.2.:.<.2.2.<.<.2.3.2.2.3.2.<.<.<.<.",
"<.<.3.-.2.<.<.<.<.<.4.4.<.-.-.;.<.4.2.4.3.-.3.4.2.2.7.4.3.<.2.3.-.<.<.<.2.3.3.4.<.<.2.2.5.2.3.2.2.<.4.4.;.2.4.;.<.<.2.2.",
"<.<.<.<.<.<.<.<.<.<.<.<.<.;.;.;.<.2.2.3.2.-.<.<.-.-.-.-.<.<.-.<.-.2.7.<.<.2.2.2.;.<.2.2.7.3.7.3.-.:.<.2.<.<.2.<.<.<.<.<.",
"<.<.<.<.<.-.-.<.<.<.-.-.;.<.3.<.2.-.-.<.<.-.<.<.-.-.-.-.<.-.<.-.<.2.4.<.2.<.2.2.3.2.<.2.2.2.2.2.2.-.;.3.<.2.2.<.2.<.2.<.",
"4.4.3.6.<.<.6.4.7.<.<.<.4.<.;.<.<.;.4.2.-.;.-.-.-.-.-.-.-.<.2.-.<.<.<.-.<.<.<.3.3.2.<.<.2.2.<.<.-.-.;.5.3.6.<.<.7.2.4.3.",
"3.3.<.<.<.<.3.3.3.<.2.<.3.-.-.-.-.-.4.<.-.-.4.4.4.-.<.-.-.<.<.-.<.<.-.-.<.<.<.:.2.:.,.2.3.3.4.<.3.-.;.2.;.4.;.;.4.<.<.<.",
"<.;.-.;.<.2.<.<.2.2.2.-.;.;.-.-.-.-.-.-.;.<.7.4.4.-.;.4.3.;.-.-.2.4.-.3.4.-.3.3.;.<.;.<.2.2.3.<.3.-.-.-.-.;.-.;.<.<.<.<.",
"<.<.;.;.<.<.<.<.4.2.2.4.<.<.4.-.;.;.;.<.;.;.;.;.;.;.;.3.;.-.-.-.2.7.;.<.<.-.<.3.;.<.<.<.-.-.-.<.-.-.-.<.-.;.;.;.;.;.<.<.",
"<.-.-.-.-.-.-.;.5.2.3.3.<.<.2.<.<.4.4.<.<.;.;.3.;.;.;.;.<.;.;.;.-.;.;.;.;.-.-.;.;.3.7.;.2.<.-.-.-.<.3.2.<.2.<.-.-.3.2.;.",
"-.<.3.3.;.-.;.<.2.2.2.2.;.<.<.<.;.<.3.3.3.;.;.5.:.;.;.;.;.;.;.;.;.-.-.-.;.;.;.<.;.;.<.<.2.3.<.-.<.<.8.5.4.7.;.-.-.4.3.-.",
"-.<.7.7.<.;.;.<.-.;.;.-.-.<.2.<.;.<.2.<.-.<.-.l X.,.2.<.3.<.<.<.<.-.-.;.<.<.3.3.3.<.;.;.2.7.:.3.3.2.3.<.<.;.-.;.<.-.-.-.",
"<.<.<.;.-.-.4.<.-.4.<.3.2.2.5.4.4.;.<.2.<.2. .: < s $.<.6.-.&.<.-.;.4.2.7.2.6.2.3.3.2.2.;.3.2.4.3.<.<.2.6.-.-.<.4.-.-.-.",
"<.<.<.-.-.-.4.3.-.4.;.4.<.-.6.4.3.2.2.8.2.2.c . < % 2 l X.a , j O.>.3.-.+. .O.<.;.;.;.<.;.2.2.2.2.2.2.<.2.<.-.;.4.;.-.-.",
";.;.-.;.-.:.;.<.-.<.<.-.<.-.<.2.2.2.2.2.2.2.c . T _ % : 1 ( K P < g | 0 , # w 1.;.6.2.<.;.<.2.2.2.2.;.<.<.<.-.;.<.<.<.;.",
";.-.-.<.2.<.<.<.;.;.<.;.<.;.;.2.7.3.:.:.2.:.| X D / % K ( _ _ _ K : % D D % e <.-.4.3.;.;.;.;.;.<.;.-.-.<.2.-.2.;.2.:.;.",
";.;.3.<.<.4.2.-.;.2.2.<.4.2.<.<.2.2.2.2.2.4.O.O $ $ / _ _ _ _ _ _ ) ( H F K k <.-.-.-.;.;.;.-.-.;.2.-.<.3.7.-.2.3.3.;.-.",
"-.3.7.<.-.3.3.<.4.3.;.;.2.<.;.3.2.2.2.2.2.4.*.2 n V _ _ _ _ _ _ _ _ _ A / I o.<.;.<.;.4.<.;.;.4.4.6.;.;.2.4.-.-.2.3.<.-.",
"<.-.<.<.-.-.<.2.3.2.;.;.<.;.<.8.4.7.2.3.7.;.=.9 n G _ ( Y T ! _ _ _ _ H $ z <.<.4.<.;.4.<.<.;.<.<.<.<.<.-.2.-.2.<.<.<.;.",
"-.-.-.;.-.<.<.2.;.<.<.<.2.<.2.2.2.3.2.2.3.:.*.= X F ^ U 0.w.} R ) K W ` 7 @.7.2.4.3.;.;.;.;.<.<.4.3.<.-.2.2.-.2.<.2.2.;.",
"3.<.<.-.-.<.<.6.4.4.;.;.6.2.:.-.-.;.<.O.c x y * D A J U e.u.u.{ Q ' t.r.u ;.2.:.;.;.;.;.<.-.;.<.7.4.3.-.2.5.-.<.2.<.2.4.",
"4.3.4.<.-.<.<.<.<.3.<.<.<.-.-.-.<.-.h L A A D v S $ H / ] q.9.I ( ' y.e.8 +.=.-.;.4.<.;.-.-.-.;.<.-.-.-.-.2.<.2.7.;.;.3.",
"<.-.-.<.<.<.<.-.-.-.-.2.2.;.<.2.3.#., S $ + $ + + v V K / T H ~ _ E [ 4 ; 6 i f @.3.;.;.-.7.-.4.3.<.<.2.-.<.<.2.3.<.<.<.",
"3.<.<.-.;.6.4.;.-.3.3.3.3.;.;.3.5.x % + % # n p q n B M Z ) _ _ _ _ Z * @ $ % G p <.<.2.;.3.;.3.2.;.<.4.-.-.;.;.;.<.<.2.",
"4.3.3.-.;.3.2.;.-.;.;.<.;.;.-.-.,.s $ v % % *  .%.0 b B B C Q Q Q N 9 - m # % # 1 $.:.;.;.;.;.;.;.-.-.-.-.=.;.;.2.2.4.2.",
";.-.;.<.<.<.-.;.;.<.;.;.;.;.-.;.>.4 @ F m + & O.<.-.k - o X b o 2 g *.z $ % #   %  .:.;.;.;.:.2.2.;.<.;.-.;.3.;.<.<.4.;.",
"4.4.4.3.;.<.;.-.-.<.;.;.2.3.;.:.+.1 @ 5 d l l >.<.4.:.=.$...| X.*.-.2.g + $ n   $ x :.2.;.;.;.8.2.4.3.-.-.-.3.-.;.-.;.;.",
"<.7.4.<.-.4.<.;.;.<.-.3.3.6.3.;.+.* t 1.2.5.3.2.<.4.<.-.2.2.-.-.-.;.:.c r 3 F A $ x 2.4.:.<.-.3.<.4.<.-.-.-.-.;.-.;.;.<.",
"-.-.<.<.-.-.-.-.4.3.-.-.;.2.:.2.>.k &.5.2.7.2.;.<.<.<.-.-.;.<.<.;.:.3.;.;.=.z > % c 2.2.;.<.;.;.2.;.;.;.;.;.;.;.;.<.;.<.",
"<.-.<.<.<.;.;.;.<.;.-.-.-.4.4.8.2.2.2.2.2.2.;.;.-.3.3.<.3.2.2.4.;.3.3.;.;.<.2.k ; c 2.;.2.<.;.2.;.;.-.;.-.-.3.<.2.;.<.<.",
"<.;.-.<.4.<.-.-.;.;.-.:.-.;.3.4.2.2.2.;.2.2.<.-.-.3.4.4.5.;.4.6.;.-.;.;.<.;.6.<.j +.<.2.2.-.;.;.;.;.-.;.;.;.7.3.4.2.4.-.",
";.;.<.;.<.;.-.-.<.2.3.<.;.2.<.;.;.2.4.2.6.2.4.3.-.2.2.2.;.;.2.2.-.-.-.;.2.-.<.<.-.-.4.4.7.;.;.<.<.2.<.;.2.-.-.<.<.2.3.-.",
"<.;.4.;.;.-.-.4.6.<.7.2.;.4.3.<.;.<.<.2.3.;.2.2.2.-.2.-.-.2.;.;.;.-.-.-.<.<.-.-.-.-.<.3.4.<.;.2.4.4.4.4.3.;.-.;.<.3.<.<.",
"<.;.<.-.-.;.-.<.3.;.<.;.-.<.<.;.;.;.;.;.;.2.<.;.2.-.;.-.:.;.2.2.;.<.2.;.;.;.<.<.;.<.<.;.;.-.-.;.3.;.<.4.2.;.;.-.-.4.3.-.",
"<.<.<.;.;.;.<.-.-.-.;.;.<.<.-.<.;.;.;.;.;.;.;.2.3.4.4.2.3.2.2.2.4.2.<.-.-.<.6.2.5.<.2.4.:.-.;.;.;.<.2.2.;.;.;.-.-.-.-.-.",
"<.-.<.;.-.;.<.;.-.-.;.;.<.<.<.<.-.-.;.3.2.-.;.;.2.5.4.3.3.;.;.<.4.<.<.-.-.-.2.2.3.2.2.4.2.;.;.;.;.<.<.<.<.<.-.-.-.-.-.-.",
"4.<.2.4.2.3.<.;.3.3.3.2.2.6.<.4.;.;.-.3.4.<.4.<.;.2.2.2.-.2.:.<.<.<.;.;.-.<.:.2.2.2.;.2.;.-.;.;.<.<.<.<.4.7.4.<.4.-.-.<.",
"7.4.2.4.2.2.2.<.4.5.4.4.<.3.<.<.;.;.-.-.;.<.4.;.2.;.3.4.;.<.2.<.2.2.3.:.2.-.-.3.3.-.<.:.;.-.3.4.6.<.;.<.3.3.<.<.3.-.-.-.",
"2.<.<.3.2.<.<.-.2.2.<.<.<.;.-.-.-.;.-.-.<.;.;.<.;.-.<.-.;.<.3.<.;.2.4.3.-.<.:.4.4.2.2.<.2.<.;.3.3.<.-.-.-.<.<.<.-.<.-.-.",
"<.<.<.7.<.<.<.<.<.<.<.<.<.<.;.;.;.;.<.3.;.<.<.;.<.;.<.-.2.7.7.4.-.-.2.3.2.<.<.2.2.2.<.<.2.2.-.-.-.-.-.-.-.-.<.;.-.<.-.<.",
"<.;.<.-.<.<.<.<.2.2.<.-.-.3.3.;.;.-.;.7.<.7.;.<.6.<.;.;.<.3.;.;.;.;.<.2.:.<.:.2.2.<.2.<.<.-.<.<.<.<.-.4.3.3.2.2.-.,.2.5.",
"-.-.-.-.<.<.2.6.4.2.<.<.;.;.<.-.-.-.;.<.;.2.;.;.3.;.-.-.-.-.-.-.2.2.2.:.:.2.2.2.2.<.3.;.-.2.5.3.-.<.-.4.4.<.3.<.<.<.2.3.",
";.;.<.2.<.<.<.4.4.<.<.-.-.<.<.3.;.<.;.;.<.2.2.;.-.-.-.3.-.3.3.3.3.;.2.4.2.4.2.3.4.3.4.;.<.2.6.3.2.4.<.2.<.3.<.<.<.2.<.<.",
"-.2.7.5.4.;.<.-.-.<.<.<.-.2.7.5.5.2.;.-.3.3.<.-.:.<.-.4.<.<.3.2.2.<.2.5.3.4.2.2.<.<.<.<.<.<.;.<.<.2.<.2.<.4.<.-.<.<.<.2.",
"-.2.4.3.3.-.<.-.-.-.-.-.-.<.3.2.2.:.;.2.3.4.2.<.<.2.<.<.-.<.:.,.>.2.2.:.,.2.<.<.-.-.<.<.;.-.-.;.<.-.-.-.-.-.<.<.:.2.,.2.",
"<.2.-.-.<.<.2.-.-.-.-.-.<.-.-.:.<.;.-.-.-.;.;.-.<.-.-.-.<.2.:.<.-.:.:.<.-.<.<.,.-.4.7.4.;.-.;.;.2.<.-.;.;.;.<.2.2.2.<.2.",
"-.<.2.2.-.2.2.<.<.;.<.<.-.<.2.,.-.<.-.2.<.;.2.2.<.<.-.-.<.<.<.<.-.-.:.-.<.:.:.,.-.<.-.<.;.-.;.-.4.4.;.<.4.<.-.4.2.<.<.<.",
"<.2.<.3.2.2.2.2.:.2.3.<.:.2.3.,.;.-.;.2.<.-.3.4.2.2.<.2.2.<.<.<.2.<.<.-.-.-.3.3.-.;.-.-.<.,.-.-.-.-.-.;.6.<.<.6.3.<.<.<.",
"2.<.2.3.3.<.<.,.<.2.3.<.<.<.:.<.4.4.4.2.2.2.2.2.<.<.2.6.2.<.,.<.4.<.-.2.<.-.<.<.,.<.<.;.6.3.-.-.-.-.3.;.3.<.-.2.2.<.-.<.",
"<.<.-.<.2.,.6.2.:.2.<.<.,.2.,.2.4.4.4.2.<.3.<.-.<.4.2.2.2.2.<.<.,.<.-.2.<.<.<.3.<.3.4.-.<.<.<.<.=.-.7.3.6.4.-.<.4.<.-.-.",
"<.<.<.:.<.2.3.2.2.2.,.2.2.<.2.2.2.<.2.<.<.<.,.>.<.6.2.2.2.2.,.<.<.<.<.<.<.<.<.3.3.<.<.-.,.<.<.<.;.<.<.-.2.2.<.<.2.<.<.2."
};
