/* XPM */
static char *result[] = {
/* columns rows colors chars-per-pixel */
"60 60 137 2 ",
"   c #671B1F",
".  c #6A1C1F",
"X  c #7F171D",
"o  c #731B1F",
"O  c #7B1B1E",
"+  c #75221F",
"@  c #78201E",
"#  c #561F22",
"$  c #5F1E23",
"%  c #621E22",
"&  c #6C1C21",
"*  c #731D21",
"=  c #7B1D22",
"-  c #492F24",
";  c #5E2A24",
":  c #4D3727",
">  c #4A322C",
",  c #573225",
"<  c #5A3623",
"1  c #543D26",
"2  c #5E3D23",
"3  c #6E2324",
"4  c #6A2B23",
"5  c #752122",
"6  c #7A2423",
"7  c #732D23",
"8  c #7C2823",
"9  c #633324",
"0  c #6E3625",
"q  c #6D3C26",
"w  c #763224",
"e  c #7D3023",
"r  c #723825",
"t  c #783A26",
"y  c #40412D",
"u  c #594125",
"i  c #574E26",
"p  c #5B4D27",
"a  c #564C2A",
"s  c #565528",
"d  c #4A583A",
"f  c #624426",
"g  c #6A4A28",
"h  c #66552B",
"j  c #56632A",
"k  c #526A2B",
"l  c #58692A",
"z  c #56712B",
"x  c #5E732B",
"c  c #62642A",
"v  c #65742D",
"b  c #617C2C",
"n  c #693E40",
"m  c #85171C",
"M  c #811A1E",
"N  c #8A191E",
"B  c #94141A",
"V  c #95181E",
"C  c #9B191F",
"Z  c #A3141B",
"A  c #AE141D",
"S  c #A7191E",
"D  c #B2141B",
"F  c #BF161D",
"G  c #B9181F",
"H  c #841E22",
"J  c #8A1D20",
"K  c #931D22",
"L  c #9B1C21",
"P  c #A31C21",
"I  c #AE1C22",
"U  c #B71B22",
"Y  c #BA1B22",
"T  c #842823",
"R  c #972123",
"E  c #972A2F",
"W  c #9B282D",
"Q  c #8C3135",
"!  c #9C3236",
"~  c #A3242A",
"^  c #A1292E",
"/  c #B22228",
"(  c #A1373B",
")  c #C3161D",
"_  c #CB171E",
"`  c #D1161E",
"'  c #DC171F",
"]  c #C31B22",
"[  c #CC1921",
"{  c #D51921",
"}  c #DA1921",
"|  c #855457",
" . c #8B5254",
".. c #805759",
"X. c #8E5558",
"o. c #876768",
"O. c #906365",
"+. c #5F802B",
"@. c #62832C",
"#. c #68862F",
"$. c #658A2D",
"%. c #64952B",
"&. c #6A942E",
"*. c #6E9E2E",
"=. c #719F2F",
"-. c #688B31",
";. c #748634",
":. c #6C9330",
">. c #6E9D30",
",. c #739734",
"<. c #789E34",
"1. c #6FA12E",
"2. c #72A42F",
"3. c #76AB2E",
"4. c #79AD2F",
"5. c #7AB02F",
"6. c #75A631",
"7. c #7AA334",
"8. c #76A930",
"9. c #7BAE30",
"0. c #7DB032",
"q. c #83B334",
"w. c #88B537",
"e. c #85B038",
"r. c #8AB738",
"t. c #8DB93A",
"y. c #91BA3C",
"u. c #A09596",
"i. c #A4A6A6",
"p. c #AAABAB",
"a. c #B4AFAF",
"s. c #B1B4B3",
"d. c #C3C5C7",
"f. c #C6C9C9",
"g. c #D1D7D7",
"h. c #DEE3E3",
"j. c #ECEDED",
/* pixels */
"9.4.4.4.9.4.9.9.9.9.3.0.9.4.9.0.0.0.3.3.4.9.9.4.4.3.3.4.4.9.0.3.4.3.4.4.4.4.q.4.3.4.5.0.0.3.0.0.3.3.3.3.3.4.4.5.0.4.0.0.",
"4.4.4.9.9.0.0.9.0.4.9.w.q.4.3.0.0.r.0.0.9.4.4.0.0.4.4.r.q.3.3.3.3.q.e.5.5.0.q.4.4.4.4.9.3.3.q.q.4.3.3.e.4.4.4.5.w.0.0.0.",
"9.3.9.t.r.0.4.4.9.9.4.0.4.9.w.0.0.0.5.3.4.3.0.w.4.0.0.q.0.9.3.3.4.0.w.0.0.4.9.4.w.q.r.0.3.q.0.0.9.9.4.w.9.4.9.0.q.3.9.0.",
"9.3.9.q.9.4.4.0.q.9.9.0.9.9.q.4.3.0.r.0.w.3.3.4.0.0.0.9.0.9.9.3.4.4.4.5.4.4.0.4.w.q.w.0.4.w.0.5.9.r.4.9.4.4.4.4.3.3.9.9.",
"4.4.3.3.3.9.4.9.t.4.9.q.9.4.9.9.9.0.q.0.0.4.3.0.0.q.0.0.0.9.3.3.e.t.w.0.9.w.q.3.4.9.8.5.0.3.5.8.3.q.9.4.4.4.q.q.4.9.r.9.",
"3.9.9.9.3.9.4.4.9.0.4.w.q.9.9.9.0.0.0.0.0.w.4.4.t.r.r.q.w.9.3.3.9.w.w.0.3.0.0.5.9.9.5.0.5.0.3.0.3.3.4.q.q.4.q.5.9.3.0.9.",
"4.t.w.w.4.4.9.9.4.4.4.9.3.4.9.0.4.9.9.4.0.q.4.9.q.q.0.0.0.0.0.3.3.3.4.3.4.9.3.3.0.q.0.4.0.0.3.3.4.4.4.4.4.4.3.3.9.3.9.3.",
"9.w.q.9.4.4.9.4.0.9.4.9.4.9.4.9.9.9.3.4.0.9.0.9.0.0.4.0.0.0.0.w.3.4.q.q.9.w.3.3.3.t.q.r.w.3.q.q.4.9.4.4.q.4.q.4.3.9.4.3.",
"3.9.9.9.9.0.e.q.w.q.0.4.3.3.3.w.q.w.0.3.0.w.4.0.0.w.t.t.0.5.0.w.3.4.0.q.4.5.5.3.5.q.0.0.q.0.q.0.0.0.4.4.w.q.t.q.9.y.9.9.",
"3.3.3.9.3.0.w.q.0.5.9.3.3.3.3.q.0.0.0.0.0.0.0.0.0.0.q.q.0.5.0.0.0.9.9.3.0.4.3.0.5.0.0.0.0.0.0.0.0.4.4.0.0.9.9.0.9.9.9.9.",
"9.9.w.q.w.4.0.0.4.4.4.4.3.3.9.4.3.4.4.0.0.0.4.0.0.0.q.0.0.8.8.0.0.3.9.3.4.3.9.8.5.5.0.0.5.5.0.0.0.4.0.q.0.0.q.0.9.9.9.9.",
"9.9.q.3.0.0.4.9.4.q.w.e.q.3.3.4.9.w.0.w.q.3.q.q.5.0.t.q.q.5.q.q.3.0.0.4.0.w.q.w.5.9.5.0.r.0.q.0.0.0.w.w.9.0.q.4.9.9.0.0.",
"9.9.0.9.3.9.4.0.5.9.0.9.4.4.4.9.4.q.0.0.0.3.0.0.3.3.4.3.0.3.0.3.3.q.t.4.9.0.0.0.9.5.0.0.y.q.t.q.3.5.0.0.4.0.4.0.9.9.4.0.",
"9.9.0.4.4.4.3.0.0.4.3.3.4.4.0.9.0.3.3.0.5.4.4.4.3.3.3.3.8.5.5.3.5.0.w.0.0.0.0.0.e.0.9.0.0.0.0.0.4.3.4.0.0.0.q.4.0.9.0.0.",
"w.e.q.w.9.9.r.w.t.0.9.4.w.4.4.9.9.4.w.0.3.4.4.3.3.3.3.3.3.9.q.3.0.5.9.3.9.8.0.q.w.0.9.9.0.0.0.3.3.3.4.t.0.t.4.9.t.0.w.q.",
"q.q.0.0.9.9.q.q.q.0.0.5.q.4.4.3.3.3.w.9.3.3.w.e.q.4.4.4.3.4.9.3.8.0.3.3.4.5.5.8.0.8.8.0.q.q.q.0.w.3.3.0.4.w.4.9.e.0.4.0.",
"4.3.3.4.9.0.0.9.5.0.0.4.4.4.3.3.3.3.3.3.4.9.r.w.w.3.4.w.q.3.3.3.q.e.3.q.w.4.q.e.4.4.4.q.q.0.q.0.q.3.3.3.3.3.3.4.9.9.9.9.",
"9.0.4.4.9.0.4.9.w.0.q.q.0.5.e.3.4.4.4.4.9.9.4.4.9.4.4.q.0.3.3.3.9.t.4.5.4.3.4.q.4.5.0.4.4.3.3.3.3.3.3.3.3.4.4.4.4.4.9.9.",
"9.3.3.3.3.3.3.4.w.0.q.w.0.5.0.9.5.e.w.0.0.3.9.q.4.4.4.4.9.4.4.4.3.4.4.4.4.3.4.4.4.q.w.4.0.4.3.3.3.9.q.0.9.q.9.3.3.q.0.4.",
"3.0.q.q.4.3.4.4.5.0.0.0.4.4.9.9.4.9.q.q.q.3.4.w.5.3.3.4.4.9.3.4.4.3.4.4.4.4.4.4.4.4.4.4.0.q.4.4.0.0.y.r.w.r.4.4.3.w.q.3.",
"3.0.t.t.9.4.4.9.3.9.3.3.3.9.0.0.4.0.0.3.4.5.2.+.$.8.0.9.0.9.9.9.4.3.4.4.0.5.e.0.q.0.4.4.0.y.0.q.0.0.0.0.9.4.3.4.9.3.4.3.",
"9.8.0.4.3.3.w.4.3.w.9.q.0.9.t.q.w.4.0.0.4.0.$.+ 8 h ,.9.t.9.<.9.4.4.w.4.t.0.w.q.q.q.0.9.9.0.0.w.w.9.9.0.w.4.4.4.e.4.3.3.",
"0.4.4.3.3.3.w.q.3.w.4.w.9.4.r.w.q.0.0.y.q.0.x o = = 9 b $.g 4 z &.2.q.3.*.@.-.9.4.4.5.4.9.0.0.0.0.0.0.0.q.3.4.4.w.4.3.3.",
"4.4.4.4.3.0.4.4.9.3.0.3.4.3.9.0.0.0.0.0.0.0.@.o ~ } = 3 7 [ U R 8 k +.i 4 . 1 9.5.w.q.4.4.9.4.0.0.0.0.3.9.4.3.4.5.4.4.4.",
"4.3.3.9.0.0.3.8.4.4.9.4.9.4.9.0.t.0.0.0.0.0.+.O J ] = Y [ } } } Y 4 = K K = a 9.4.e.q.4.4.4.4.4.3.0.3.4.0.0.3.0.9.9.5.4.",
"4.4.q.9.9.w.q.5.9.4.0.9.w.q.9.4.0.0.5.0.0.r.&.@ * * ] } } } } } } { ` I K Y v 5.4.3.3.4.4.4.3.3.3.0.5.8.q.r.5.0.0.w.4.4.",
"3.0.y.9.3.q.0.0.r.q.4.4.0.4.4.q.0.0.0.0.0.w.1.9 B P } } } } } } } } } H ] E %.4.4.4.4.w.0.4.4.q.w.w.3.3.0.r.3.3.0.q.4.3.",
"4.4.9.9.4.4.3.0.0.q.4.4.4.4.0.y.w.y.0.q.r.5.2.u B I } [ Q ~ _ } } } } I 5 c 5.4.w.5.4.w.9.4.4.4.0.9.0.9.5.0.3.3.5.5.0.4.",
"4.3.4.4.3.9.0.0.4.9.9.9.0.9.0.0.0.q.5.:.,.*.%.< M L } W i.a.O.^ { Y ( | y =.y.9.w.q.4.4.4.4.4.q.w.q.0.3.5.0.3.9.9.0.0.5.",
"q.4.9.3.3.4.9.r.q.w.4.9.w.0.5.3.3.8.l T 8 w w 5 K H Y E s.j.h.o.)  .f.d.d 2.6.2.4.4.4.4.4.4.4.9.t.w.0.3.0.w.3.0.0.0.0.e.",
"w.9.w.9.3.4.9.9.4.q.9.4.9.4.3.3.3.x = K & & O = H O A ] ..p.u.! `  .g.p.> q q r c e.0.4.4.3.3.4.9.4.3.3.3.0.8.q.t.4.4.q.",
"9.4.4.4.4.0.9.3.3.4.4.0.0.4.0.0.7.q & $ = . N - % m S Y ] ~ I { } / X.n # O & P 6 v 5.4.3.r.4.w.q.4.0.0.3.3.0.0.q.4.9.9.",
"q.q.4.3.4.t.w.4.3.q.q.q.q.4.4.q.;.* o N = * w $.i B Z V G ' } } } } G ; * X & 3 & 0 1.0.3.q.5.0.0.4.9.e.3.3.4.4.4.9.0.9.",
"w.q.q.3.4.q.0.4.3.4.4.9.4.4.3.3.h * O A & % k 5.*.p M Z Z D F ) ) C f -.t M = .   5 b 5.0.3.3.0.4.3.3.3.3.3.4.4.0.0.w.0.",
"9.3.3.4.9.4.4.3.4.4.4.4.4.4.3.*.w % 0 g s : $.0.5.3.l 2 + O M + 9 l 1.5.l ; & Z O * h 3.9.3.0.0.0.4.9.4.3.4.q.3.0.4.e.4.",
"e.w.w.q.4.4.4.3.4.4.4.4.0.q.5.&., j >.5.9.6.8.0.9.w.5.1.,.#.+.$.1.3.5.5.@.: 1 e J & q 8.0.4.4.t.0.w.q.3.3.3.q.3.4.4.4.5.",
"q.w.w.0.3.q.9.4.4.5.3.q.q.w.q.3.%.8.r.t.0.w.0.0.9.w.0.3.0.5.5.3.3.5.4.4.2.7.9.<.b 1 4 <.5.4.3.0.4.w.0.3.3.3.4.4.3.4.4.9.",
"4.4.4.0.3.4.4.4.w.q.3.3.4.0.9.9.0.5.q.r.q.y.0.4.9.9.3.3.3.9.9.9.3.5.q.5.5.0.4.4.e.&.k 6.4.9.4.9.0.4.4.4.4.4.4.4.4.4.4.9.",
"4.4.4.4.0.4.3.3.9.4.3.3.3.e.w.y.q.0.0.0.0.0.4.4.3.q.q.0.q.0.0.q.4.q.q.4.4.4.0.5.4.4.0.3.9.0.4.0.4.4.3.4.3.3.q.4.q.4.4.4.",
"4.4.4.4.w.0.3.3.4.4.3.5.4.0.q.q.0.0.0.8.9.5.9.4.4.q.w.w.r.4.w.r.4.3.4.5.0.4.w.w.4.4.9.0.0.3.4.9.4.3.4.4.4.4.t.q.w.0.w.4.",
"4.4.0.4.0.4.3.3.9.0.q.9.4.0.9.4.4.0.w.0.t.0.w.q.3.9.0.0.9.9.0.0.3.3.3.4.0.3.9.4.4.3.w.w.t.4.4.4.0.0.4.4.0.3.3.9.0.0.q.3.",
"4.4.w.3.3.3.3.w.t.4.r.q.4.w.q.9.4.9.0.4.0.4.9.9.0.9.9.4.3.4.5.4.4.3.3.4.9.9.4.3.3.4.9.q.w.9.4.0.w.w.w.w.q.4.3.4.3.q.0.3.",
"0.4.9.3.3.9.3.0.q.3.4.4.4.9.9.4.4.4.4.4.0.0.9.0.5.4.4.3.4.5.0.0.4.9.0.4.4.4.9.9.4.4.9.4.4.4.4.4.q.4.9.w.0.4.4.3.3.w.q.3.",
"0.9.0.4.4.3.3.3.4.3.4.4.4.9.4.3.4.4.4.4.4.4.9.4.q.w.w.0.q.9.0.0.w.0.4.3.3.9.w.0.w.9.0.w.4.3.4.4.4.0.0.0.4.4.4.3.3.4.3.3.",
"4.4.9.4.3.3.0.4.3.3.9.3.9.9.9.9.4.3.4.q.0.3.4.3.q.r.w.q.q.4.4.4.w.0.4.3.3.3.0.0.q.0.0.w.5.4.4.4.3.4.9.9.4.4.4.3.3.3.3.3.",
"q.9.0.w.0.q.4.4.q.q.q.0.0.r.0.w.4.4.3.q.w.0.w.9.3.9.0.0.4.0.4.0.9.4.4.4.3.0.0.0.0.0.5.0.9.3.4.4.q.9.4.4.w.t.w.4.e.4.3.4.",
"t.q.0.r.0.0.0.0.w.r.w.w.9.q.9.9.4.3.3.3.4.9.w.5.0.9.q.w.4.9.4.0.0.5.q.0.0.3.5.q.q.4.0.4.4.3.q.w.r.9.4.4.q.q.0.0.q.4.4.3.",
"0.0.9.q.0.0.3.3.0.0.9.9.9.4.3.3.3.4.3.3.9.4.3.9.4.3.4.3.4.0.q.4.4.0.w.q.3.9.3.w.q.0.0.9.0.4.4.q.q.9.4.3.4.4.4.4.3.4.4.3.",
"9.9.9.t.9.9.9.9.9.0.4.9.9.9.4.4.4.5.4.q.4.4.9.4.4.4.0.4.0.t.t.w.3.3.0.q.0.5.9.0.0.5.9.8.0.0.3.3.3.5.3.3.3.3.4.4.5.3.5.9.",
"4.9.4.4.9.9.9.9.0.0.9.4.3.q.q.4.3.3.4.t.q.w.4.9.w.0.4.4.4.q.4.4.4.4.3.0.0.5.9.0.0.0.0.0.0.3.0.3.5.8.3.w.w.q.0.0.8.3.0.r.",
"3.4.3.3.9.9.0.r.w.0.4.5.4.4.9.4.3.4.4.5.4.0.4.4.q.4.3.3.3.3.3.3.0.0.0.0.5.0.0.0.0.0.q.4.3.0.r.q.5.3.9.w.w.9.q.9.5.9.0.q.",
"4.4.9.9.9.9.0.w.w.0.9.4.3.4.4.e.4.4.4.4.0.0.0.4.4.3.4.q.3.q.q.q.q.4.0.w.0.w.0.q.w.q.w.4.5.0.w.q.0.w.3.0.9.q.9.9.3.0.0.8.",
"3.0.t.r.w.3.0.3.3.4.9.8.3.0.t.r.t.0.4.4.q.q.9.3.0.3.3.w.9.9.0.0.0.5.0.w.q.w.0.0.q.4.4.4.9.9.4.4.0.q.4.0.9.e.0.4.5.9.8.0.",
"3.0.w.q.q.3.9.3.3.3.3.4.3.4.q.0.0.9.4.4.q.w.0.9.0.0.0.3.3.3.0.3.3.0.0.5.9.9.0.8.3.4.4.5.4.4.3.4.4.3.3.3.3.4.5.4.0.0.0.5.",
"3.0.3.5.8.9.9.9.3.3.3.4.4.3.8.5.4.3.3.5.4.4.4.3.3.3.3.3.9.0.0.0.3.8.0.5.5.8.8.5.3.e.t.w.4.3.4.4.0.4.4.4.3.4.9.0.0.0.0.0.",
"3.9.5.0.5.0.9.9.9.9.4.4.4.9.0.3.4.4.3.0.3.4.0.0.0.9.3.9.3.0.5.0.5.3.0.3.3.5.5.8.3.4.9.4.4.3.4.3.w.w.4.9.w.9.3.w.0.5.5.0.",
"0.0.0.q.0.0.0.5.0.0.q.8.5.0.q.5.4.3.4.0.9.3.q.r.0.0.5.q.0.3.3.3.0.9.8.3.3.4.q.q.3.4.3.4.9.3.3.3.3.4.3.4.t.9.9.w.q.8.5.9.",
"0.8.0.q.q.5.0.8.5.0.q.0.5.8.5.8.w.w.w.0.0.0.0.0.8.0.0.r.0.5.8.0.w.9.5.0.0.3.0.9.3.4.4.4.e.q.3.3.3.3.q.4.q.9.3.0.0.0.3.0.",
"0.5.3.5.5.8.r.q.8.5.0.3.5.0.0.0.w.q.w.0.0.q.9.3.8.q.0.0.0.0.0.0.4.8.3.0.0.3.3.q.0.q.e.3.9.9.9.9.3.3.w.q.t.e.3.9.r.0.3.5.",
"8.5.8.0.0.0.q.0.0.0.0.0.0.0.8.0.0.9.0.0.5.8.8.8.8.t.0.0.0.0.0.0.0.9.9.4.8.0.0.q.q.9.0.3.9.9.9.9.3.9.9.4.9.9.9.9.0.8.8.9."
};
