/* XPM */
static char *result[] = {
/* columns rows colors chars-per-pixel */
"60 60 129 2 ",
"   c #382B29",
".  c #661C1F",
"X  c #721A1E",
"o  c #7C191E",
"O  c #76211F",
"+  c #5E1D21",
"@  c #631E21",
"#  c #691F21",
"$  c #751E22",
"%  c #7B1D22",
"&  c #422924",
"*  c #40292B",
"=  c #5E2123",
"-  c #4B3023",
";  c #553425",
":  c #5C3426",
">  c #5D3B25",
",  c #533133",
"<  c #622222",
"1  c #6C2422",
"2  c #622D24",
"3  c #692B21",
"4  c #722124",
"5  c #7E2124",
"6  c #653224",
"7  c #6D3325",
"8  c #693C25",
"9  c #4C5328",
"0  c #585727",
"q  c #575A27",
"w  c #55522A",
"e  c #58532A",
"r  c #505D29",
"t  c #5B5D28",
"y  c #664427",
"u  c #694227",
"i  c #634E27",
"p  c #635127",
"a  c #645529",
"s  c #675828",
"d  c #536329",
"f  c #5B652B",
"g  c #5D6E2A",
"h  c #5E742B",
"j  c #5C7C2B",
"k  c #646E2C",
"l  c #69692C",
"z  c #63742D",
"x  c #6C782F",
"c  c #6B6D30",
"v  c #6A7430",
"b  c #694848",
"n  c #8C161B",
"m  c #82191D",
"M  c #8C1B1F",
"N  c #94161D",
"B  c #9E141A",
"V  c #94191E",
"C  c #A4151C",
"Z  c #A9171E",
"A  c #A7191E",
"S  c #B5171D",
"D  c #B9161F",
"F  c #871C21",
"G  c #8B1B21",
"H  c #961B21",
"J  c #9D1C22",
"K  c #A61B21",
"L  c #A91C22",
"P  c #B41D23",
"I  c #BC1B21",
"U  c #852323",
"Y  c #852824",
"T  c #9A252A",
"R  c #9C282D",
"E  c #8E3427",
"W  c #903034",
"Q  c #97383C",
"!  c #AF2127",
"~  c #A2252A",
"^  c #A8272C",
"/  c #A72D32",
"(  c #C5161E",
")  c #CB171E",
"_  c #D4171F",
"`  c #C51921",
"'  c #CC1A22",
"]  c #D51A22",
"[  c #DA1921",
"{  c #824749",
"}  c #8F494C",
"|  c #8A4F52",
" . c #855D5F",
".. c #8B5B5D",
"X. c #8F6769",
"o. c #846E6F",
"O. c #5E852D",
"+. c #64842D",
"@. c #658A2C",
"#. c #66932C",
"$. c #6A942E",
"%. c #6C9B2E",
"&. c #6B8531",
"*. c #6C9530",
"=. c #759733",
"-. c #72A42F",
";. c #76AB2E",
":. c #79AD2F",
">. c #7AB02F",
",. c #74A231",
"<. c #7DA536",
"1. c #7BAF30",
"2. c #7EA538",
"3. c #7DB032",
"4. c #80AB36",
"5. c #83B334",
"6. c #88B537",
"7. c #8AB738",
"8. c #8DB83A",
"9. c #91BA3C",
"0. c #9B9A9A",
"q. c #A29293",
"w. c #ACACAC",
"e. c #B9BEBE",
"r. c #C0BFBF",
"t. c #BDC1C1",
"y. c #D3D9D8",
"u. c #DBE0E0",
"i. c #EBECEC",
/* pixels */
"1.:.:.:.1.:.1.1.1.3.;.5.1.:.1.3.3.3.;.;.:.3.:.:.:.;.:.:.:.1.:.:.;.;.1.;.1.1.5.1.:.:.1.1.3.;.1.3.;.;.;.;.;.:.:.1.1.1.1.3.",
":.:.:.1.1.3.3.1.3.:.:.5.5.:.;.3.3.7.>.3.:.:.1.3.1.:.:.6.5.;.;.;.1.5.5.1.1.1.3.1.1.;.1.1.;.;.5.5.;.1.;.5.1.:.:.1.7.1.3.3.",
"1.;.1.8.7.3.:.:.1.1.:.3.;.1.5.3.3.1.3.;.:.;.5.5.3.3.3.5.3.1.;.;.;.1.6.5.1.1.1.;.5.5.7.1.:.5.3.3.1.1.1.6.1.:.1.1.5.;.1.1.",
"1.;.1.5.1.:.:.3.5.1.1.3.3.1.5.3.:.3.7.3.6.;.;.:.1.1.3.3.1.1.:.1.1.;.:.1.1.1.1.1.5.5.7.3.1.5.3.:.1.7.:.:.:.:.:.:.;.1.1.1.",
":.:.;.;.;.1.:.1.8.:.1.5.1.:.1.:.1.3.5.3.3.:.:.3.5.3.3.3.3.1.;.;.5.8.6.1.1.5.5.:.3.1.1.1.3.;.;.:.;.5.1.:.:.:.5.5.:.1.7.1.",
";.1.1.1.;.1.:.:.1.1.:.6.5.:.3.3.3.1.3.3.3.5.:.:.8.7.7.5.5.3.:.;.1.6.7.1.1.3.3.:.1.1.1.1.1.1.1.1.:.;.:.5.5.:.:.5.1.;.1.1.",
":.8.6.6.:.:.1.:.1.:.:.1.;.1.1.1.1.1.3.:.3.5.1.1.5.5.3.3.5.3.3.;.;.;.1.1.;.1.;.;.3.3.3.1.3.:.;.>.:.:.:.:.:.:.:.:.:.;.;.;.",
"1.6.5.1.:.:.1.1.3.1.:.:.:.1.1.1.1.:.;.:.3.3.:.3.3.3.1.1.>.3.5.5.;.1.5.1.1.6.:.;.:.9.5.7.5.3.5.5.:.1.3.:.1.:.5.:.:.1.1.1.",
";.1.1.1.:.3.5.5.5.5.5.;.;.;.;.6.5.6.:.1.3.6.3.1.3.6.8.8.3.:.3.6.:.:.3.3.1.1.:.:.>.6.3.3.3.3.5.3.3.3.:.1.6.5.8.5.1.9.1.1.",
";.;.;.1.:.3.7.5.5.1.:.;.;.;.;.5.3.3.3.3.3.3.3.3.3.3.5.5.3.>.3.3.1.1.1.:.1.:.:.:.:.3.3.3.3.3.3.3.1.:.1.>.3.1.1.3.1.1.1.1.",
"3.:.6.4.5.3.3.3.;.1.;.:.;.;.:.:.:.:.3.3.1.3.1.1.3.3.3.3.3.:.:.3.3.:.:.1.1.1.1.:.>.:.3.3.3.>.3.3.1.1.5.3.3.3.5.1.1.1.1.1.",
":.:.5.:.3.1.1.1.:.5.7.5.5.;.;.:.3.5.3.5.5.;.5.5.>.3.8.6.5.3.3.5.:.1.1.:.3.5.5.6.:.:.:.3.7.3.5.3.3.1.6.6.:.5.5.1.1.1.3.3.",
"3.3.3.1.;.:.:.3.1.1.3.1.:.:.:.1.1.5.1.5.3.:.1.1.;.;.1.;.:.1.1.:.:.3.8.1.1.3.3.3.:.:.3.3.9.5.8.5.:.:.3.3.:.3.1.1.1.1.1.3.",
"3.3.3.1.:.:.1.3.1.1.;.;.:.1.3.>.1.;.:.1.:.:.1.:.;.;.;.;.:.:.:.:.:.3.7.1.3.3.3.3.7.3.:.3.5.3.3.3.:.:.:.3.:.5.>.:.3.1.3.3.",
"5.5.5.6.3.1.7.5.9.3.1.:.6.>.>.:.1.:.5.5.:.:.:.:.;.;.;.;.;.1.3.;.1.1.:.:.1.1.:.5.7.3.>.3.3.3.1.1.;.;.:.8.3.8.:.5.8.5.5.5.",
"5.5.3.3.1.:.5.5.5.1.3.1.4.:.:.:.;.:.5.1.:.:.5.5.4.;.1.;.1.1.1.;.1.1.;.;.:.1.1.1.:.:.;.3.5.5.5.1.5.:.:.3.:.6.:.:.5.1.1.1.",
":.:.;.:.3.3.3.:.>.3.3.3.1.:.;.;.;.;.;.;.:.1.6.6.6.:.:.6.5.;.;.:.3.6.;.5.5.:.5.5.:.:.:.5.3.3.5.1.5.;.;.:.;.:.;.:.:.3.:.3.",
":.:.:.:.:.3.:.:.5.3.5.5.:.1.5.;.:.:.:.1.1.:.:.:.:.:.:.5.1.;.;.;.1.8.:.1.4.;.:.5.:.3.3.;.;.;.;.1.;.;.;.:.;.:.:.:.:.:.1.:.",
"1.:.;.;.:.:.:.:.6.3.5.5.3.1.3.1.>.6.5.5.1.:.:.5.:.:.:.:.1.:.:.:.:.:.:.:.:.;.:.:.:.5.6.:.3.1.;.;.;.:.5.3.1.3.1.;.;.3.5.;.",
":.1.5.5.:.;.:.:.3.3.3.:.:.3.3.1.:.3.4.5.5.:.>.6.:.:.:.:.:.:.:.:.;.;.:.;.;.:.:.>.:.:.1.:.3.5.:.>.1.5.9.8.5.8.:.:.:.7.5.;.",
";.1.9.8.1.:.:.>.>.1.:.:.:.1.3.3.:.>.:.:.:.>.-.#.%.1.1.1.4.:.5.:.1.;.:.:.3.1.5.5.5.3.1.:.3.8.3.5.3.3.5.1.1.1.;.:.1.:.:.;.",
"1.1.1.;.;.;.5.4.:.5.:.5.1.1.7.5.5.:.3.3.:.3.+.1 7 v 4.1.8.:.4.>.;.1.6.1.7.3.7.3.5.3.3.>.:.5.3.5.5.1.1.3.6.:.;.:.5.:.;.;.",
"5.:.:.;.;.;.5.5.:.6.:.5.3.:.7.5.5.3.3.8.5.3.h o % 4 i *.$.a > O.%.1.5.;.,.@.*.1.1.:.:.:.:.3.3.3.3.3.3.3.5.;.:.:.5.1.;.;.",
":.:.;.:.:.1.1.:.:.1.1.:.:.:.3.3.5.3.3.5.3.3.g X ! I 4 6 7 ` K Y 3 j @.0 6 < w 5.3.6.5.:.:.1.3.3.3.3.:.:.1.:.;.1.1.:.:.:.",
";.;.;.1.3.3.1.:.:.1.:.:.1.:.1.3.8.5.1.1.3.3.h o T ] 4 P ` [ [ [ K : O G H % w 3.:.5.1.:.:.:.:.:.3.;.;.;.1.3.;.3.:.:.3.:.",
":.:.5.1.1.5.3.1.1.:.3.1.6.5.1.:.3.3.3.3.3.7.+.m $ $ D [ [ [ [ [ [ ' ) K J L h 3.:.:.:.:.:.:.;.:.:.3.1.;.5.8.;.3.5.5.:.;.",
";.1.9.1.;.5.5.1.7.5.:.:.3.:.:.5.3.3.*.k z <.$.3 n A _ [ [ [ [ [ [ [ ] F ' E $.;.3.1.1.6.3.:.:.5.5.6.:.1.3.6.;.;.3.5.1.;.",
":.:.5.;.:.:.:.3.3.5.:.:.:.:.3.9.1.c 3 M J 8 j ; N A [ ] T P _ [ [ [ [ K 5 w t p z -.:.6.1.:.:.>.3.3.1.1.:.3.;.1.3.1.1.:.",
":.:.;.:.;.1.1.3.1.1.1.1.1.1.1.,.a % # # 4 % U = o K _ R 0.q.} ! ] ` / {   2 H J $ y #.:.:.:.3.3.6.6.1.;.3.3.;.>.1.3.1.1.",
"5.:.>.:.;.;.1.7.5.6.:.1.7.3.-.i % @ G $ # . o J J 5 ` W t.i.y. .( | r.e., % + 4 + % 7 +.:.:.:.:.8.5.4.;.3.6.;.3.3.1.3.6.",
"5.4.5.4.;.1.1.1.1.4.1.1.1.;.e $ @ H Z $ X V 3 & F 5 I P o.t.w.Q ) ..u.w.* X X % m # $ 3 +.;.;.:.>.:.:.;.;.3.1.3.8.:.:.5.",
">.:.:.:.1.1.1.:.;.;.1.1.1.;.f f z s 7 @ = p @.d + m S ' P W ~ _ [ ^ X.b - M % 4 N C # 1 : 4.:.6.5.>.1.3.;.1.1.3.5.1.1.3.",
"5.5.:.:.:.6.6.:.;.5.5.5.5.:.:.>.7.>.2.9 r 1.3.%.> B B N ( _ [ [ [ [ D u $.x ; < > l +.j h 1.1.5.3.;.1.5.;.;.:.>.>.1.3.1.",
"6.5.5.:.:.5.3.:.:.:.4.:.:.:.:.>.3.3.3.,.;.3.1.3.$.> N C C S ) ) ( Z 8 =.6.6.j 9 $.5.3.>.>.:.:.:.:.;.;.;.;.;.:.:.3.1.5.5.",
":.:.:.:.:.:.;.:.:.:.:.:.:.:.:.:.:.:.>.>.1.3.3.3.3.%.q 3 o n n m 3 q $.3.1.;.;.;.;.;.:.:.1.;.1.3.:.:.1.:.;.1.5.:.1.1.5.1.",
"5.7.6.>.;.5.:.;.:.:.:.:.>.5.>.:.:.:.3.3.1.1.3.1.1.5.1.$.&.z h j $.;.>.;.:.:.:.:.3.>.3.3.1.:.:.8.5.6.5.:.;.;.4.;.:.;.:.1.",
"4.7.6.1.;.5.1.:.:.:.;.5.5.7.5.:.:.>.5.8.3.6.5.3.3.5.3.;.3.3.:.:.;.:.:.:.:.6.3.5.6.3.5.6.1.1.;.4.1.5.3.;.;.;.;.:.:.:.;.1.",
":.>.>.>.:.:.;.;.6.5.;.;.:.>.:.5.3.3.5.7.3.8.3.:.1.3.1.;.;.>.3.3.;.3.3.>.1.3.:.:.>.:.3.:.:.1.:.>.3.:.:.:.:.:.:.:.:.1.;.1.",
":.:.:.:.3.:.;.:.1.:.;.:.:.5.6.9.3.3.3.3.3.3.:.:.;.5.5.3.5.3.3.5.>.5.6.:.:.:.3.3.:.:.3.:.1.1.:.>.:.:.;.:.;.;.5.1.1.1.:.1.",
">.:.;.:.5.5.;.;.:.:.:.:.:.:.5.5.3.3.3.;.3.3.1.:.:.5.6.5.7.;.5.8.:.;.;.:.3.:.6.5.:.:.1.3.3.:.:.>.:.:.;.:.:.:.8.5.7.3.6.:.",
":.:.1.:.1.:.;.:.1.1.5.1.:.1.1.:.:.>.7.5.7.5.6.5.;.1.3.3.1.1.3.3.;.;.;.:.3.;.1.:.;.;.6.6.8.1.:.:.3.3.:.3.3.;.;.>.1.3.5.;.",
":.:.7.:.:.;.;.5.7.3.8.3.:.6.5.1.:.:.>.:.:.:.1.3.3.1.1.:.;.1.:.1.:.:.;.;.1.1.:.;.;.;.3.3.6.1.:.3.8.5.5.6.5.;.;.;.1.5.1.1.",
"1.:.1.;.:.:.;.3.5.:.:.:.:.1.1.1.>.:.>.:.3.3.>.:.>.:.1.;.;.>.3.3.:.:.1.1.:.:.1.1.:.:.1.:.:.;.:.:.5.:.3.5.3.:.3.;.;.6.3.;.",
"3.1.:.:.:.:.:.;.:.;.:.:.:.1.;.:.;.:.:.;.:.:.1.1.5.5.5.3.5.3.1.3.6.3.:.:.;.1.7.3.7.1.3.6.:.;.:.:.:.3.3.3.:.:.:.;.;.;.;.;.",
"1.:.1.:.;.:.3.:.;.;.:.:.1.1.:.:.;.:.:.6.5.;.:.:.5.7.5.5.5.1.1.1.6.1.1.;.;.;.3.>.5.3.3.6.3.:.:.:.:.1.3.1.1.1.1.1.;.;.;.;.",
"5.1.5.5.3.5.:.:.5.5.5.5.5.7.3.5.:.:.;.4.5.3.6.1.:.3.3.3.;.1.:.1.1.1.:.:.;.3.3.3.3.3.>.3.:.;.:.:.3.:.:.:.6.8.5.1.6.;.;.1.",
"9.5.3.6.3.3.3.3.5.8.5.6.1.5.1.1.:.:.;.;.:.:.5.1.1.:.5.5.1.1.1.1.3.3.5.:.3.;.>.5.3.3.3.:.:.;.5.6.7.3.:.:.<.5.1.1.1.1.;.;.",
"5.1.1.5.3.3.;.;.3.3.1.1.1.:.:.:.;.:.;.:.1.:.:.1.1.:.3.1.1.3.5.1.:.3.6.5.;.1.;.7.5.1.3.1.3.>.:.5.5.:.:.:.:.3.1.1.1.1.;.;.",
"1.:.1.8.1.1.1.1.3.1.1.1.1.1.1.:.:.1.1.5.1.1.1.1.1.1.1.;.3.8.7.5.:.;.3.5.3.3.1.3.3.3.1.:.3.3.:.;.:.:.;.:.;.:.:.1.;.:.:.1.",
":.:.:.;.1.1.1.1.3.3.1.:.:.5.5.:.;.;.1.7.1.7.1.1.7.3.:.:.1.5.1.1.:.:.3.3.3.:.>.3.3.1.3.3.:.:.3.1.:.:.:.5.5.5.1.1.1.;.3.7.",
";.;.;.;.1.1.3.7.6.3.1.>.:.:.:.;.;.;.;.1.1.1.1.;.1.1.:.;.;.;.;.1.>.3.1.3.>.3.3.3.3.3.1.1.:.3.8.3.:.:.:.6.6.5.5.1.:.1.3.5.",
"1.:.1.3.1.1.3.6.5.3.1.>.;.:.1.5.1.1.1.:.1.1.1.1.:.;.:.5.;.5.5.3.5.1.3.5.3.6.3.5.7.3.7.1.:.1.6.5.3.6.:.3.1.4.1.1.1.1.1.1.",
"1.3.8.7.5.:.1.;.;.1.1.-.1.3.8.8.7.3.:.:.5.5.3.:.:.:.:.6.1.3.3.3.3.:.:.7.5.6.3.3.1.1.1.1.:.:.>.:.3.3.1.3.1.5.3.;.1.1.1.1.",
";.3.5.5.5.1.1.;.;.;.;.:.:.:.3.3.3.1.:.:.3.6.1.1.3.1.1.:.:.-.3.;.;.3.3.3.:.3.:.:.;.1.1.1.:.:.;.:.1.;.;.;.;.:.3.1.1.3.1.1.",
":.1.:.:.1.1.1.1.;.;.;.:.:.;.1.:.1.;.;.:.:.:.:.:.:.:.;.:.1.3.3.1.;.>.1.1.:.:.:.:.;.5.8.5.:.:.:.:.3.3.;.:.;.;.1.3.3.3.1.3.",
":.1.>.1.:.3.1.1.1.:.:.:.:.1.3.-.;.1.:.1.:.:.3.3.3.:.;.:.:.3.1.1.;.:.1.:.:.:.:.:.;.1.1.:.:.:.;.;.5.5.:.1.7.1.1.5.5.1.1.1.",
"1.3.:.5.5.3.3.;.1.3.5.1.1.3.5.;.:.3.;.3.1.1.5.7.1.1.1.5.3.-.1.1.3.1.1.:.:.:.4.5.;.:.;.;.1.<.;.:.:.:.;.:.7.1.1.7.5.1.1.1.",
"1.3.:.6.3.1.1.1.1.3.5.:.:.1.1.1.6.5.5.3.1.3.1.3.1.1.1.8.3.1.1.1.6.:.:.1.:.;.3.1.:.:.:.1.7.3.;.;.;.:.5.:.5.1.;.1.3.1.;.1.",
"3.:.;.1.3.1.7.5.1.1.1.:.1.1.1.1.6.5.7.3.1.5.1.;.:.5.3.3.3.3.1.1.:.:.:.1.1.:.1.5.1.3.5.;.1.1.1.1.;.;.7.5.8.6.;.1.7.1.:.:.",
"1.:.:.3.3.3.3.3.3.3.3.1.3.1.1.3.3.3.3.3.:.1.;.;.1.8.3.3.3.3.3.1.1.1.1.1.1.1.1.5.4.3.3.:.1.1.3.3.;.1.1.;.1.1.1.1.3.;.1.1."
};
