/* XPM */
static char *result[] = {
/* columns rows colors chars-per-pixel */
"60 60 120 2 ",
"   c #3E2D25",
".  c #6E1A1F",
"X  c #741A1E",
"o  c #7B1B1E",
"O  c #74231F",
"+  c #551E21",
"@  c #5B1E21",
"#  c #661E22",
"$  c #6A1E21",
"%  c #721D21",
"&  c #7B1E22",
"*  c #4E2625",
"=  c #4D2824",
"-  c #432B2D",
";  c #5C2625",
":  c #5E2D22",
">  c #473624",
",  c #4C3C27",
"<  c #563525",
"1  c #5A3924",
"2  c #4E3031",
"3  c #652F22",
"4  c #692A23",
"5  c #752123",
"6  c #7D2323",
"7  c #7B2A22",
"8  c #623724",
"9  c #6C3626",
"0  c #6C3925",
"q  c #793727",
"w  c #5C4525",
"e  c #534F2B",
"r  c #4E5D29",
"t  c #545027",
"y  c #5A5526",
"u  c #585229",
"i  c #515928",
"p  c #5E5A2B",
"a  c #634226",
"s  c #6E4425",
"d  c #674927",
"f  c #644128",
"g  c #605F2B",
"h  c #536529",
"j  c #5A6429",
"k  c #556D2C",
"l  c #5D6E2A",
"z  c #5E722A",
"x  c #537929",
"c  c #626C2C",
"v  c #62712A",
"b  c #637C2D",
"n  c #715B5C",
"m  c #82171D",
"M  c #94151B",
"N  c #9C131A",
"B  c #96181E",
"V  c #9C191F",
"C  c #A3151B",
"Z  c #BD171E",
"A  c #841D22",
"S  c #8D1D22",
"D  c #931C22",
"F  c #9B1C22",
"G  c #A51C22",
"H  c #AA1C22",
"J  c #B31A21",
"K  c #BC1A22",
"L  c #942025",
"P  c #972A26",
"I  c #9C2F34",
"U  c #873336",
"Y  c #8F3236",
"T  c #973337",
"R  c #943539",
"E  c #AA2126",
"W  c #A4242A",
"Q  c #C4171E",
"!  c #C4181F",
"~  c #D3171F",
"^  c #D1181F",
"/  c #C41A21",
"(  c #CC1A22",
")  c #D51921",
"_  c #DA1921",
"`  c #E41D25",
"'  c #8C4346",
"]  c #914548",
"[  c #845557",
"{  c #8B6264",
"}  c #957274",
"|  c #5E822A",
" . c #63842D",
".. c #658B2D",
"X. c #69942D",
"o. c #6C992E",
"O. c #6F8932",
"+. c #728534",
"@. c #6FA02F",
"#. c #71A42E",
"$. c #76AB2E",
"%. c #79AD2F",
"&. c #72A130",
"*. c #75A830",
"=. c #7BAF30",
"-. c #7DB032",
";. c #83B334",
":. c #88B537",
">. c #8AB738",
",. c #8DB83A",
"<. c #91BA3C",
"1. c #8D8383",
"2. c #988687",
"3. c #AFA4A4",
"4. c #ADB0B0",
"5. c #B8BABA",
"6. c #C1C4C4",
"7. c #D1D5D5",
"8. c #E1E6E6",
"9. c #E6E8E8",
/* pixels */
"=.%.%.%.=.%.=.=.-.=.%.-.=.%.=.-.-.-.$.%.%.=.=.%.%.%.$.%.%.=.-.$.$.$.%.%.$.%.-.=.%.%.%.-.-.$.-.-.$.$.$.$.$.%.%.-.=.=.=.-.",
"%.%.%.=.=.-.-.=.%.=.%.:.;.=.$.-.-.>.%.-.=.$.%.-.=.%.%.>.;.$.$.$.=.-.:.=.-.=.;.%.%.%.%.=.$.$.-.:.$.$.$.;.%.%.%.=.:.-.-.-.",
"=.$.=.,.>.-.%.%.=.=.%.-.$.=.:.-.-.-.-.%.%.$.-.:.=.-.-.;.-.=.$.$.%.-.:.-.-.%.=.%.:.-.>.-.$.;.-.-.-.=.=.>.=.%.=.%.;.$.=.-.",
"=.$.=.;.=.%.%.-.;.=.=.-.=.=.;.%.$.-.:.-.:.%.$.%.=.-.-.=.-.=.%.%.%.%.%.=.=.%.=.=.:.;.:.;.=.:.-.%.=.:.%.%.%.%.%.%.$.$.=.=.",
"%.%.$.$.$.=.%.=.,.=.=.;.=.%.=.=.=.-.;.-.-.%.%.-.;.-.-.-.-.=.$.$.:.>.:.-.-.;.;.=.%.=.$.-.=.$.$.%.$.;.=.%.%.%.;.;.$.=.>.=.",
"$.=.=.=.$.=.%.%.=.=.%.:.;.=.=.=.-.-.-.-.-.:.%.%.>.,.>.;.:.=.$.$.=.:.:.-.=.-.-.$.=.=.-.=.%.-.=.-.%.$.$.;.:.$.-.-.=.$.-.=.",
"=.,.:.:.%.%.=.=.=.%.%.=.%.=.=.=.%.%.-.%.-.;.%.%.;.;.-.-.-.-.-.$.$.%.%.%.$.=.$.$.-.;.=.%.-.%.$.%.%.%.%.%.%.%.%.$.=.$.$.$.",
"$.:.;.=.%.%.=.%.=.=.%.%.%.=.=.=.=.=.$.%.=.-.-.=.-.-.%.-.-.-.-.:.$.%.;.-.=.:.=.$.%.,.:.:.;.-.;.;.=.=.-.%.-.%.;.%.$.=.=.=.",
"=.%.=.=.$.-.:.;.:.;.;.$.$.$.%.:.;.>.$.-.-.:.=.=.-.:.,.,.-.=.-.:.$.=.-.-.-.$.$.$.-.-.-.-.-.-.;.-.=.-.%.%.:.;.,.;.-.,.-.=.",
"$.$.$.=.=.-.:.-.-.=.=.$.$.$.$.;.-.-.-.-.-.-.-.-.-.-.;.;.=.=.-.-.-.-.$.=.-.=.$.=.-.-.-.-.-.-.-.-.-.%.%.-.-.-.-.=.%.=.=.=.",
"=.=.:.;.:.%.-.-.=.=.$.=.%.$.=.%.$.=.$.-.-.-.=.=.-.-.;.-.-.=.=.-.-.$.$.=.$.-.=.-.=.=.-.-.-.=.-.-.-.$.-.;.-.-.;.=.$.=.=.=.",
"=.=.;.$.-.=.=.=.=.=.:.:.=.$.$.%.%.:.-.:.;.$.;.;.-.=.,.;.-.-.-.;.$.-.-.$.-.;.;.;.%.=.=.-.,.-.;.-.-.-.:.:.=.-.;.=.-.=.-.-.",
"=.=.=.=.=.=.=.=.=.=.=.=.=.%.=.=.=.-.-.;.-.$.-.-.$.$.%.$.-.=.=.$.%.-.,.-.-.-.-.-.%.-.=.-.<.;.,.;.%.%.-.-.%.-.%.-.=.=.=.-.",
"=.=.=.=.=.$.$.=.=.=.$.$.%.=.=.=.-.$.$.=.=.$.=.%.$.$.$.$.=.$.$.=.%.-.:.-.-.-.-.-.;.-.-.-.-.-.-.-.=.$.=.-.-.-.-.-.-.=.=.-.",
":.:.;.>.=.=.>.:.,.=.=.=.:.=.=.=.=.=.:.-.$.%.$.$.$.$.$.$.$.=.-.=.=.=.$.$.=.=.=.;.;.-.=.=.-.-.-.%.$.$.%.>.-.,.%.%.,.-.:.;.",
";.;.=.=.=.=.;.;.;.=.-.=.;.$.$.$.$.$.;.-.$.$.:.:.;.%.=.$.$.%.=.$.=.-.$.$.=.$.=.=.=.=.$.-.;.;.;.-.;.%.%.-.%.:.%.-.:.=.=.=.",
"%.%.$.$.-.-.=.=.-.-.-.=.=.%.$.$.$.$.$.$.$.=.:.:.:.$.$.:.;.$.$.$.-.:.$.=.>.%.;.;.$.=.%.=.-.-.;.-.;.$.$.%.$.%.$.$.%.-.-.=.",
"=.-.%.%.-.-.%.=.:.-.-.;.=.=.;.$.%.%.%.=.=.=.=.=.=.$.$.:.=.$.$.$.=.,.=.=.=.$.=.;.%.=.=.=.$.$.$.=.$.$.$.$.$.%.%.%.%.%.$.-.",
"=.$.$.$.$.$.$.%.:.-.-.:.-.=.-.=.%.:.:.=.=.$.=.;.$.=.$.=.=.=.%.%.$.=.=.%.=.$.%.=.%.;.,.%.-.=.$.$.$.=.;.-.=.-.%.%.$.-.-.%.",
"$.-.;.;.$.$.%.=.-.-.-.-.%.=.-.-.%.-.;.;.;.$.=.:.=.$.$.%.%.=.$.%.$.$.$.$.$.%.%.=.%.$.=.=.-.;.%.$.=.-.<.>.:.,.%.%.%.>.;.$.",
"$.=.,.,.-.$.=.%.$.%.$.=.$.=.-.-.%.=.-.$.=.$.$.#.#.=.=.=.=.$.=.%.=.$.$.$.=.=.;.;.;.=.=.%.=.<.-.;.;.-.-.-.=.%.$.%.=.$.$.$.",
"-.$.-.%.$.$.;.-.$.:.$.;.=.=.>.;.:.$.-.-.-.-...8 d O.:.-.,.;.:.=.$.=.:.=.,.-.>.-.;.;.-.=.%.;.-.:.;.-.=.-.:.=.$.=.:.$.$.$.",
"-.%.%.$.$.$.:.;.$.:.-.;.=.$.>.;.;.-.-.,.-.-.z m & 4 g &.&.c u X.*.-.;.=.*.o.&.=.=.%.%.=.%.-.-.-.-.-.-.-.-.=.$.%.;.=.$.$.",
"%.%.%.%.$.=.=.$.-.$.-.$.=.=.-.=.-.-.-.;.-.-.z . G G $ f f J D 9 a  .o.z w : p ;.=.:.-.=.%.=.=.-.-.-.=.$.=.%.$.=.=.=.=.%.",
"%.$.$.=.-.=.=.=.%.=.=.%.=.%.=.-.,.;.-.-.;.-.v X G ` % G K _ ) ) F , 4 & B $ e =.$.:.=.%.%.%.%.%.-.$.$.$.-.-.=.-.-.-.%.%.",
"%.%.;.=.=.:.-.$.%.-.=.=.:.;.=.=.-.-.@. .b &. .o & 6 G _ _ _ _ _ ) K ! J S H l -.%.$.=.$.%.%.%.%.%.-.$.=.;.>.$.=.-.:.%.$.",
"$.=.<.=.$.;.-.-.:.;.$.%.-.%.%.;.#.c 9 5 D q k 5 A V _ _ _ _ _ _ _ _ ) 6 ( P x X.*.=.=.:.%.%.%.;.:.:.$.$.-.:.$.$.-.;.=.$.",
"%.%.-.=.$.=.=.-.;.-.%.%.%.%.=.+.0 o $ @ A A 4 = M G _ ) H Q _ _ _ _ _ G L ; 7 7 a b $.:.%.-.%.=.-.=.=.-.%.-.$.-.$.-.-.$.",
"$.$.$.%.$.=.=.-.%.=.-.=.-.*.j 5 $ . M % 5 + S % X H _ W 1.} T K ~ ) K U * & D 5 % 6 d o.=.%.-.-.:.;.-.$.=.-.$.=.=.-.-.%.",
";.=.=.$.$.$.=.>.:.>.%.=.>.=.l t w S C % % m . B D & / Y 6.9.6.[ Q ' 3.4.2 # # % X @ & 8  .$.%.%.,.:.-.$.-.:.$.-.-.=.-.:.",
":.;.:.=.$.=.=.=.=.-.=.$.=.=.$.$.#. .1 4 # 7 8   F A J E 1.7.6.] Q { 8.5.- m X & B V $ 4 < o.$.%.=.%.$.$.$.-.=.-.,.%.%.;.",
"=.$.%.$.=.=.=.=.$.%.$.-.-.=.=.-.;.-.O.> h o.$.r @ o Z ( W ' R ( _ I 2.n > 7 % $ O s v z  .:.%.:.;.=.-.-.$.$.-.-.;.%.=.-.",
";.=.=.$.%.:.:.%.$.;.;.;.;.%.%.%.>.-.,.@.$.;.-.o.: C N B ^ ~ ~ ~ ` ~ Z 0 X.&.i = h $.-.-.-.;.-.;.-.$.=.:.$.$.%.%.-.%.-.-.",
":.;.:.$.%.;.-.$.%.%.=.=.%.%.%.%.-.-.-.%.$.-.-.%. .3 N C N Z ^ ~ ^ Z 7 O.;.>.#.| $.;.%.$.%.$.%.%.=.$.$.$.#.$.%.%.-.-.:.-.",
"=.$.$.%.=.=.%.$.%.=.%.=.%.$.%.%.%.%.%.%.-.-.-.-.=...w O M N N M O w ..%.=.$.$.%.$.$.%.$.%.%.=.-.-.$.-.%.$.-.;.%.-.=.:.$.",
";.:.:.;.=.=.%.$.$.=.%.$.%.;.;.%.%.%.-.-.%.%.-.%.%.:.$. .v p y j | #.%.%.%.=.%.=.;.$.%.;.%.%.%.,.-.:.;.$.$.$.-.$.$.$.%.%.",
"=.,.:.=.$.:.=.%.%.%.$.;.;.>.;.%.%.%.:.,.-.:.-.-.-.:.-.%.=.%.$.%.=.%.=.%.%.:.-.;.:.=.-.:.-.%.%.-.%.:.-.$.$.$.%.%.$.%.$.=.",
"%.$.=.=.$.$.$.%.:.;.$.$.%.-.%.-.-.-.;.:.;.<.-.%.%.%.$.$.%.=.-.-.$.-.-.=.%.-.%.%.-.=.-.-.%.%.%.%.-.%.$.%.%.%.%.%.%.=.%.=.",
"=.$.=.=.=.=.$.$.-.%.$.%.$.:.:.<.-.-.-.-.-.-.%.%.%.;.;.-.;.=.-.;.%.;.;.%.%.%.-.-.%.%.-.%.=.=.%.-.-.$.%.$.$.$.;.%.-.%.=.=.",
"=.=.$.$.:.=.%.$.%.%.$.%.$.%.;.:.-.-.-.%.=.%.%.%.%.;.:.:.>.%.;.,.%.%.%.=.-.%.:.;.%.%.%.-.-.$.%.-.%.$.$.%.%.%.,.;.:.-.:.%.",
"%.%.-.%.-.%.$.$.-.%.;.=.%.-.=.%.%.=.,.-.,.-.:.;.%.=.-.-.=.=.-.=.$.$.$.%.-.$.=.%.$.$.;.,.,.=.%.-.-.-.=.%.-.$.$.-.-.-.-.$.",
"=.%.:.%.$.$.$.;.>.-.,.-.%.:.:.=.%.=.=.%.-.=.-.-.=.%.-.$.$.=.=.=.%.$.$.$.=.=.%.$.$.$.-.-.;.-.%.-.:.:.:.:.;.$.$.$.=.-.-.=.",
"=.%.%.$.$.%.$.-.;.$.=.%.$.=.%.$.%.%.%.=.-.-.%.%.%.%.=.$.%.%.-.-.%.%.=.-.$.%.=.=.%.%.=.=.%.$.$.%.;.%.=.:.-.%.-.$.=.:.-.=.",
"-.=.-.%.%.%.-.$.$.$.%.%.=.=.$.=.%.%.%.=.%.%.=.=.;.:.:.-.;.=.-.-.>.-.%.$.$.-.>.-.:.=.-.:.%.$.%.%.%.=.-.-.%.%.$.$.$.$.$.$.",
"%.%.=.%.$.$.-.$.$.$.%.=.=.-.%.=.$.$.%.;.-.$.%.=.-.:.:.;.;.-.$.=.>.-.%.$.$.%.-.-.;.-.-.:.-.%.%.%.$.%.=.=.%.%.%.$.$.$.$.$.",
";.=.-.:.-.;.-.$.;.;.;.-.-.>.-.:.%.=.$.-.;.=.:.=.=.=.-.-.$.-.=.%.%.%.%.%.$.%.-.-.=.-.%.-.%.$.%.-.;.=.=.%.:.,.:.=.:.$.$.*.",
"<.;.-.:.-.-.-.-.:.>.:.;.=.;.=.=.%.$.$.$.=.=.;.=.=.%.;.:.%.=.%.=.=.-.;.=.-.$.=.;.;.%.-.%.%.$.-.:.:.=.%.%.;.;.-.-.;.%.%.$.",
"-.-.=.;.-.-.$.$.-.-.=.=.-.$.$.$.$.=.$.$.=.=.%.=.=.%.=.%.%.-.;.-.=.=.>.;.$.=.$.:.:.=.-.%.-.-.%.;.;.=.%.$.%.%.%.=.$.%.$.$.",
"=.=.=.,.-.=.=.=.-.-.=.=.=.=.=.$.=.=.=.;.=.=.=.=.-.%.%.%.-.,.,.:.$.$.-.;.-.-.%.-.-.-.=.=.-.=.$.$.$.=.$.$.$.-.$.=.$.=.$.=.",
"$.=.=.$.=.=.=.=.-.-.=.%.%.-.;.%.$.$.=.,.=.:.=.=.:.-.%.%.%.;.%.%.%.=.%.-.-.%.-.-.-.-.=.-.=.$.=.=.%.%.$.:.;.;.-.-.=.*.-.>.",
"$.$.$.$.=.=.-.>.:.-.=.%.%.=.=.$.$.$.$.=.=.-.%.$.;.%.$.$.$.$.$.$.=.-.=.=.-.-.-.-.-.-.;.%.=.-.>.;.%.=.%.;.:.;.-.-.=.=.-.;.",
"=.%.-.=.=.=.=.:.;.-.=.%.$.%.=.;.=.=.$.=.=.=.=.=.$.$.%.;.$.;.;.;.;.=.-.:.-.;.-.;.>.-.:.%.$.-.:.;.-.:.%.-.=.-.-.=.=.=.=.=.",
"%.-.,.:.:.$.-.$.$.=.=.$.=.-.,.,.>.-.%.%.;.;.-.%.=.$.=.:.$.=.-.-.-.=.=.>.;.:.-.-.-.%.=.=.=.-.%.=.-.;.=.-.%.:.=.$.=.=.=.=.",
"$.-.:.;.;.$.=.$.$.$.*.%.$.=.-.-.-.=.%.%.-.:.=.=.=.-.=.$.$.=.-.$.%.=.-.-.%.-.%.%.$.%.%.=.$.$.$.%.%.$.$.$.$.$.=.=.=.-.=.=.",
"%.=.$.%.-.$.=.=.$.$.$.$.=.$.%.%.=.$.%.%.%.%.%.%.=.$.$.$.=.-.-.=.$.%.-.%.%.%.%.%.$.:.,.:.$.-.=.%.-.=.%.$.=.$.=.-.-.-.=.-.",
"%.=.=.-.$.-.-.=.=.$.=.=.$.=.-.*.$.=.%.%.%.%.-.-.=.=.$.=.=.=.=.=.$.%.=.%.%.%.%.%.$.%.=.$.$.$.$.$.:.:.$.=.:.=.$.:.-.=.=.=.",
"=.=.=.:.-.-.-.=.=.-.;.=.%.-.;.%.%.-.%.-.=.=.-.:.-.-.=.-.=.=.=.=.-.=.%.%.%.$.;.-.%.%.$.$.-.*.$.$.$.$.$.$.>.=.=.:.;.=.=.=.",
"=.=.=.;.-.=.-.=.=.-.;.*.%.%.=.=.:.;.;.-.-.-.-.-.=.=.-.,.-.=.*.=.:.%.%.-.=.$.-.=.=.%.%.=.:.-.$.$.$.$.-.-.;.=.*.-.-.-.$.=.",
"=.=.%.=.-.=.>.;.=.=.-.=.=.-.=.-.:.;.:.-.=.;.=.$.=.;.-.-.-.-.=.-.%.%.%.-.-.%.%.;.-.-.;.$.=.=.=.=.$.$.,.;.>.:.$.=.:.=.$.=.",
"=.*.=.=.-.-.-.-.-.=.-.=.=.=.=.-.-.-.-.-.=.=.$.$.=.,.-.-.-.-.-.*.=.=.%.%.=.=.=.;.;.-.-.$.-.-.*.-.$.=.=.$.-.=.=.=.-.=.=.=."
};
