/* XPM */
static char *result[] = {
/* columns rows colors chars-per-pixel */
"60 60 122 2 ",
"   c #3B3125",
".  c #3E2F30",
"X  c #5E1C1F",
"o  c #6B1C1F",
"O  c #751B1E",
"+  c #7B191D",
"@  c #5C1E21",
"#  c #631D22",
"$  c #6C1C21",
"%  c #741D21",
"&  c #7B1E22",
"*  c #502325",
"=  c #5D2023",
"-  c #433F25",
";  c #4B3A27",
":  c #543125",
">  c #5C3F24",
",  c #482D30",
"<  c #6B2122",
"1  c #602822",
"2  c #762323",
"3  c #782122",
"4  c #722D24",
"5  c #7B2E24",
"6  c #653324",
"7  c #693127",
"8  c #7E3124",
"9  c #4E4326",
"0  c #4A4F27",
"q  c #484C28",
"w  c #5C4527",
"e  c #524927",
"r  c #5C4D27",
"t  c #485628",
"y  c #5A5D27",
"u  c #545628",
"i  c #5E562B",
"p  c #634426",
"a  c #6A4125",
"s  c #625329",
"d  c #5B662A",
"f  c #5C6C2A",
"g  c #5C712B",
"h  c #5E792C",
"j  c #62642A",
"k  c #646C2C",
"l  c #64742D",
"z  c #63792C",
"x  c #6B7830",
"c  c #7D7172",
"v  c #85171D",
"b  c #8E171C",
"n  c #8E191E",
"m  c #91171D",
"M  c #9C141B",
"N  c #93181E",
"B  c #9B1A1F",
"V  c #A3131A",
"C  c #A9121A",
"Z  c #A3181D",
"A  c #B2161D",
"S  c #BF181F",
"D  c #841F23",
"F  c #8A1F23",
"G  c #931D22",
"H  c #9B1B21",
"J  c #A41C22",
"K  c #AA1C22",
"L  c #B11A21",
"P  c #BC1D23",
"I  c #832024",
"U  c #8E2123",
"Y  c #9A2123",
"T  c #922529",
"R  c #8F3135",
"E  c #993539",
"W  c #93393D",
"Q  c #A32125",
"!  c #A4242A",
"~  c #A82128",
"^  c #C4151C",
"/  c #CB171F",
"(  c #D8171F",
")  c #C31A21",
"_  c #CD1921",
"`  c #D51920",
"'  c #DA1921",
"]  c #E91C24",
"[  c #87484B",
"{  c #8C4B4D",
"}  c #8D5154",
"|  c #905457",
" . c #876061",
".. c #8B6567",
"X. c #826768",
"o. c #63852D",
"O. c #648B2C",
"+. c #698D2F",
"@. c #67902D",
"#. c #6A932E",
"$. c #6D9B2F",
"%. c #739D32",
"&. c #72A62E",
"*. c #76AB2E",
"=. c #79AD2F",
"-. c #76A930",
";. c #7BAF30",
":. c #7DB032",
">. c #83B334",
",. c #88B537",
"<. c #8AB738",
"1. c #8DB83A",
"2. c #91BA3C",
"3. c #9C9A9A",
"4. c #A18486",
"5. c #A7A3A3",
"6. c #B0ACAD",
"7. c #BFC3C3",
"8. c #C0C2C2",
"9. c #D1D6D6",
"0. c #DBDEDE",
"q. c #E2E5E5",
/* pixels */
";.=.=.=.;.;.;.;.:.;.=.:.:.;.;.;.:.:.=.=.=.;.=.=.=.*.=.=.=.;.;.=.*.*.;.=.=.*.:.=.=.=.;.:.:.*.;.:.*.*.&.*.=.=.=.:.:.;.:.:.",
"=.=.=.;.;.:.:.;.;.;.=.>.>.=.=.:.:.<.;.;.=.=.;.>.=.=.=.<.:.=.*.=.*.>.,.=.:.;.>.=.=.=.=.;.=.*.>.>.=.*.*.,.=.=.;.=.>.;.:.:.",
";.=.;.1.<.:.=.=.;.;.=.:.=.;.,.;.:.:.;.=.=.=.>.>.=.:.:.>.:.;.*.=.=.:.>.>.:.=.;.;.>.>.,.:.=.>.:.;.;.;.=.,.=.=.=.:.>.*.;.;.",
";.*.=.>.;.=.=.;.>.;.=.:.=.;.>.;.=.:.<.:.>.=.=.=.:.:.:.;.;.=.=.=.=.=.;.;.;.=.;.;.,.>.>.>.:.>.:.=.;.,.;.=.=.=.=.=.*.=.;.;.",
"=.=.*.*.*.;.=.;.1.;.;.>.;.=.;.;.=.:.>.:.:.=.=.:.>.:.:.:.:.;.*.*.,.1.,.;.;.>.>.=.;.:.=.:.;.=.=.=.*.>.:.=.=.=.>.>.=.;.<.;.",
"*.;.;.;.*.;.=.=.;.;.=.,.>.;.;.;.:.:.:.:.:.>.=.=.<.<.<.>.,.;.=.=.;.>.,.:.;.:.:.=.;.;.;.;.:.=.;.;.=.*.=.>.>.=.>.:.=.=.:.;.",
"=.1.,.,.=.=.;.;.;.=.=.;.*.;.;.;.=.;.:.=.:.>.=.=.>.>.:.:.>.:.;.=.*.=.*.;.=.;.=.*.:.>.;.;.:.;.=.;.=.=.=.=.:.=.*.=.;.*.=.*.",
";.,.>.;.=.=.;.=.;.;.=.;.=.;.;.;.=.;.*.=.:.:.:.;.:.:.:.=.;.:.:.>.*.=.>.:.=.,.*.*.=.1.>.<.>.;.:.>.:.=.:.=.=.=.:.=.=.;.=.=.",
"*.;.;.;.=.;.,.>.,.>.>.;.*.*.*.,.>.,.=.;.:.,.;.;.:.,.1.1.:.;.:.,.=.=.:.:.;.=.=.=.;.,.:.:.>.:.:.:.=.:.=.=.>.>.2.>.:.<.:.:.",
"*.*.*.;.=.>.,.:.;.;.;.*.*.*.=.>.:.:.:.:.:.:.:.:.:.:.>.>.;.;.;.:.;.;.;.=.:.=.=.:.;.:.:.;.:.:.:.:.:.=.;.;.:.:.:.:.=.:.=.=.",
";.;.,.>.>.:.:.;.*.;.*.;.*.=.=.=.=.=.:.:.:.;.;.;.:.:.:.:.:.;.;.:.:.=.*.=.;.=.:.:.;.;.:.:.:.;.:.:.;.;.:.>.;.:.>.=.=.=.:.=.",
";.;.>.*.:.;.;.;.;.>.,.>.;.*.*.=.;.>.:.>.>.=.>.>.:.:.1.,.>.:.:.>.=.:.;.;.:.>.:.>.;.;.:.:.,.:.>.:.:.:.>.,.=.>.>.;.=.:.:.:.",
";.;.;.;.;.;.=.;.;.;.;.;.;.*.=.;.;.>.;.>.:.*.;.;.*.*.*.*.;.;.=.=.=.:.1.;.;.:.:.:.=.;.:.:.2.>.1.,.;.;.:.:.=.:.=.:.:.;.=.:.",
";.;.;.;.=.=.;.;.;.;.*.*.;.;.>.;.;.=.=.;.;.=.;.;.=.*.*.*.;.*.=.=.=.:.,.:.:.:.:.:.:.:.;.:.:.:.:.:.;.*.=.>.;.:.:.=.:.;.:.=.",
",.,.>.<.;.;.,.,.1.;.;.;.,.;.;.;.;.;.>.:.*.=.=.*.*.*.*.*.*.;.:.=.;.;.;.*.;.;.;.>.>.:.;.;.:.:.;.=.*.*.=.<.:.<.:.>.1.:.>.,.",
">.>.;.;.;.;.>.>.>.;.:.;.;.=.=.*.*.*.,.;.*.=.,.>.>.=.;.*.*.=.;.*.;.;.*.*.=.=.;.;.:.;.=.:.>.>.>.;.>.=.=.;.:.>.=.=.>.:.:.:.",
"=.=.*.=.:.:.:.=.=.:.:.:.;.*.*.*.*.*.*.*.*.;.<.<.,.*.=.>.>.=.*.=.;.,.*.>.,.*.;.,.*.;.=.;.:.:.>.;.>.*.*.*.*.=.*.=.=.:.=.:.",
"=.=.=.=.;.:.=.=.>.:.>.>.;.=.,.=.=.=.=.;.;.;.;.*.;.=.=.>.;.*.*.*.;.1.;.;.;.*.;.>.;.;.;.;.=.=.=.=.*.*.*.=.*.=.=.=.=.=.=.=.",
"=.=.*.*.=.*.=.=.<.:.>.>.;.;.:.;.;.,.,.;.;.=.;.>.=.=.=.=.;.;.=.=.=.;.;.=.=.*.*.;.=.>.1.=.:.;.*.=.*.=.>.:.;.>.;.*.=.:.:.=.",
"=.=.>.>.=.=.=.=.;.:.:.:.=.;.;.=.=.;.>.>.>.*.;.>.=.=.*.=.=.=.=.=.*.*.*.*.*.=.;.;.=.*.;.;.:.:.=.=.;.:.2.1.>.1.=.*.=.,.>.*.",
"=.;.2.1.:.=.=.=.;.;.=.=.*.;.:.;.=.;.:.=.=.=.=.*.-.;.;.;.;.=.=.=.;.*.=.=.;.;.>.>.>.;.;.=.;.2.:.>.>.:.:.:.;.;.*.=.;.*.*.*.",
";.=.=.=.*.*.>.:.=.>.=.>.;.;.1.,.,.=.;.:.;.:.#.r j %.<.;.1.>.>.>.*.=.>.;.1.;.<.:.>.>.:.;.=.>.:.,.>.;.;.:.,.=.*.;.,.=.*.*.",
">.=.=.*.&.*.>.>.=.,.=.>.;.=.1.>.>.:.:.1.:.:.g v & 7 l -.;.o.d &.:.:.:.;.;.-.-.;.;.=.=.;.=.:.:.:.:.:.:.:.:.=.=.=.>.;.*.*.",
"=.=.=.=.=.:.:.=.=.;.;.=.=.;.:.;.:.:.:.>.>.:.g O G G < i s Y D w i @.-.o.y > j ,.;.,.:.;.=.;.;.:.:.:.=.=.;.=.*.;.:.=.=.=.",
"*.*.*.;.:.:.;.;.=.;.;.=.;.=.;.:.2.>.*.$.#.$.f O K ] % G J ' ` _ G q w < m o 0 ;.=.,.=.=.=.=.=.=.:.=.*.=.;.:.=.:.;.;.;.=.",
"=.=.>.;.;.>.>.=.=.=.;.;.,.>.;.&.#.k 6 4 2 5 ; + D U H ` ' ' ' ' _ K A L F J d :.=.=.=.*.=.=.=.*.=.;.;.=.>.<.=.;.>.>.;.=.",
"*.;.2.=.*.>.:.;.,.>.*.*.:.:.#.w 2 % $ o = Z & O & n ' ' ' ' ` ' ' ' ` I P Q e j o.&.=.,.=.=.=.>.,.,.=.=.:.>.=.=.:.>.=.=.",
"=.=.>.*.=.=.;.:.>.>.;.=.=.=.$.r : % N n 3 = & % b K ' ` ) _ ' ' ' ' ' H K I H % 3 a z >.=.>.=.=.;.:.;.;.;.=.=.=.=.:.:.=.",
"*.*.*.=.*.=.;.:.*.;.;.;.;.;.;.;.$.s B + 3 o o G $ L ' K X.| ~ _ ' ( ) T * = I @ o $ 3 p +.*.=.>.,.>.;.*.:.:.=.:.;.:.:.;.",
">.;.;.*.*.=.;.<.,.,.=.;.1.;.;.*.*.&.u # o N O & H D ) R 7.0.6.[ / E 4.3.. X % % N n # < ; &.=.=.1.,.>.*.:.>.=.:.:.;.:.>.",
",.>.,.;.*.;.;.;.;.>.;.*.;.=.=.*.*.*.O.; u k d   H F L ! 3.q.9.} ^ ..q.8., n 3 3 b 8 j o.#.*.*.=.;.*.=.*.=.:.=.:.1.=.=.>.",
";.*.=.=.=.;.;.=.*.*.*.>.;.;.;.;.,.*.>.$.=.;.=.t @ % S / R  .{ P ( W 5.c - a = @ 9 $.=.;.=.1.*.,.>.;.;.;.*.=.;.:.>.;.=.:.",
">.;.;.*.=.1.>.=.*.>.>.>.>.=.=.=.<.:.1.;.=.>.:.@.1 V M Z _ / ( ' ' _ ~ 7 #.;.O.0 O.:.;.=.=.>.:.>.:.=.;.,.&.*.=.=.;.=.:.=.",
",.>.>.=.=.>.>.*.*.=.;.;.=.=.=.=.:.:.:.=.=.;.;.=.g O V M V ^ ` ` ( / U x >.,.*.&.*.>.=.=.=.=.=.=.=.*.*.*.&.*.=.=.:.:.>.:.",
"=.*.*.;.;.;.=.*.=.=.=.=.=.*.=.=.=.=.=.=.;.;.:.:.=.h 6 v M V C V m 6 h *.=.=.*.=.*.=.=.=.=.*.:.:.=.=.;.=.*.:.>.=.:.:.,.=.",
",.,.,.>.=.;.=.*.*.;.=.=.=.>.>.=.=.=.:.:.;.;.:.;.=.>.&.h i p > r f $.=.;.=.;.=.=.=.=.=.>.=.=.=.1.>.,.>.=.*.*.>.*.=.=.=.=.",
";.1.,.;.*.,.;.=.=.=.=.:.>.<.>.=.=.=.>.1.:.,.>.:.;.,.:.=.;.*.*.*.=.=.=.=.=.,.:.>.,.;.:.,.:.=.=.>.;.,.;.*.*.*.=.=.*.=.=.;.",
"*.*.;.;.*.*.*.=.,.>.*.*.=.:.=.:.:.:.>.<.:.1.:.=.;.=.*.*.*.;.;.;.=.;.>.;.=.:.=.=.:.;.:.:.=.=.=.=.:.=.=.=.*.=.=.=.=.=.=.=.",
";.*.;.;.;.=.*.*.;.=.*.=.=.>.<.2.:.:.:.:.:.:.=.=.=.>.>.:.>.;.:.>.=.>.>.=.=.;.:.:.=.=.:.=.:.=.=.:.=.=.=.*.*.=.>.=.:.=.=.;.",
";.=.*.;.,.;.=.*.=.=.=.=.=.:.>.>.:.:.:.:.=.:.;.=.*.>.<.>.<.=.>.1.=.=.*.=.;.=.,.>.=.=.=.:.:.=.=.=.=.*.*.=.=.=.<.>.,.:.,.=.",
"=.=.;.=.;.=.*.=.;.:.>.;.=.;.;.=.=.:.<.:.<.>.>.>.=.;.:.;.;.;.:.:.*.*.*.=.;.*.;.=.*.*.>.1.1.=.=.=.:.:.=.;.:.*.*.=.:.:.:.*.",
";.=.<.*.=.*.*.>.1.=.<.>.=.,.,.;.=.=.:.;.;.=.:.:.;.;.;.=.*.;.;.;.=.*.*.=.;.;.=.=.*.*.=.>.,.:.=.:.1.>.,.,.>.=.*.=.;.:.:.;.",
";.=.;.*.=.=.=.=.>.=.=.=.=.;.=.=.=.=.=.;.:.:.=.:.;.=.;.*.=.=.:.;.=.;.;.;.;.=.;.;.=.=.=.;.=.*.=.=.>.=.:.>.;.=.:.=.-.>.:.;.",
";.;.;.=.=.=.=.=.=.*.=.=.=.;.*.=.=.=.=.=.=.=.;.=.>.,.,.:.>.;.;.:.<.;.=.=.*.;.<.:.,.;.:.,.;.*.=.=.=.:.:.:.=.=.=.*.=.;.*.*.",
";.=.;.=.=.=.=.=.*.=.=.=.;.;.;.;.=.=.=.>.:.=.=.=.:.,.,.>.>.;.;.;.,.;.;.*.*.=.=.:.>.:.:.>.:.=.=.=.*.=.;.;.=.;.*.*.=.*.*.*.",
",.=.;.,.:.>.;.=.:.>.>.>.:.<.:.>.=.=.*.:.>.:.,.=.=.:.:.:.=.;.;.=.;.;.=.=.=.=.;.:.;.:.:.:.=.*.=.=.>.;.=.=.,.1.,.;.,.*.*.=.",
"2.>.:.<.:.:.:.;.<.<.>.,.;.>.;.;.=.*.*.*.=.;.>.:.:.=.>.,.;.=.:.;.:.:.:.:.;.=.=.>.>.;.;.;.=.*.:.<.<.;.=.;.>.>.:.;.>.=.*.*.",
">.;.;.>.:.;.=.=.:.:.;.;.;.=.=.*.*.=.*.=.;.=.=.;.=.=.=.=.=.;.>.:.=.:.,.>.=.=.=.,.,.;.:.;.:.:.=.>.>.;.=.*.*.=.;.;.*.=.*.*.",
";.=.;.1.;.;.;.;.:.:.;.;.;.;.=.=.=.=.=.>.=.:.;.;.;.=.;.=.>.1.1.>.=.=.:.>.:.:.=.:.:.;.;.;.:.:.*.*.=.=.=.=.*.=.=.=.*.*.;.;.",
"=.=.;.*.;.;.;.;.:.:.;.*.=.>.>.=.*.*.;.<.;.<.=.;.,.:.=.=.=.>.=.=.=.=.=.:.:.=.:.:.:.;.:.:.;.=.;.;.=.=.=.>.>.>.>.;.;.*.:.,.",
"=.*.*.*.;.:.:.<.>.>.;.=.=.=.=.=.*.=.=.;.=.:.=.=.;.;.=.=.&.*.*.*.=.:.;.=.:.:.:.:.:.:.>.=.=.;.<.>.=.:.=.>.,.>.;.>.;.;.:.>.",
"=.=.;.;.;.;.:.>.>.:.;.=.*.=.;.>.;.=.=.=.=.:.:.=.=.*.=.>.=.>.>.>.>.;.:.,.:.>.:.>.<.>.>.;.=.;.<.>.:.>.;.:.;.;.;.;.;.;.;.;.",
":.:.1.,.>.=.;.=.*.=.=.*.=.:.1.1.<.:.=.=.>.>.:.=.;.=.=.>.;.;.:.:.:.=.:.,.>.,.:.:.;.;.;.;.;.;.=.=.;.>.;.:.;.,.;.*.:.;.;.;.",
"=.:.>.>.>.;.;.*.*.*.=.=.=.:.:.:.:.=.=.=.>.>.:.;.;.;.;.=.*.;.:.-.=.:.:.:.=.:.;.=.*.;.=.;.=.=.*.;.;.*.*.*.*.*.;.;.;.:.;.;.",
"=.=.=.=.;.;.;.=.*.=.=.=.=.*.-.;.=.=.=.=.=.=.;.=.;.=.*.=.;.:.;.;.*.=.;.;.=.=.;.=.*.>.1.>.=.=.=.=.;.;.=.*.=.*.;.;.:.:.;.:.",
"=.;.:.;.=.:.;.;.=.=.=.=.=.=.:.-.=.=.=.=.=.=.:.:.;.=.*.=.;.;.;.;.=.=.;.=.=.=.=.*.*.;.;.=.*.*.*.=.,.,.=.;.,.;.=.,.:.;.;.;.",
";.:.;.>.>.:.:.;.;.:.>.;.;.:.>.-.=.:.=.:.;.;.>.,.:.;.;.:.;.;.-.;.:.;.;.=.*.=.:.:.;.;.*.*.;.;.-.-.*.*.*.*.<.;.;.<.>.;.;.;.",
";.;.:.>.:.;.;.;.;.:.>.-.;.;.;.;.>.>.>.:.:.:.:.:.;.;.:.<.:.;.;.;.>.=.*.:.;.*.:.:.;.=.=.=.<.:.*.*.*.*.>.;.>.;.-.:.:.;.=.;.",
";.;.=.=.:.;.<.:.;.;.;.;.;.;.;.;.,.>.<.:.;.>.;.*.;.,.:.:.:.:.;.;.*.;.*.:.:.=.;.>.:.:.>.*.;.;.;.;.*.*.<.>.1.,.*.;.<.;.=.=.",
";.;.;.;.:.:.:.:.:.;.:.:.;.;.;.:.:.:.:.:.-.;.;.-.;.<.:.:.:.:.;.;.;.;.;.=.;.;.;.>.>.;.;.;.;.;.;.;.*.;.;.*.;.;.;.;.:.-.;.;."
};
