/* XPM */
static char *___1_1737746453[] = {
/* columns rows colors chars-per-pixel */
"60 60 139 2 ",
"   c #32621E",
".  c #336520",
"X  c #356821",
"o  c #3C6F29",
"O  c #3D7122",
"+  c #3D7028",
"@  c #43742E",
"#  c #4C7F2F",
"$  c #59722F",
"%  c #517C2C",
"&  c #477A31",
"*  c #4C7E35",
"=  c #7F7F43",
"-  c #F77A35",
";  c #F77B38",
":  c #FA7A3D",
">  c #4E8335",
",  c #52843C",
"<  c #5F933E",
"1  c #628F39",
"2  c #71A62C",
"3  c #76AB2D",
"4  c #79AD2F",
"5  c #75A932",
"6  c #7BAF30",
"7  c #75A83E",
"8  c #7BAE3F",
"9  c #7DB032",
"0  c #7FB13B",
"q  c #5D8D45",
"w  c #5F8F48",
"e  c #699B45",
"r  c #64934C",
"t  c #6C9E49",
"y  c #699752",
"u  c #6C9956",
"i  c #75A644",
"p  c #79AA42",
"a  c #76A64C",
"s  c #7AA94C",
"d  c #72A255",
"f  c #75A25A",
"g  c #7DA85A",
"h  c #7FAB64",
"j  c #BA9E3E",
"k  c #8DA735",
"l  c #82AB33",
"z  c #99A436",
"x  c #9CA63D",
"c  c #92AB3B",
"v  c #9DA83D",
"b  c #83B334",
"n  c #89B537",
"m  c #83B13C",
"M  c #8BB638",
"N  c #8DB83A",
"B  c #99B53E",
"V  c #92BB3C",
"C  c #93AF40",
"Z  c #9EAC45",
"A  c #88B646",
"S  c #84B34B",
"D  c #8BB64E",
"F  c #96B043",
"G  c #9BB144",
"H  c #83B156",
"J  c #85B25C",
"K  c #8AB35D",
"L  c #95BC57",
"P  c #A2A944",
"I  c #ABA844",
"U  c #AFA848",
"Y  c #B1A548",
"T  c #A2B443",
"R  c #ACB84E",
"E  c #B6AD53",
"W  c #B9AD57",
"Q  c #B3B259",
"!  c #AC9B64",
"~  c #86B066",
"^  c #8BB26F",
"/  c #98BF67",
"(  c #C39E43",
")  c #D39344",
"_  c #DD9750",
"`  c #DB9E5A",
"'  c #F58442",
"]  c #FB8545",
"[  c #F28B44",
"{  c #FC854B",
"}  c #F6924F",
"|  c #F8914C",
" . c #FC8D53",
".. c #F58F59",
"X. c #E29650",
"o. c #F79150",
"O. c #FA9155",
"+. c #F99A55",
"@. c #FB945C",
"#. c #FC995D",
"$. c #CBA755",
"%. c #C0A05B",
"&. c #C5AC58",
"*. c #CAAC5A",
"=. c #F9A15E",
"-. c #FB9C64",
";. c #FD9C69",
":. c #D5AB64",
">. c #DBAB64",
",. c #CDB264",
"<. c #CDB668",
"1. c #DBB670",
"2. c #EEA160",
"3. c #E7A66E",
"4. c #FAA364",
"5. c #F7A966",
"6. c #FBA46B",
"7. c #F6AC6A",
"8. c #F9AC6C",
"9. c #EBB06C",
"0. c #F8B16E",
"q. c #E9AB71",
"w. c #F8A472",
"e. c #FAAC74",
"r. c #F4AE7D",
"t. c #FDAA78",
"y. c #EEB174",
"u. c #E8BA79",
"i. c #F3B177",
"p. c #F9B374",
"a. c #F6B37F",
"s. c #FAB37C",
"d. c #F9B97C",
"f. c #9BC055",
"g. c #FAB782",
"h. c #FABC84",
"j. c #FEB789",
"k. c #FBBD8A",
"l. c #A0C287",
/* pixels */
"4 4 4 6 6 6 6 4 9 3 9 9 9 9 9 6 3 3 6 9 9 9 9 9 9 9 6 4 4 6 6 9 b 9 3 4 6 b 4 9 N 3 4 3 9 V N 9 V 9 6 9 b 9 4 9 6 4 6 6 ",
"4 4 b 6 n 6 6 9 9 4 3 3 9 b 9 n 9 3 9 9 n 9 4 4 9 9 n b b 6 6 6 N N 3 4 6 N 9 6 b 4 3 3 4 N n 9 N b 9 b N 9 4 4 4 4 6 n ",
"3 b N 6 V 6 n b 4 3 3 3 3 n n n b 9 3 9 n 9 9 9 9 9 f.N V 6 6 6 6 b 6 4 3 6 6 6 4 4 3 4 4 9 9 9 9 9 9 9 9 9 9 9 6 6 9 N ",
"4 b n 6 b 4 4 4 3 3 3 3 3 9 4 3 4 9 9 9 9 4 9 9 9 9 4 6 9 3 3 6 9 6 6 6 6 3 6 6 4 4 4 6 4 4 9 9 9 6 6 9 9 9 4 4 6 6 9 9 ",
"9 4 9 9 4 4 4 4 3 3 3 3 6 9 4 3 4 9 9 9 9 4 4 9 9 9 b b 9 9 6 6 6 6 6 4 6 3 3 4 4 4 4 4 4 6 6 9 9 9 4 4 9 9 9 9 9 b 9 9 ",
"9 9 4 9 4 4 n n b n 3 3 3 3 4 b 9 4 b b 4 4 n 9 6 4 b N n n 4 6 n b 6 6 6 6 3 9 b 9 n b 6 6 9 9 9 b 6 3 9 9 9 9 n V 6 6 ",
"9 4 4 9 6 6 9 b 9 b 3 3 3 3 6 9 M 9 n n 4 3 b 9 3 3 6 9 3 6 3 6 9 6 6 9 n 9 9 9 n 6 n 9 4 4 4 4 n V 9 f.n 9 4 9 6 b 6 6 ",
"4 4 4 6 4 4 4 4 3 3 3 9 9 9 9 3 4 9 9 4 4 4 4 9 3 3 3 3 3 4 6 4 3 6 6 6 F n 6 4 4 4 4 6 6 6 6 9 b M 9 b b 9 3 3 6 6 6 6 ",
"4 4 9 9 9 9 9 4 3 4 9 4 9 9 6 9 3 4 6 6 4 4 4 4 4 3 3 3 3 4 4 4 6 3 6 6 b 6 6 9 9 9 b n V b 3 9 9 9 9 9 9 6 3 3 3 b 9 6 ",
"9 4 N N N N 9 9 3 b n 4 9 3 3 4 6 M b 4 3 4 4 3 3 3 4 3 3 3 4 b 9 3 6 6 6 3 4 4 3 3 b b b 9 9 3 9 9 9 9 6 4 3 3 3 V b 9 ",
"6 4 b n 9 9 9 4 4 9 9 3 3 3 3 3 6 M 6 3 3 6 n b b 3 4 4 3 4 4 b 3 3 3 6 3 3 3 3 6 3 3 6 9 3 3 3 M 9 b b 3 b 9 4 6 6 6 9 ",
"9 9 6 4 4 9 9 9 9 9 4 4 3 3 3 3 3 3 4 3 3 b V n N 4 4 4 b 9 3 3 3 3 9 n 4 3 b b 3 9 9 9 3 9 3 6 M 9 9 N 6 n 9 3 3 3 3 6 ",
"9 9 6 3 9 9 9 9 9 4 4 9 9 3 3 3 3 3 4 6 6 6 b 6 b 4 4 4 V b 3 3 3 4 9 V 9 3 n n 3 9 N 9 9 4 9 4 9 4 3 9 3 9 3 3 3 3 3 3 ",
"9 4 9 4 b N 9 b N 9 9 9 n 3 9 4 6 4 4 9 4 3 3 3 3 6 4 4 9 4 3 3 4 3 3 n 9 3 4 4 3 4 6 6 3 9 n 3 4 4 3 3 3 3 3 3 3 3 3 4 ",
"3 3 3 3 9 b 9 9 b 9 4 9 9 6 6 9 N b b b 3 3 b b 4 4 4 4 4 4 9 3 4 4 3 4 6 6 9 4 3 3 3 9 4 9 M 9 9 9 9 3 3 4 6 6 b b 9 9 ",
"3 3 3 4 9 9 9 9 9 4 4 9 6 9 3 6 b 4 b n 3 3 b M 4 4 3 4 4 4 4 4 4 3 4 3 3 4 p 6 3 6 6 6 6 3 4 9 4 9 9 6 3 9 9 9 V V N n ",
"4 4 4 4 4 4 4 4 4 3 3 6 9 9 4 4 6 9 3 4 6 4 4 4 3 3 6 6 4 4 4 4 6 0 6 3 3 S l./ 3 9 9 9 9 9 4 3 4 b N 4 9 9 9 9 n 6 6 9 ",
"4 4 9 9 4 9 9 4 4 9 4 9 b 9 9 3 9 4 3 3 6 6 6 6 6 6 N 9 6 N 9 b L ^ s 3 m g h / 9 n N 9 N 9 9 9 4 9 n 9 b N 9 9 6 4 b 9 ",
"3 3 n n 3 b V 3 b N 3 9 V b f.4 4 9 M b 6 6 6 6 4 6 V 9 9 b b 4 K u d 6 i r f D 8 S A 6 9 9 4 9 9 4 9 9 9 n 9 9 9 6 M n ",
"3 4 b b 4 4 b 3 b 9 4 4 n b 9 9 9 9 V n 6 4 9 6 4 6 6 4 9 6 9 9 a y f p e y ~ i t h / 9 9 4 4 4 9 4 9 9 9 9 9 9 6 6 9 4 ",
"4 4 4 4 4 4 4 6 4 4 4 4 9 9 9 b 9 4 9 9 9 9 6 6 4 9 4 4 n N 6 6 7 q y a r f f > , g f.9 9 N 9 9 4 9 4 9 9 b 9 9 4 6 6 4 ",
"9 9 4 4 4 4 6 4 3 4 6 4 3 9 n N 9 6 6 6 6 6 6 6 9 9 9 4 b b 4 4 5 , * q w r , > e A n 4 4 n 9 4 4 4 4 4 4 4 4 4 4 4 4 4 ",
"9 b 9 4 4 4 4 6 4 9 b 9 9 9 9 b 9 4 6 9 9 9 9 9 9 9 9 4 l I $.&.Z 1 o @ , * & < i p 8 9 4 4 4 4 4 4 4 4 3 2 4 3 3 4 4 n ",
"4 N b 9 9 n 9 9 4 b n 4 3 9 9 9 9 6 9 9 N V 9 6 4 3 n G >.4.=.=.7.%.$ . o + & q w q r H 4 4 4 9 9 4 4 3 3 n b n 6 3 6 n ",
"3 9 9 4 b N 6 4 4 4 6 4 4 n 9 b b 9 9 b 9 4 4 6 9 4 R 9.5.#.-.=.5.5.X.= .   . X & > q J 9 4 4 n n 4 9 4 9 N b b 4 6 4 9 ",
"4 4 4 9 4 9 9 9 6 4 4 4 9 V b V n 9 9 V b 4 4 4 4 B u.d.5.4.4.5.4.4.8.g.! % O O # < i m n 4 4 b 9 4 4 4 4 4 9 4 4 9 4 4 ",
"3 9 6 b 6 4 4 9 4 6 4 4 6 b 6 b 9 9 9 b 4 3 3 b B 1.g.d.p.7.7.p.0.4.=.e.j.,.2 2 3 M n 9 V 9 4 4 4 4 4 9 4 b n 9 6 4 4 4 ",
"3 6 4 b M b n 4 4 b N 6 6 4 3 3 9 9 6 4 3 3 4 6 ,.k.h.d.p.8.p.p.8.=.4.6.t.r.C 5 6 9 9 4 6 6 4 4 4 9 4 4 4 N A N b 3 4 N ",
"4 4 4 l n b n 3 4 9 b 4 3 3 3 3 4 4 9 4 3 4 3 P a.h.h.d.d.p.7.8.4.4.4.-.4.t.Q 4 6 6 5 6 4 n 6 4 4 4 3 4 3 6 b 6 4 3 3 b ",
"4 4 4 3 4 3 4 4 4 4 4 4 9 9 3 4 4 4 4 4 9 4 l >.p.d.h.h.d.0.p.p.6.6.;.#.O.6.W 4 9 6 3 3 6 N 9 4 3 3 9 3 4 b 4 3 4 3 2 3 ",
"4 b 9 4 4 4 9 3 9 b 4 4 3 9 n 9 4 n 4 4 9 4 E e.i.p.d.k.h.d.d.8.6.;.;. . .@.Z 2 3 6 9 6 4 4 4 6 4 4 V 9 9 V 9 6 9 n 3 3 ",
"4 N n 3 4 4 M 4 6 n 9 9 3 3 N b b V 3 3 9 T y.e.a.h.h.h.h.h.0.=.4.-.@. . .` l 3 b 6 3 3 4 9 6 6 6 4 b 6 9 b 6 3 3 n 4 3 ",
"4 b b 4 4 4 4 4 4 9 9 4 4 4 9 4 9 9 6 3 9 <.s.w.g.k.k.k.d.p.6.-.-.@.{ ] X.c N b N 6 2 3 3 n 4 4 6 3 3 3 4 9 6 3 3 3 3 2 ",
"4 9 3 4 9 3 4 4 4 l 4 3 4 4 4 4 9 3 3 6 G i.e.t.g.s.g.t.w.6.6.-.O.] ] ) k 3 b 9 4 3 3 4 3 4 4 4 9 3 3 9 4 4 9 3 3 3 3 3 ",
"9 4 4 3 4 3 3 4 4 9 4 4 4 4 4 4 3 9 9 6 *.4.-.-.w.6.-.6.6.6.;...] [ j l 3 4 3 3 3 4 4 4 4 4 4 4 3 9 3 3 b n 9 9 9 4 3 3 ",
"3 b 4 3 3 3 9 4 3 9 9 n 9 4 4 4 9 9 9 c 2.+.} o.O.} } -.;.;.;...) z 4 3 4 4 4 4 6 6 4 b b 4 4 b 9 9 9 3 n M 9 N n 3 3 3 ",
"3 n b 3 3 b 9 3 9 N 9 N 9 4 4 4 9 M V E -.| ' : '  .o. .;.w.:.x 4 3 3 4 6 6 3 4 M b 4 N n 6 6 N 9 4 9 3 4 4 3 b 9 3 3 3 ",
"4 4 3 4 9 V 9 4 3 4 4 6 4 9 9 4 9 n N :.-.' - : { O.-.@.` P 6 9 6 4 4 6 l 6 9 6 6 4 3 4 6 6 6 6 6 3 6 3 4 9 9 9 3 3 9 3 ",
"4 3 3 3 3 b 3 3 3 4 4 n b V b 9 l 9 N q. .; - : { ;.3.E l 6 6 6 6 6 4 6 N 9 4 4 4 4 6 4 4 4 6 6 6 9 9 4 9 9 4 4 4 3 9 3 ",
"n 9 4 3 3 4 3 3 4 4 4 N n N b 9 6 6 m 3. .: : ' _ Y G b b N 6 6 N N 6 6 9 6 6 4 4 b N 6 4 4 6 6 9 9 3 3 6 9 3 3 3 3 3 4 ",
"N 6 3 3 4 4 4 4 4 4 4 4 9 6 6 6 9 b 6 U _ ) ( v 6 4 n 9 M M 6 6 V 9 3 3 3 3 9 9 4 l N 4 4 3 4 b 9 b 3 3 9 9 9 3 3 3 6 9 ",
"4 3 4 3 6 9 4 n 9 4 4 b 9 4 4 6 9 N 6 N M 6 N 6 4 3 9 9 4 3 3 6 4 4 3 3 3 3 3 9 3 3 3 3 3 3 b V N N 6 3 3 9 9 9 9 6 9 9 ",
"4 3 3 6 V 9 6 V b 4 6 V b 6 4 6 6 6 6 6 6 6 6 6 9 4 9 9 3 3 9 4 9 9 4 4 3 3 4 9 4 4 4 3 3 4 4 4 b b 9 4 3 M n M M b M 9 ",
"4 4 4 6 N 9 4 9 4 4 4 9 4 4 4 4 6 3 6 6 6 6 6 6 9 4 4 4 3 9 3 9 4 9 4 4 4 9 4 4 4 4 4 9 4 4 6 4 9 4 3 4 3 b b 9 9 b n 3 ",
"4 4 4 3 4 3 3 4 4 4 4 4 4 4 4 4 3 6 6 6 9 4 4 6 9 9 9 9 4 9 6 9 9 9 b 9 4 4 4 4 4 N 9 n b 4 4 b 9 3 2 3 3 6 6 6 9 9 9 4 ",
"4 3 6 3 3 3 3 4 4 4 6 6 4 4 4 3 3 6 9 6 6 6 6 6 b V M n n n 9 4 9 9 V 9 4 4 3 3 3 b 9 M n 9 4 n M 9 3 4 3 6 3 9 9 9 9 3 ",
"4 4 6 6 3 4 6 6 6 6 6 6 4 9 4 3 3 3 n n 3 6 6 6 6 n b b 9 9 9 4 4 6 b 4 6 4 3 3 3 4 4 9 4 9 9 b 9 9 3 6 6 3 3 6 6 6 6 9 ",
"b b 6 6 4 N 9 b b 6 N n 9 N 4 4 6 3 6 n 6 9 n 6 3 6 9 9 9 3 9 4 4 4 9 4 6 6 3 4 4 4 9 9 9 9 4 9 9 3 3 3 6 9 9 6 6 6 9 V ",
"b 9 6 9 6 V n n M 9 9 b 4 9 6 3 3 3 3 4 4 b n 6 6 6 4 M b 4 4 9 9 9 9 9 9 9 4 9 4 4 9 b 9 9 4 9 9 4 3 4 N n N 4 6 6 9 n ",
"6 6 6 4 6 b 9 9 9 9 9 3 3 3 3 3 3 3 3 6 4 3 4 4 6 4 4 b 6 4 4 9 9 4 6 4 b M 4 4 4 4 9 V b 9 9 4 4 9 9 4 n 9 b 9 6 3 3 3 ",
"6 6 4 6 4 6 6 6 4 9 4 4 6 3 3 9 9 4 3 4 6 6 6 6 4 4 4 4 4 6 n b N 9 4 4 9 V 9 6 9 4 9 9 9 9 9 9 9 9 9 3 3 4 4 4 3 3 3 6 ",
"6 6 9 9 9 9 9 9 9 4 4 9 9 3 6 3 6 6 N 6 9 9 4 9 9 6 4 4 4 6 V n N 9 4 3 4 b 9 9 4 9 9 9 9 4 4 4 4 9 4 4 3 4 4 4 3 6 4 4 ",
"6 6 6 9 9 9 9 9 4 4 4 N 9 4 3 3 3 9 N 4 n b 3 6 M n 4 4 4 3 9 3 3 4 4 4 4 9 9 4 4 9 9 9 9 9 9 9 9 4 4 9 4 4 4 4 3 b n M ",
"6 6 6 n 9 n 9 6 4 4 4 4 6 3 3 3 3 4 6 4 9 6 4 4 6 l 4 3 3 3 3 3 4 3 9 9 9 4 9 9 9 9 9 9 9 9 9 9 4 4 4 N n 4 4 4 6 9 N b ",
"6 6 6 M b N 6 4 4 3 4 4 6 9 6 3 4 4 6 9 9 9 4 4 4 3 4 4 4 4 4 n 9 9 9 4 9 9 n 4 b 9 9 N n 9 N 4 3 4 9 M N 9 b 9 3 9 9 3 ",
"6 6 9 9 6 4 4 6 4 3 3 b b V n n 4 4 3 4 9 9 9 4 4 4 4 4 V 4 9 V 9 n b 9 9 b V 9 M M 9 M b 9 b 6 4 4 4 9 9 4 n M 9 9 9 9 ",
"3 4 6 3 3 3 4 4 3 3 4 9 N b b b 4 4 9 9 V 9 9 6 9 6 6 3 b 3 3 4 4 3 4 9 6 9 n 3 9 9 6 3 4 4 3 3 4 9 4 4 3 9 9 3 6 3 3 4 ",
"6 4 6 4 3 3 3 4 4 4 3 6 9 6 9 9 3 4 4 9 b 9 9 4 4 9 6 9 4 4 3 4 9 3 3 9 9 9 6 3 6 6 3 3 4 6 l b 9 4 3 3 3 9 3 3 3 3 3 3 ",
"6 4 9 4 3 3 4 3 4 6 4 3 3 4 6 3 3 4 3 3 9 3 4 4 4 4 3 3 4 4 9 9 9 9 3 3 9 9 9 4 6 3 6 3 3 b N V 9 4 4 4 9 3 9 9 6 3 4 6 ",
"6 9 9 6 4 4 4 4 6 3 4 3 4 3 3 4 9 4 4 4 3 3 9 4 9 4 2 3 4 4 9 4 4 4 3 3 3 9 3 4 4 6 3 3 4 4 6 4 3 4 4 4 3 9 N b 3 9 9 b "
};
