/* XPM */
static char *_1737746452[] = {
/* columns rows colors chars-per-pixel */
"60 60 152 2 ",
"   c #78AD2F",
".  c #79AE2F",
"X  c #7AAE30",
"o  c #7BAF30",
"O  c #7BAF31",
"+  c #79AD2F",
"@  c #80B133",
"#  c #7CAF31",
"$  c #7DB032",
"%  c #7DB031",
"&  c #77AB2E",
"*  c #78AC2E",
"=  c #7AAF30",
"-  c #77AC2E",
";  c #7BAD2F",
":  c #83B234",
">  c #78AD2E",
",  c #7CB031",
"<  c #7DAF31",
"1  c #81B233",
"2  c #74A92C",
"3  c #76AB2D",
"4  c #88B637",
"5  c #82B334",
"6  c #8BB738",
"7  c #7BAE30",
"8  c #81B133",
"9  c #8BB739",
"0  c #75AA2C",
"q  c #7FB132",
"w  c #87B536",
"e  c #84B335",
"r  c #77AB2D",
"t  c #84B234",
"y  c #89B637",
"u  c #7EB132",
"i  c #7DB132",
"p  c #7EAF31",
"a  c #8EB83A",
"s  c #8AB638",
"d  c #7EB032",
"f  c #89B638",
"g  c #7AAD2F",
"h  c #7EB031",
"j  c #85B335",
"k  c #83B334",
"l  c #88B537",
"z  c #80B233",
"x  c #86B435",
"c  c #7CAE30",
"v  c #81B234",
"b  c #89B536",
"n  c #7BB031",
"m  c #83B335",
"M  c #85B436",
"N  c #7FB233",
"B  c #84B334",
"V  c #74AA2C",
"C  c #75AB2D",
"Z  c #81B334",
"A  c #82B234",
"S  c #90BA3C",
"D  c #86B536",
"F  c #8BB638",
"G  c #7FB032",
"H  c #8CB739",
"J  c #8DB93A",
"K  c #86B436",
"L  c #87B436",
"P  c #8FB83A",
"I  c #80B234",
"U  c #7AAE2F",
"Y  c #7CAF30",
"T  c #89B537",
"R  c #88B436",
"E  c #8EB93B",
"W  c #87B738",
"Q  c #87B537",
"!  c #85B435",
"~  c #82B233",
"^  c #8AB537",
"/  c #80B334",
"(  c #84B435",
")  c #8DB83A",
"_  c #75AA2D",
"`  c #7CB032",
"'  c #77AD2E",
"]  c #8DB739",
"[  c #8AB739",
"{  c #79AE30",
"}  c #80B032",
"|  c #79AC2E",
" . c #90BA3B",
".. c #8FBA3B",
"X. c #82B435",
"o. c #8CB93A",
"O. c #85B536",
"+. c #80B132",
"@. c #8FB93B",
"#. c #79AC2F",
"$. c #8DB839",
"%. c #8FB93A",
"&. c #8CB83A",
"*. c #76AB2E",
"=. c #83B435",
"-. c #8AB637",
";. c #82B133",
":. c #7BAD30",
">. c #92BA3C",
",. c #8CB839",
"<. c #90B93A",
"1. c #8DB738",
"2. c #76AA2D",
"3. c #84B536",
"4. c #8BB637",
"5. c #7FB133",
"6. c #88B536",
"7. c #8AB738",
"8. c #82B335",
"9. c #7EB233",
"0. c #7FAF31",
"q. c #89B739",
"w. c #90B93B",
"e. c #7EB232",
"r. c #87B637",
"t. c #91BA3C",
"y. c #7FB031",
"u. c #8EB93A",
"i. c #86B335",
"p. c #87B435",
"a. c #86B334",
"s. c #7DAF30",
"d. c #83B233",
"f. c #77AA2D",
"g. c #73A92C",
"h. c #78AB2E",
"j. c #89B738",
"k. c #8EBA3B",
"l. c #8CB638",
"z. c #8BB839",
"x. c #81B032",
"c. c #92BB3D",
"v. c #86B537",
"b. c #88B638",
"n. c #84B436",
"m. c #7DAE31",
"M. c #7AAC2E",
"N. c #76AC2E",
"B. c #8EB739",
"V. c #73A92B",
"C. c #72A82B",
"Z. c white",
/* pixels */
"  . . . X X X o O O + @ # . X o $ %   . . X . . + & * X X X =   * - X + + ; : .   >   , , * < 1 & 2 2 3 + + . O , o = , ",
"  + X % , % , = o X + 4 @ . X , 5 6 o X .   7 8 o X + 9 1   0 - + q w o , < @ . 7 + . o - 3 q e . . r t % . . X y u i i ",
". * p a s d . + X = o , + # f O O 7 # X g - h j X % , 5 q X -     < k i , + X   l e 6 z > x z o , % . x %   X X 8 * . O ",
"+ - + @ c g * % w X X , o o v + * 1 6 % b * > X n O i O O X + + + 7 X = X + , X m v M N X B d   + s # . . * + . - - c g ",
"+ + * V C = . % 6 o X 1 # + o X = u 5 i # .   = k Z q o u = 2 - A S s @ X m D   o o X = o >     * p # X X - @ M X . F G ",
"- c d p 3 X   > X O + l q X = O n o , , q D .   H J 9 5 f o +   7 K L q   < h * o n = X O X X X   3 3 p x + # < . - # o ",
"* P s L - X X X X . + . - X O O X . X   < k X X v Z i N v , $   3 * + + * < - - X I % 7 $ = > . X X X + X X + - > -   - ",
"U D z X   * X # % = . X + X O u Y < 3 = i $ o O n u < o o o @ T - + @ t g R * -   E W Q y = Z K = o = + # 7 @ #   # X + ",
"* X o o   8 ! B K 8 ~   - 3 - ^ j 6 O X N f o , i 4 S E i + # Q U + # 8 . g   -   I / N 5 i z v O O X X ! j 9 ( , ) G = ",
"C 3 + U + z 4 @ q c 7 - & _ - G # # , , , % , i , z 5 z   + , , , X   + o . > X X = , , o o , i O X X = % 7 # % X 7 + X ",
". # l G x o , , + o + X + - + . + + o $ O = X , i i ! z d + X $ n . + > X X X o X X , i , X = , O = N 5 ` u ! o + . o = ",
"+ # z 7 d o o o . A l e G 3 0   7 w , Q m ' A m   X ] j e . v x + , # + i ! A l . . o , [ z Z / i n m 9 . d e o = O , , ",
", i , {   . + = X o # o .   X O X } % z u - O # 3 3 | 0   + + g   1  .O X p 7 d   + o i ..X.o.O.. + , % X , , O O o X n ",
"o u u o . + X O h X * 0 + o , , O 3   = .   + +   - 3 3 > + +   . $ D X , , X e l ! X i u $ % i X - + +.O u i X d , % G ",
"K l k w = X H f @.u O + Q # . . X U l q - > U   - - * 3 3 7 t & o o + - . X X ! k 1 + . i $ , . 3 3 #.$.h ] d X %.5 A l ",
"q @ # % X o 5 5 z $ , o $ + & - - - : # -   l j ~ > . > * + ; 3 X X - - U + .   . + C G j 5 Q 7 L +   7 + ! X + : # X o ",
"  + - + O , X X o i n = X + & 0 3 0 _   + X 4 L L >   T A - C > % f * G T . q K + X   < @ Y A o v * _ - 3 > - > X o o o ",
"+ =   X O , X X Q u A K o d j - . + + o X . + > X . * A < 3 3 - 7 &.g 7 p *.Y +.. # @     - -   - 3 * - 3 > >       X . ",
". . > - - 3 - + Q u I =., o d X o M K G G - 7 A . + > . X X + . - U X . > - - . X h -.U , = 3 - * + A @ % @ o * C q 5 . ",
"- 7 t ;.| -   = o , , o + = O O . u q 1 A - :.L   > * . > . * +   C - *.- > + O X > X . % e + X n u >.,.Q &.7 - * L ! 3 ",
"3 # <.1.< . . X . X +   - X i o + O o   + . . + - 7 % . d X h X   0 ; > < X ( Z m d =   # @.# v z i @ # , X V . o r - V ",
"= . c + 2.- x p + L + B < 7 ) 3.K * X q o = O O + ! F X H d K < - | 4.:.$.% l z 5 z n o X 5., w ! n n # y X > U 6.U - 3 ",
"O = + 3 2 > L 8   L + j 7 + 7.=.8., u S Z = o X . $ h X % , , X o o 8 + c * + X X . . X X o i $ u u i o @ + - * k o   - ",
"  * *   + O o . . X {   + . O $ 5 u O N 9., o = o o - : 7.= o - X = . 3 8 h M Q = 7.q X . X o u u o . . X   - X O = X   ",
"- 3 - , i i X   > X X   o X X , J 5 X = , o X o O i o d 5     X X X 3 V 0.q A 8   : < + . + X . { . * * X % . , O o O + ",
"> + @ # . K @ . 7 , n o l 5.X = i i o n u q.z , , o % + = X O u , ` . + + 8 o O + - + + X   3 * g < +   q ..X X @ 6.X - ",
"- G w.X 3 k @ o ,.1 - > h U + v $ 5.e.N u ( % o X 1 E , o O ( 7., , o X X L 2.3 o X X 6.# X - ;.T T X + # r.+ 3 % 1 X - ",
"- + % + + + X , u , o + . . < t.O...i Z ,.o - # # # ( i O X % d X > j < . * d 7 m # + j O X X 7 # # X n . =   + X = , . ",
"- 3 - * & X O @ 7 , n X % X U @ % 5 i % z - C y.x . { o U X , = > > 7 o + X u.d l @ + . + . o o f k d   7 d * . X , , X ",
"@ 7 < & _ X = 6 j y . X F d . - 3   , , * - - X 7 - h # - i.@ . X = = o   o $ . X o X + X   + + $.w ;.V @ 7.> X q o % p.",
"l d R < - . = < c G X . 7 . . * - - > X   X   _ 3 - e c - # , o o o , X X O * * X s %   - & 0 + % > - _ 3 u = q w.. + @ ",
".   * + . # X - - * - d < . X % A X 8 g . 7 - - > 3 - -   . X = . X X - 2 > o X . < X + - F c K M = # ;.3   X 7 e X = , ",
"8 +.%   . 9 M + 3 a.s.8 ~ X > % H % u.g 3 t Y   > * . @ < d.> $ 5.*   ; | 8 X - * h 7 = . A # 5.N - + i.r 3 X X = O O o ",
"b t 8 > . 1 G * - 7 7 X , X > . O , % + + , o X = , u 7.+.R X q j 3 - B L l f.2 & : 7 + . - . . = C _ 3 _ 0   X , O ( 5.",
"+ *   X X X & - X X . o O   > +   + . + o , i , o , = 0 > o 0 - 0 g.> X 7 3 _ >   -   + X > X $ O + X . 3 c i.X , o e d ",
"A 7.4 $ + h + 3 - X > * O q # X > + , % = = , o X K < 3 K A - & 3 3       X U 7 % X X d = . * $.5 D !   3 h.} 3 - 3 * . ",
"@ 6 Q 7 *.j < > c # *.@ k s q   . = O...$ r.9.u O l h * c U > * -   { + * 6.q @ 7.o $ y o X 3 0.7 5 @ 3 0 3 - > - > > X ",
"* U = = - . * - T : 0 - X # # u O = ( j./ k.u X X X   3 - o o X > # @ = X < + * Y o i O   X . X O = + . + > X . + X + + ",
"+ * X X , + - - # + 3 *   ( f t.Z i i u , , . >   @ m 7 v O % M + 8 j . . . , $ > + o X o n . , O   - - * r 8 < }   + + ",
"X   -   w G - - +   - .   % v 5 $ , % X 7 X # +   e j.D ,.. j ) > * + o O . Q M > + X # i *   X U - - > . > l.: s % T 7 ",
"    c . # + - * # X @ O . % O . . o F d F d K A > o i < 7 . % % 3 0 3 + n - :.g 3 3 ! 7.u.o > X d # # = , - 2.X # i m * ",
"  g ^ *   - 3 j 7.= a G . y m X . X < o < o # , o . O + - o = o . - - * o X   - 3 3 < @ Q ,   Y H ( T D O.- - + - u q . ",
"= + c *   + - < :   7     7 7   . + . X , O = o = + X - . . , , X X X o + + # X + > = . . - - g ~ Y < ( 5.* o * - e x - ",
"O X . + + *   & * 3   . + X *     * . X . o X = 5 M M +.A o O u 6.% . - - X -.1 z.O , l # 0 * + + = i i X   . 3 3 + #._ ",
"X   X .     o + -   . + o o . X - -   e } - + + A 6 r.k B o . 7 6.# X 3 & > 7 , v i , Q $ + + * * = n = 7 7 * 3 - - 3 3 ",
"8 o @ e h A X + 8 5 v 5.5.7.% L .   3 x.! 7 4 o . O u % + o . X O = = > *   X , , , o , = 3 > X u o . { e %.6.7 w + 3   ",
"c.m 5.y d 8 , = f ,.K K # k X p + - 0 3 X 7 ! o = . A Q . X o O , , z O o X . 5 m o = o o 3 c 6 9 @ . X d e q 7 A U * - ",
"5.% o v , = { * # d o o o   - 3 - X > - X + + X X   X g X , z % X o s :   .   v.b.O $ O n , X 8 G o + - * n o o - . * - ",
". . o a q X O o o o o X X g + > . X o @ X # o o = . X - d J &.!   - 1 m O O O , , = X O , , > 3   . * - -   + + - + + * ",
"    + + + X O n , i X   > j :   - - X H < s + X l d .   X : 7 7 + + X , O X = i i O O , X + 7 > . . 3 e j e p G .   # H ",
"- * _ _ X O % l D @ X .   X 7 - _ - * # X d +   @ 7 - 3 C 3 - > X $ O O o O i i i % u =   o 9 m . +   ! s 8 G +.+ X d l ",
"  + % # o X $ l K G X > 3 + 7 1 7 X   X = O n .   3 + : - A k q A = , D v e z n.z.5.4 X + = 4 O.d w + O # % # X X o + . ",
"> 5. .f m   =   * + X   3 +.] a 6 @ + + v ( O + o + + T g m.j % d o , s m l k u 1 X # X X X U X % k X , o j 8 3 o O X = ",
"- % K k k   X 3 _ - + * *.g ( $ d X + . A D = X o O X U 3 3 X - 3 , , $ + X X 3 3 g M.c . + 3 + = N.3 - 3 + X o = , X X ",
"- X . + = = o + - - - + * - > . { - >   > { X X X + &   = $ i O 3 . O =   . X   3 ;.B.y +   + + # c * - > > X , , , = , ",
"  X o X X , , X . +     * g < 3 - X   X   - # , o X _   X o = = > - = >   .   - - g c + * * - - A 7.. U Q #   A ( o o + ",
". O O Q 1 O , + X h 1 > + A j -   . + = . . ( f , , X 1 o - *   +.7 X - * + A ;.- . - 3 7 * _ - + g - - 6 G   D Q X + X ",
"o o . Q m . U + X k L * X = + X w ( ( u O G % u = . X J v   + X 6.X   Y 7 3 < < * + + + x t C - 0 - < 7 v Y 3 $ u o - X ",
"O . > . O + y 5 X o = * . , O n 7.D 7.d X l < 3 r : $ N 9., o o + + - p 0.- > 8 G p j 3 7 %   X C V.s k b.4 3 X ,.#   + ",
". -   . = = 1 N o = = = O . + , # o # X > * 3 C.& $.q o , i o +   .   *   . . e A ; @ - * . X O * - o + , # + + @ * - . "
};
