/* XPM */
static char *_1737746452[] = {
/* columns rows colors chars-per-pixel */
"60 60 129 2 ",
"   c #2C1607",
".  c #2E1906",
"X  c #2D1908",
"o  c #321B04",
"O  c #3B1D05",
"+  c #321709",
"@  c #341C0A",
"#  c #3C1E0B",
"$  c #311F15",
"%  c #3C210C",
"&  c #362317",
"*  c #3D2111",
"=  c #42230D",
"-  c #4C260E",
";  c #4C290F",
":  c #592E0E",
">  c #442411",
",  c #4A2711",
"<  c #472812",
"1  c #4C2A14",
"2  c #442A1A",
"3  c #4B2C1C",
"4  c #522D15",
"5  c #5A2D12",
"6  c #542F19",
"7  c #543117",
"8  c #5B3215",
"9  c #563219",
"0  c #5B351A",
"q  c #5D391C",
"w  c #633413",
"e  c #683714",
"r  c #673A16",
"t  c #6C3A15",
"y  c #64371A",
"u  c #633B1C",
"i  c #6A3C1C",
"p  c #713D15",
"a  c #793D17",
"s  c #733E19",
"d  c #4B3020",
"f  c #5B3823",
"g  c #5B3F2E",
"h  c #653D21",
"j  c #6B411E",
"k  c #754016",
"l  c #7B4317",
"z  c #76431A",
"x  c #7B441A",
"c  c #6E4325",
"v  c #65422E",
"b  c #714422",
"n  c #774C25",
"m  c #7B4B24",
"M  c #774C2D",
"N  c #7D4D28",
"B  c #704B34",
"V  c #7D5F35",
"C  c #7F6126",
"Z  c #844617",
"A  c #824816",
"S  c #824619",
"D  c #864B1A",
"F  c #8B4D1C",
"G  c #82561F",
"H  c #8C531E",
"J  c #94571E",
"K  c #95591F",
"L  c #814F26",
"P  c #865425",
"I  c #8B5525",
"U  c #925522",
"Y  c #955B23",
"T  c #9A5D24",
"R  c #975D2A",
"E  c #8A6524",
"W  c #8D642B",
"Q  c #8A6B2D",
"!  c #956127",
"~  c #9D6325",
"^  c #9E6927",
"/  c #9C6429",
"(  c #966D2A",
")  c #9C6B2A",
"_  c #8F742A",
"`  c #847D28",
"'  c #8A7A2C",
"]  c #95732C",
"[  c #947B2D",
"{  c #997230",
"}  c #947C31",
"|  c #A16526",
" . c #A16926",
".. c #A26428",
"X. c #A1692B",
"o. c #7E9B32",
"O. c #77A72D",
"+. c #7DA32F",
"@. c #76AB2E",
"#. c #79AD2F",
"$. c #7DA531",
"%. c #7BAF30",
"&. c #7DB032",
"*. c #8D852E",
"=. c #8A8A2E",
"-. c #91812E",
";. c #86932E",
":. c #88932E",
">. c #8D8431",
",. c #858E32",
"<. c #8C8A32",
"1. c #928231",
"2. c #938C34",
"3. c #879432",
"4. c #8D9234",
"5. c #839B31",
"6. c #899B33",
"7. c #949635",
"8. c #83A234",
"9. c #88A134",
"0. c #83AB34",
"q. c #88A836",
"w. c #8CAA38",
"e. c #94A83B",
"r. c #83B335",
"t. c #88B537",
"y. c #8BB738",
"u. c #8DB93A",
"i. c #91BA3C",
/* pixels */
"#.#.#.#.#.&.#.&.#.&.#.r.&.#.#.&.&.&.#.&.&.#.@.%.@.@.@.&.&.&.%.@.@.@.&.@.@.&.r.#.@.@.@.&.&.@.&.r.@.@.@.@.%.@.%.%.&.%.%.&.",
"#.#.%.r.&.&.&.#.&.#.#.t.&.#.#.&.r.t.%.#.@.@.&.r.&.&.&.u.&.@.@.@.#.r.t.&.&.&.&.#.&.&.#.&.@.@.r.&.%.%.@.t.%.%.%.%.y.%.&.&.",
"#.@.r.u.t.%.#.#.&.#.&.&.#.&.t.&.#.&.&.&.&.@.&.&.@.&.&.&.&.&.@.@.@.&.&.&.&.@.&.%.y.t.u.&.#.y.&.#.&.&.%.r.&.@.%.@.%.@.%.%.",
"#.@.#.%.#.#.@.r.t.@.#.&.#.&.&.#.#.r.t.&.t.#.#.#.&.&.&.#.%.%.%.@.@.&.&.&.#.&.&.@.r.&.r.&.&.&.&.#.@.y.&.@.@.@.%.%.#.#.&.#.",
"#.%.@.@.@.%.#.&.t.#.&.r.&.#.&.#.&.&.&.&.&.#.#.&.r.r.&.&.&.@.@.@.t.u.y.&.&.r.&.%.#.&.#.&.#.#.#.#.#.#.&.%.&.@.r.t.%.#.t.%.",
"@.%.r.%.#.%.@.#.#.&.@.t.&.&.#.&.&.#.&.#.r.r.#.#.u.u.y.r.t.&.#.@.&.&.t.&.#.&.&.@.#.&.#.&.&.#.#.#.#.@.@.&.r.#.&.#.%.@.&.%.",
"%.i.t.r.@.%.%.%.&.@.#.@.@.#.&.#.#.#.#.#.&.&.&.#.&.&.&.&.&.&.&.%.@.@.#.#.#.&.@.@.#.r.&.&.&.#.#.&.#.%.%.#.#.#.@.@.@.@.@.@.",
"%.t.&.%.#.#.%.&.&.#.&.&.#.#.&.&.&.&.#.&.&.&.&.&.&.&.&.&.&.&.&.t.#.#.r.r.&.r.@.@.#.i.t.t.t.&.r.r.%.%.&.#.&.%.r.&.%.&.&.@.",
"#.#.#.#.#.r.r.t.r.t.&.@.@.@.@.t.r.t.&.@.r.r.@.&.&.u.i.u.&.#.&.r.%.#.%.&.%.@.%.@.%.&.&.&.&.&.&.&.%.&.#.&.t.r.t.r.&.u.&.%.",
"@.@.%.#.&.&.r.&.&.#.#.@.@.@.#.&.&.#.&.&.&.&.&.&.&.&.&.&.#.&.&.&.%.%.#.#.%.%.@.%.%.&.&.&.&.&.&.&.&.#.%.#.&.%.%.%.%.@.@.%.",
"#.&.t.r.r.#.&.#.#.#.#.&.#.@.#.#.@.&.&.&.&.@.&.&.&.&.t.&.&.#.#.&.%.#.#.%.%.%.%.&.%.%.&.&.&.%.&.&.&.@.r.r.&.&.t.&.@.%.&.&.",
"#.&.&.#.&.&.#.&.#.r.t.t.#.@.@.#.&.t.&.u.&.@.t.&.%.&.u.r.&.%.r.r.%.&.%.%.&.r.r.t.#.#.%.&.u.&.t.&.&.&.r.t.%.&.&.%.&.@.&.&.",
"&.&.&.@.#.#.@.&.&.#.#.&.#.#.#.&.@.&.&.&.&.@.&.%.@.@.@.@.%.#.#.#.@.&.i.%.%.%.%.&.#.&.&.&.u.&.u.r.@.&.&.&.%.&.%.%.&.%.%.&.",
"&.&.&.#.#.#.&.&.r.#.@.@.#.&.&.&.&.@.@.%.%.@.@.%.@.@.@.@.@.#.@.%.%.&.r.%.&.%.&.t.y.&.%.&.&.&.&.&.@.@.@.r.&.&.%.%.&.&.&.&.",
"y.r.t.t.&.#.u.y.u.&.#.&.t.&.@.#.@.%.y.&.@.@.%.@.@.@.@.@.@.&.r.@.%.%.%.@.%.%.%.&.&.&.#.%.&.&.&.#.@.@.&.y.&.u.&.%.u.&.r.t.",
"r.%.#.&.#.&.r.&.&.&.&.#.&.@.@.@.@.@.r.&.@.%.t.t.r.@.%.%.@.%.@.@.%.%.@.@.%.@.%.%.%.%.@.&.r.t.r.&.t.@.@.%.@.r.%.#.r.&.%.%.",
"#.@.@.#.&.&.&.@.&.&.&.#.#.#.@.@.@.@.@.@.%.%.t.t.r.%.%.t.&.@.@.%.r.t.@.r.t.@.r.r.#.#.#.&.&.%.&.%.&.@.@.@.@.@.@.@.#.&.#.&.",
"@.&.#.&.#.&.@.&.t.&.r.t.&.&.r.@.%.%.@.&.%.%.@.@.%.@.@.r.%.@.@.@.%.y.#.%.%.@.&.0.#.&.r.#.#.#.#.#.@.@.#.@.@.@.&.@.@.@.&.#.",
"&.@.@.@.@.@.@.&.r.&.r.&.%.%.#.&.&.t.r.r.%.%.%.r.%.%.@.@.%.%.#.#.@.#.%.#.#.@.#.%.#.&.t.#.%.%.@.#.#.&.t.&.&.r.&.@.@.r.r.@.",
"@.&.r.r.@.@.@.&.#.&.&.#.#.&.&.&.%.&.&.r.&.@.&.r.@.@.%.%.@.%.@.#.#.@.#.@.@.#.#.%.#.#.#.#.&.r.#.%.&.&.u.y.t.y.#.@.@.t.r.@.",
"@.&.u.y.#.&.@.@.#.#.#.@.#.%.&.#.@.&.&.@.#.#.@.%.#.%.&.%.&.%.0.&.@.@.#.#.%.%.t.r.t.&.%.#.&.u.%.r.&.&.&.&.&.#.@.#.#.@.@.@.",
"&.#.#.#.@.@.t.&.&.t.@.t.%.&.u.t.r.@.&.&.#.&.%.&.%.t.t.%.y.%.t.%.#.%.t.#.u.%.t.&.r.&.&.%.%.&.%.u.r.&.&.&.t.#.@.&.t.#.@.@.",
"%.&.#.@.@.#.t.&.@.r.@.t.#.%.t.r.r.&.&.i.&.%.5.3.<.<.1.*.1.[ >.*.>.<.4.5.8.%.%.%.#.#.#.#.#.%.&.&.&.&.&.#.&.#.@.@.r.&.@.@.",
"@.@.#.#.#.&.@.#.&.&.#.#.#.#.&.&.r.&.&.&.0.>.X...| | | | | ........| ..) ) ( 1.0.#.u.&.&.%.%.%.&.&.&.#.#.&.@.@.#.&.#.&.#.",
"@.@.#.&.&.&.#.@.%.%.%.%.%.%.%.0.e.4.1.] ( ~ ~ ..|  .| ~ Y K K K Y Y T ~ | | ) 6.o.q.0.$.%.@.%.#.&.#.@.@.&.&.&.&.%.#.&.#.",
"#.#.&.&.#.t.&.&.%.%.%.%.t.%.5.[ ) ~ U Z r 0 z H ~ T J D Z Z Z Z Z Z Z F F K / W V V C Q [ *.3.$.@.&.#.#.&.u.#.#.r.t.@.@.",
"@.t.y.#.@.t.&.&.i.%.@.%.%.%.' ....Y Z l < $ 2 l l p e e e t p a l S S S S Z F b g d & 2 i S I 2.t.t.#.#.&.r.@.@.&.r.&.@.",
"#.#.&.@.@.@.#.&.%.%.%.@.%.%.0.7.} / H A 8 * 1 u w 4 1 y 0 , 4 8 i s e e e w w 5 9 0 1 2 r I ' 5.&.&.#.&.#.&.#.#.#.#.&.#.",
"@.@.@.@.@.&.#.&.%.%.%.%.%.%.%.8.-.~ F x : 4 j N c 9 7 q 0 1 7 q m m u 9 8 1 6 9 7 1 5 x F Y ( } >.3.$.@.&.&.#.#.#.&.&.#.",
"r.%.%.@.@.&.&.u.t.t.%.5.2.] E G S p 8 ; = 1 q N j 9 7 j y 1 7 q m n 0 0 9 4 0 0 1 = ; t x F K T ..X.<.@.&.t.#.&.&.#.&.t.",
"t.%.t.%.@.%.%.&.%.6.[ ) T F D l : O o O < < y m u 7 0 j q 1 0 q N z 0 9 9 0 0 6 2 o X X @ - p D ( 3.@.@.@.&.#.&.u.#.#.r.",
"%.@.%.%.@.&.@.@.o.] ) | ..R y y k = . o % = 7 m q = 1 y q 7 7 8 N i 7 1 0 9 3 1 #   X + + 4 x R { <.8.&.@.#.&.&.t.%.#.&.",
"r.0.#.#.&.u.&.#.@.w.>.X.~ U 9 g M 4 o   X % = u 8 # % 7 6 1 > 3 b 0 , = 6 1 = > 6 f 0 e x D H Y ) ] -.q.@.@.#.#.#.%.%.%.",
"t.r.&.#.#.r.&.#.%.$.} ) R I b v B f =     o # 1 1 = % , = = * 1 0 < * @ = , 6 h c M P n n !  .} 5.O.@.@.@.@.#.#.r.#.t.r.",
"#.@.#.#.&.@.@.@.%.%.5.5.,.] / P L P x w 8 t x x z k a t e 5 4 1 ; = @ # 8 i B B P ! / c d P  .) -.$.#.#.@.#.r.#.&.%.t.#.",
"t.t.t.&.#.&.#.@.@.&.@.$.} ) .. . ...T H D D ! | | | | ~ | Y U D l t w w a k q h I R Y Y R / .. .[ w.r.#.@.@.r.@.@.@.@.#.",
"r.t.t.@.@.t.&.@.%.%.@.r.6.7.=.*.*.>.7.7.3.9.3.1.) | ........| | ~ ~ ^ ` ` _ ~ ~ | | ^ ^ ) [ *.5.#.t.&.@.@.@.@.#.@.#.#.%.",
"@.&.&.@.@.&.@.@.y.%.@.%.&.&.&.&.&.#.t.t.r.u.%.%.;.=.*.*.*.*.=.:.;.6.9.%.#.3.*.*.=.;.;.8.+.%.@.%.&.%.#.#.#.#.#.#.#.%.#.#.",
"@.@.&.&.&.@.@.#.%.%.@.@.@.t.t.u.&.&.&.&.&.&.#.#.#.r.&.&.&.&.&.r.@.r.r.#.@.%.%.#.@.#.&.#.&.&.&.&.#.#.@.@.#.@.r.#.%.#.#.#.",
"&.@.@.#.t.@.@.#.%.@.@.&.@.&.r.r.&.&.&.&.#.&.&.#.#.t.t.t.t.#.t.y.#.#.#.#.%.#.y.t.#.#.@.&.&.@.@.@.#.#.@.#.#.#.y.r.t.&.t.#.",
"#.#.&.#.&.#.@.@.%.%.0.#.#.&.#.#.#.&.t.&.t.&.t.&.@.&.&.&.%.#.&.&.@.@.@.#.%.#.%.#.@.@.t.t.u.#.#.%.&.#.#.%.%.#.@.#.&.&.r.#.",
"@.%.t.@.#.@.@.t.t.%.i.%.&.y.&.&.#.&.&.&.&.#.&.&.#.#.&.#.#.&.#.#.#.#.@.@.%.%.#.#.@.@.&.r.t.#.#.&.t.t.t.t.r.#.@.#.#.&.&.#.",
"#.#.&.@.#.#.@.r.r.#.%.#.#.&.%.#.&.@.#.@.&.&.#.#.&.#.#.@.#.#.&.&.#.#.%.%.#.#.%.%.@.#.#.#.#.#.#.#.r.&.&.t.&.#.%.#.@.t.r.@.",
"&.#.#.#.#.#.#.@.@.@.%.@.#.#.@.#.@.@.&.&.&.#.#.&.r.r.r.&.r.#.&.&.r.%.#.#.#.%.u.&.t.#.&.t.#.@.#.#.#.%.&.&.#.#.#.#.@.#.@.@.",
"#.#.&.#.#.#.#.#.@.#.@.@.&.@.#.&.@.@.&.r.&.@.#.@.t.y.t.r.r.&.@.&.u.%.%.@.#.#.%.&.r.&.&.t.&.#.#.#.#.%.%.%.#.#.@.@.@.@.@.@.",
"&.#.r.r.&.&.&.@.r.&.r.&.r.t.&.r.#.#.@.r.r.&.r.&.#.&.&.&.#.%.#.%.%.%.#.@.@.@.%.%.%.&.%.&.#.#.#.#.&.#.%.#.t.t.t.&.r.@.@.#.",
"i.&.r.t.&.r.&.&.u.t.t.r.&.t.%.&.#.@.@.@.#.&.t.#.&.#.t.r.#.%.%.%.%.%.&.%.%.%.%.&.r.%.%.&.#.@.%.t.y.&.#.#.&.t.&.&.t.#.@.@.",
"t.&.%.&.&.#.#.@.&.&.&.&.#.#.@.@.@.#.@.@.&.@.@.&.#.@.&.#.#.%.r.%.%.%.u.&.%.%.%.t.t.%.&.#.&.%.%.r.r.%.#.@.#.%.&.#.@.#.#.@.",
"#.#.&.u.&.%.%.%.%.&.%.&.@.%.#.@.%.%.%.%.%.%.%.&.@.#.#.@.&.u.i.r.%.#.r.r.&.%.&.&.&.#.&.%.&.&.#.#.#.#.#.@.#.#.#.#.#.#.#.#.",
"#.#.#.#.#.%.&.&.&.&.@.%.@.t.&.%.@.@.&.y.%.t.#.%.t.%.%.@.&.t.%.%.#.#.%.&.%.%.%.&.&.#.#.&.#.#.#.#.#.#.#.r.&.&.%.&.#.#.&.t.",
"@.#.@.@.#.&.&.r.t.&.#.#.@.&.%.@.@.@.#.%.%.r.#.#.t.%.@.@.@.@.@.#.%.&.%.&.&.&.&.&.%.&.%.#.#.%.t.&.#.#.#.t.t.r.r.r.#.%.&.u.",
"#.@.#.&.&.&.&.t.t.%.%.#.@.@.%.&.@.%.#.%.%.%.%.#.@.@.%.&.@.&.&.&.%.%.&.r.&.&.&.r.t.r.t.#.#.&.u.t.&.r.#.%.&.&.#.#.#.#.#.%.",
"&.r.y.t.&.#.&.#.#.#.%.#.@.r.y.y.y.&.#.#.r.&.#.#.&.@.@.t.%.&.t.&.&.&.%.u.&.u.&.r.r.#.r.#.#.#.#.#.%.t.#.%.#.t.&.#.%.%.%.%.",
"@.&.t.t.&.#.@.@.@.@.#.@.@.&.t.&.r.%.#.#.t.t.%.%.&.#.&.%.@.@.&.@.#.%.&.&.&.&.%.%.#.#.@.#.#.#.@.#.#.#.#.@.#.#.#.#.#.&.#.%.",
"#.#.#.#.&.#.&.@.@.@.#.#.@.@.@.&.#.@.@.#.#.%.%.%.@.&.%.@.&.&.&.@.@.%.%.%.@.#.%.@.@.r.u.y.#.#.#.#.#.#.#.#.#.#.%.&.&.&.#.#.",
"#.&.&.@.#.&.&.#.#.#.#.#.@.@.&.@.@.#.#.#.#.@.%.%.&.@.@.@.#.%.&.&.@.#.%.#.#.%.#.@.#.%.0.#.#.#.@.#.t.t.#.#.r.#.#.r.&.&.&.#.",
"#.&.&.r.&.&.&.#.&.&.&.@.#.r.r.@.#.#.@.&.#.#.t.t.&.&.&.&.&.@.@.@.%.%.%.@.#.#.&.%.#.#.@.@.#.@.@.#.#.&.#.#.u.&.#.t.t.#.#.#.",
"&.#.&.y.&.#.#.#.#.t.r.@.#.#.&.@.t.&.&.&.#.&.&.&.&.@.&.u.&.@.@.&.t.%.@.%.#.#.r.&.#.#.#.#.r.r.@.@.@.@.#.#.r.#.#.&.&.&.@.&.",
"#.#.@.&.&.#.t.&.&.&.&.@.#.&.#.&.u.t.u.&.&.t.@.@.#.&.&.&.&.&.#.%.%.#.#.&.#.#.#.%.%.%.&.@.r.#.#.#.O.@.u.r.u.r.@.#.t.&.@.#.",
"&.@.#.#.#.&.t.&.#.#.&.#.&.&.#.&.&.&.&.&.@.&.@.O.@.u.&.&.&.&.&.&.#.%.#.#.#.%.%.t.r.%.r.@.#.%.#.%.@.@.&.#.&.&.@.#.t.#.#.#."
};
