/* XPM */
static char *rabbit1737746453[] = {
/* columns rows colors chars-per-pixel */
"60 59 30 1 ",
"  c #7AAE2F",
". c #79AD2F",
"X c #7BAF30",
"o c #77AC2D",
"O c #7CB031",
"+ c #D1AB93",
"@ c #7EB133",
"# c #81B234",
"$ c #89B637",
"% c #85B435",
"& c #8DB83A",
"* c #80B132",
"= c #76A92D",
"- c #D2AC95",
"; c #CBA791",
": c #B49375",
"> c #C7A189",
", c #8C9546",
"< c #BE9780",
"1 c #A0935D",
"2 c #E3DDDB",
"3 c #7D9D35",
"4 c #8A8B47",
"5 c #BF9D81",
"6 c #87A63B",
"7 c #CDC2B7",
"8 c #9A805D",
"9 c #C6B6A8",
"0 c #624231",
"q c #93A558",
/* pixels */
"@.     XXX.OX. XOX.. X  .oo.. X.oo ...* .. OOoOOo==o.. OOXX@",
"@..XXOOXX .$#. O#&X  . *X .$*.=o.*%XOO*  ..Xoo## .o#X   $O@@",
"@. &$*   XXO X$XO X .oO% OO%* o..O%@O. .$#$@.%@XOO $X.  *o O",
"@o.*X oX%  OX # o@$O$o. OX@XX ...  X .O %#%@ %O. $   o. oo  ",
"@.o==  X&X #O.X X@%@X .X##*X@ =o#&$* %%.XX XX...o*X  .##  & ",
"O X*o .. X.%* XXOXOO*% .&&$#$X.. %%*.XXoXOX X   .oo*%.OX oO ",
"O&$$o     . o XO   .X#X ##O##OO.oo..oXoo #OXO .  X .  .o.o.o",
"@%#X.o XOX  . X@XOoX@@XXO@OXXX*$o.## %oo.&$$%X%%XX  O #X.O .",
"O XX.*$#$*#.ooo$%$O @$XO@$&&@.X% .X* ..o.####O##XO X%#&#@&XX",
"Xo. .O$** .oo=oO XOOOOO@O###..OOO ..X..  XOOXXO@X  XO XX  .X",
"@X$*%XOO.X  .o. . X@X  O@O$#* X@X .oX XX XO@O XOOX##O*%X. XX",
"@X* XXXX *$%*o=. $O$%o##..6,6X#%.OO @%#%..X@&#%#OX%$ @#XXOO@",
"#OO . . X=43= XO XO@Oo O=4:;4....#&X X X. X@&#&%..OX OOXXX O",
"#*@O .XO* 4813oOXo.X . =4;224= . O# OOX%$% @@OOO.o.#X#O #O*@",
"$$#$X $&&#.q;<13o $*o..4;2221=%oXX.o   ##O. @@O.oo &O&XX&@#%",
"#OXXXX@@OOX=99><,=*Xo 6:2222:3oo XooX. . .o*%%$X$.o..#..*X X",
"@.o.XO  X@O q27>>1=  .,-2227:3o.@&o*$.*% X XX *XOoooooo.XXXX",
"@ . XX  $##$=;27>>, X=172227:3oo $.  o X O#..ooooo.oo...o.X ",
"@..oooo.#O@#O6729;:6#3<7222;1o .o. .ooo  O% OXoo.X$%#%Xoo%#.",
"O $% .. XOX . 672>;1 ,>922913 o..=oo.. OX...*$ XO#&$%$oo.#O=",
"O.$$X.X .X... @67;;53,;-2-:3%X#Xo=*.#X$#$@X.X&X$#OX OooXOoo=",
"# .o=o$*o$.%*.&%q5;>41+>;5,o$@#Xo.$ $X#XOOXXX@O%#OOO$ . $.oo",
"# .o=.**.*.*..%#O4:<>+-><1=O.33,,,,3=oXOXX   XO@@@O X.o.*X .",
"Ooo XOX..  o   @61>--++->,=,15>;;;>5:,6%X&*   X@O ..  .XX X.",
"@ooXO@X.o X OX  ,;-++-+++11>+--++++--;:,=X . ..o..o.X# OOOX.",
"O $O.%% *#X %* =:-++;:;+-><-++++++++++->,= X .=O*#..#&..#% o",
"OX$ oXOX$#o. . 65-+-80:-+;<++++++++++++->,X$XX.#%%  X#ooXXX.",
"Oo. . XO OO   O6>-++00:-+>5-+++++++++++++:3,3   OX X  .  OO ",
"@oooo X%*#X %X.,;+++::++-<:-++++++++++++->:53XXX&$*o*%o XO@O",
"&*#X=.X%#$  %O=1++++--++-<>++++++++++++++;<;,=o.%*.=O%.*% X$",
"% *X.. oo.. . =1-++++++->5++++++++++++++++<+:4o*O..o=X #&. O",
"@ .o %#.oO.*# =15>--++;5:;+++++++++++++++;<;+1 $%X*%oo  XXXO",
"&%%..%$.o** OXo,15>5<<<5++++++++++++++++++<;;,.XX=o ==.XXOOX",
"%. . X.o...XO.oo=34:;;+-+++++++++++;;++++;<+>3X  oooo.XXOO$O",
"#*OO  oo.X..X   . o1;+++++++++++++-<>-+++;<+1=X$@@@ oO%o..  ",
"%&&@o#Ooo o #$* . #6:++++++++++++++<;+++-><54oo$O$#===oooo.X",
"@*O oX o%#= *#X  X%&45++++++++>;+++<;+++-:43o o. X..o.    . ",
"@oXX .oo**oo.*%&#O#*1<<;<+++-><+++-5>--++1.X X OO ...oX . . ",
"@...#*oo.oo .#$$#@ 31+58:-+++:;++;;>:<>++1oXO..X ooo..$#$X* ",
"@.o.*Xoo    . X  =,:;-545-+-5411,48<>55+-1X%%..XX.. XoOO##$o",
"@o%..ooO%X&* %#X.,<5-;11;;+;,o..o4<;>--->,*%&XoX%%%##o=..OX.",
"@.*o..o*$ # .**.o,411,3:<<<:3XXO=8><5;>:,=  X o $**$#oXoo%#.",
"#.....oo.o... o..ooooX3:>;<,X O@#3,4,,6=%XO# =o   O@X. ooX.o",
"#.  .o .oo.. X. oo.*X.=411,6%X X&@X=o.**%@O&O....X@X..oooooo",
"#.O* *X. @OO@%X#..o#%.#.=.@O X. O  ooo OOOX@ o..X   %$#.#oo.",
"&%*&*%XX$&%$O$X# o=oOX$X  #%.XXXOO@ X  @@XXOX=X%$O X#$#X%.oo",
"$#X*XXX.O#OOX.ooo oo .. X.XO X@O O$*. .$$XOXXXX%#X.o.OXX. oo",
"@  &# X  X  X..o   X XXX . oO$&%..%%XXX@@XXOOOoo..ooo   o..o",
"@. X  OOO@X..##.oo &X% X%O .X$*X.oX@X XOOX OX  o  o#**XX..X%",
"Ooo=.XX%##X .XOo=ooO #..%Xoooooo OXXXXO@@O@X.X$*...$$##*. #$",
"@o  X O$$# .oo.O. . XXX .o.*o**O*XO%@#@%$#%..X&%O#.OOXXX X. ",
"@X&%%.X .. .oO$&$*..*#O.X..$ *%**XO&%$##%X@X  X *% OX$OoXX X",
"OX$%%. o=o..o.%#@X. #$X XX  oo ooOO@.X oo.o  .o.Xoooo   XO X",
"O  .X X.ooo.oo.  o...    .o. OOXo XXo  oo#&$....X.ooo.XOXO @",
"@ X  OO  ...o. oo . .oXXX =. XXXooX.. .oo O .ooo%$  % .##XX ",
"@XX%#X@  X*..#%o. .X .%$OO * o..*  oo.#*o.oo ooo. oo&X.$% . ",
"#X %%  . #$. X. %%#@XOO*X  &#.. $ . .o*Xo...%*oo=o  #.o@@ oX",
"# . X.%% XX. OXO$$$*X$Xoo#O##OXX..o*Ooo*OO#oXO. ==&#&%oO&X. ",
"@oo XX##XXXXX .OOXX ..o=o&*XO@X.. .o.  %* *o.  XooX.OX. *o. "
};
