/* XPM */
static char *_1737746453[] = {
/* columns rows colors chars-per-pixel */
"60 60 87 1 ",
"  c #7AAE30",
". c #77AC2E",
"X c #7BAF30",
"o c #79AD2F",
"O c #78AD2E",
"+ c #79AE2F",
"@ c #7CB031",
"# c #7EB131",
"$ c #83B334",
"% c #7CAF31",
"& c #76AB2D",
"* c #7AAF2F",
"= c #6EC21A",
"- c #85B435",
"; c #7FB032",
": c #80B233",
"> c #8DD91F",
", c #88B536",
"< c #86D31E",
"1 c #8AB738",
"2 c #8DB939",
"3 c #8FDB1F",
"4 c #71C41A",
"5 c #78C91C",
"6 c #74C61B",
"7 c #439F14",
"8 c #8AD61E",
"9 c #7FCE1C",
"0 c #48A314",
"q c #74AA2B",
"w c #87C628",
"e c #82D01D",
"r c #5BB119",
"t c #50A916",
"y c #874A09",
"u c #65BA19",
"i c #97540A",
"p c #7FB72C",
"a c #82BE29",
"s c #7CCC1C",
"d c #6CC01A",
"f c #9C5A0C",
"g c #5EB418",
"h c #683908",
"j c #A86B14",
"k c #3D9A15",
"l c #6B5610",
"z c #6ABD1A",
"x c #57AD18",
"c c #784108",
"v c #339216",
"b c #8CD322",
"n c #4F400A",
"m c #245D0F",
"M c #89CF23",
"N c #779224",
"B c #348012",
"V c #296A10",
"C c #88CC24",
"Z c #573307",
"A c #1A500E",
"S c #A3600F",
"D c #338B14",
"F c #307312",
"G c #684B0E",
"H c #B67618",
"J c #81A933",
"K c #8B5D0E",
"L c #5F9F18",
"P c #4A4C0B",
"I c #4E6A0E",
"U c #BA831E",
"Y c #8FBE37",
"T c #837233",
"R c #7EA031",
"E c #94A72D",
"W c #79A82F",
"Q c #94811B",
"! c #6A741A",
"~ c #2B4D0C",
"^ c #4D9715",
"/ c #4C9017",
"( c #616414",
") c #71B51A",
"_ c #4D7910",
"` c #87894C",
"' c #AB9E29",
/* pixels */
"+o++@X*XX+@$o+X@$%oX+ Ooo.+#X +..O o+%-oOO.@XO@-Oqq&o++ @@*@",
"oo:##XX XO#,oX%@1: +O.::@ %2%.q.+$,@#%;+% %X&.%$*X.$$oo+,$@#",
"O.2,$Oo X X .,$*O%@% .:%X@##@ .o.X##XO*o1-2$O,$*X# #;O++ .& ",
"O. .oO 1:+@@+@%O+1$$:.O*@@@XX*+.%;X*+ # :#:#*;@..1:O+OoXo.%;",
"+.&q  +$: ;$+ **X::@ *O@,-#pwCwp,22# --OXX  XOo+O.X %.%1XO$,",
";;-&+o.oX+;-+*X@X*@+,:.@22Yb3>>Maw2### .X@*+X* +o..o-   oOO%",
"21,oo *  O+.OX@ +oo.:;pwwwb3<59>8>bMbCp. $#%# O  *Xo+++O..OO",
":$*+.  :%  ++ ##paapaaw>8<8><s8389<>33wOO21,1X$1XX*o%;::o%@+",
"++X  1;1@, .&qpMb3>b>99es4s>338s6=4983bw##:#:@#:@X* :,$1*,-+",
"&o oX,#:  ..O*a3><>33<4zd=588<8<sdd=5<3b# @@X ##@   @X+@  O ",
" ,;,@X#o*% #abM<545e8>z0gd4664s8<rrd6e3w ###%pCCwp#,#@,#++X ",
"X# %X @+X2wb>8555=d=696x0g====4<5t7z833MaMMawb33>w:2 @:%*X@@",
"#@*OoO   p83<6d==zrru=ez7tzrgrd86tu<3><>>33es98>>bw@ @@XXX *",
"##; + %#%@C<655sdt00g58546eg00x656><<9s<833e4=6<33Mp@##*@#%:",
"2#1% $22,@w55<5960z988<>3<e9z5d4839444=45e>>ed=se>bY;1$O11@1",
":X@ X#$;:paw<<4duxe3<546<s4559<55<9====d5e<3>ug=s>8w+$%.#@  ",
"o..X@X+ a88e96dg0r8>5d==44==d====s86==dgzs8>9xtd658>a...+XXX",
"*o+X@*+pb3<54=r077=8995====6ss===69uggxx=<>6ttg46e>Mp.OOOO  ",
"+O.&&.*C>88><4grtttg4<6===6<<<9s=65xgggu533500z8>3>wp:@O& ,X",
"o$:%..pM<6ud55sese=48s===5<9469e99s98>946>8r0ue<<>33bY;..;1o",
"o12:o  a85006>>94645e<5ddzs4===68e445<3e9360x56=45838a.OX.&&",
"  o&q#$a886u<<<5===4<>5uxx=====59<5d=9>85e<6d====d6<38p.$#&.",
"*+.q&:,pb<u9>s4====4s>sdgtzdrrruzs4=5>>5=4e8<4drt7u93>a&:#OO",
"O.OOXXpb=x0rzz======69<5dxrr0770ttgd4994==49eu^FDvg83>a.XX*o",
"&.*@# p8=0077tz==dd=gtrxxrkk7777770true4==4<<uBVDDke3MpX@XX ",
".;@ :1C>esu077tggturkvkk70kvkkk7tt4u6zuuzu=erBVBvvr8>w;+%1%O",
" 2:&%w3etu9g0777770kDvvv7777kk77u=uux070tr4^mVBvx4<>w1@q $%o",
"O; O+C3907xBDk7kBIDvvvvk777k77kB^07770tt66qDBDVFr4>C# +O *@X",
"&.O&*M38x77vVVFVVZIvkkBBDDDVFIV~G_7kB/x)L!lVFFmAmL3ao@Oo+@@X",
"  oq*w>3u077vDBx/nGmmmP~n~^V~ZP~yP(mm/FlnhIFAAAmLM>p 2 O#X@$",
":$$&O#wb<5zxzrgLV~ylAAnnGF)FAncGlnGAD4_cl(^LFVmLMaaOq;@ 2;.;",
"o.o+ X*aapwb38dvFmPyPmPyIu)mAnyilnGALLl!/k7t=C)Ma  :&.*o-@ X",
"%#. :2 O%$*Y8<t00vBGclGiN)FAAnyfPnymIlQ070704wpp$+.,oq+  XXX",
";-Oo@-O.o;o@w><esrt/lhhyfT_mAniK_PclGj*uz5d4C#ooX&q&qq.+X@#$",
"&O+ *..+ + @@aCCaM9wpNlhciK_mhfK/IyijNtOpaCa@O %XOoo..- X@:,",
"1-:+X &.+ & X%@*Oaa#@p.!nhiKlcjK^ISSQ.O X+*% +.1-:,+.&$..&.o",
"21:.;$.o o.-$1o++X2-#$#:NncfcyjjL(jjJ,;:1X%1%*&;@:-&qq&...Oo",
" X*.o .;2&& X@X@*X2-12@*@!ZiiifjNKHQ*;oo;X#@o+o+XXoo+O+ + oO",
".+ X O. ;&..X,11#####@Oo*RhyifffKSjE++XX.oX  @+@@+O.O&%%%o+o",
"O..:-&.OO.+O --$#@X +  O+JGyiifiiiQ%X+,-Oo X@OO  .&.o.,-1;$;",
"Ooo%%..oX %++X+++:,#,X1%OWnyiyyffTR+@.% &&$,1 O+@X +@+&%@#-:",
"&, O.&o1@-1O#2@  %#%:X#X*RnyiyyfQ...X+O.&&;$1@Oo1:1:,+qo.X# ",
".;o.o.o,%%%O ; o+o+X@**X@NZyfiffN*  +o +.. + o.o$;:$,.  &@1o",
"++ooOO&O&.+O+O.oOo +*X @$NZyfSSfR@+.. ,:,*X$%q.++ @#XO &&.%&",
"O*oo.+ .&O+o*++o&. $oOO+2NhyfjjjE@ &.o%;-#@1#OoO. @Xoo.&&.&&",
" X$ #X o:@#X,#:;.O.1%;:+#NcyiHHUJ* ..O @@@X@X.OOX*+ ;2- :%&.",
",%2#-%@#Y:2%-:;#.&q  :-+@NhciHHUJ## *+ #:X @Xqo,,:o*@,-X-%.O",
":X#%*Xo -@#X O&&Oo&O O+X@!hhijHUE@1;o+O11X@XX@ -$#+..X@X+oo.",
"++1-** +X  XoO.O *   X*@NnhcfSjU'+,$XXX##XX@@@O&.OO..O  .Oo.",
"O+%%oX@@#@oo ,o+.O$,;$O%(hcyifjHUoX#X *@@  @X++.o .%;: %+Oo:",
"O.q.X*:::X Oo:o&&&%;;:+NZhcyiijHUE*@*X@##@#@O -:oOO:2,;-+OX2",
".O+*X*1,1+ ... o.+OX*X@(ZchciiSjj';$;:#$,#,+OX11%$+X# XX** o",
" 1--oXX o  &.-11, oo::NZhhZyyijSfUE2$1$$,%$X+ X@%1X@@:,. X  ",
"X2-1o .q.Oo..-,:$o  $!ZZZZhycyHfSSHE #X..o&o+ .OXo.O.o%o @* ",
" Xo%**+&&.OO&O* +&oJ`lllGhcyhhfcijfSQNW.q;,,+.Oo O..&.+@@XXX",
"+* +X@XOOOoO..O&OoOoWWoRTKlK`TTlljjTT`R..%$;Oo.O;1 +#%O%:@X*",
"XX##X#X  %o. , &Ooo*O+1;Wo&W;; WWRJJo ;%.O&&.&&. :o.,,O:2X+ ",
"@ $2 X.o@2%oX%oX$%#@  $:X*@2X.O ,+++..$:.+OO::q.&&..#;&@:X.o",
" o #+;- X#o.X X:2-1X#,oOo%@-#X*X%oO:;&.   ;.;:.Oqq---1&O,:OO",
"o&O* :,@X*++@ X@:@#+ ;qq 2@@##X oo.oo++,$%,q&  XOq#:#-o&-;.+"
};
